<svg width="50" height="50" viewBox="0 0 50 50" fill="none" xmlns="http://www.w3.org/2000/svg">
<path d="M11.8164 16.2109C10.7422 16.2109 9.82259 16.5934 9.05762 17.3584C8.29264 18.1234 7.91016 19.043 7.91016 20.1172C7.91016 21.1914 8.29264 22.111 9.05762 22.876C9.82259 23.641 10.7422 24.0234 11.8164 24.0234C12.8906 24.0234 13.8102 23.641 14.5752 22.876C15.3402 22.111 15.7227 21.1914 15.7227 20.1172C15.7227 19.043 15.3402 18.1234 14.5752 17.3584C13.8102 16.5934 12.8906 16.2109 11.8164 16.2109ZM11.8164 22.0703C11.263 22.0703 10.7992 21.8831 10.4248 21.5088C10.0505 21.1344 9.86328 20.6706 9.86328 20.1172C9.86328 19.5638 10.0505 19.0999 10.4248 18.7256C10.7992 18.3512 11.263 18.1641 11.8164 18.1641C12.3698 18.1641 12.8337 18.3512 13.208 18.7256C13.5824 19.0999 13.7695 19.5638 13.7695 20.1172C13.7695 20.6706 13.5824 21.1344 13.208 21.5088C12.8337 21.8831 12.3698 22.0703 11.8164 22.0703ZM26.4648 15.2344C26.4648 14.1602 26.0824 13.2406 25.3174 12.4756C24.5524 11.7106 23.6328 11.3281 22.5586 11.3281C21.4844 11.3281 20.5648 11.7106 19.7998 12.4756C19.0348 13.2406 18.6523 14.1602 18.6523 15.2344C18.6523 16.3086 19.0348 17.2282 19.7998 17.9932C20.5648 18.7581 21.4844 19.1406 22.5586 19.1406C23.6328 19.1406 24.5524 18.7581 25.3174 17.9932C26.0824 17.2282 26.4648 16.3086 26.4648 15.2344ZM20.6055 15.2344C20.6055 14.681 20.7926 14.2171 21.167 13.8428C21.5413 13.4684 22.0052 13.2812 22.5586 13.2812C23.112 13.2812 23.5758 13.4684 23.9502 13.8428C24.3245 14.2171 24.5117 14.681 24.5117 15.2344C24.5117 15.7878 24.3245 16.2516 23.9502 16.626C23.5758 17.0003 23.112 17.1875 22.5586 17.1875C22.0052 17.1875 21.5413 17.0003 21.167 16.626C20.7926 16.2516 20.6055 15.7878 20.6055 15.2344ZM4.98047 31.8359C4.98047 32.9102 5.36296 33.8298 6.12793 34.5947C6.8929 35.3597 7.8125 35.7422 8.88672 35.7422C9.96094 35.7422 10.8805 35.3597 11.6455 34.5947C12.4105 33.8298 12.793 32.9102 12.793 31.8359C12.793 30.7617 12.4105 29.8421 11.6455 29.0771C10.8805 28.3122 9.96094 27.9297 8.88672 27.9297C7.8125 27.9297 6.8929 28.3122 6.12793 29.0771C5.36296 29.8421 4.98047 30.7617 4.98047 31.8359ZM8.88672 29.8828C9.4401 29.8828 9.90397 30.07 10.2783 30.4443C10.6527 30.8187 10.8398 31.2826 10.8398 31.8359C10.8398 32.3893 10.6527 32.8532 10.2783 33.2275C9.90397 33.6019 9.4401 33.7891 8.88672 33.7891C8.33333 33.7891 7.86947 33.6019 7.49512 33.2275C7.12077 32.8532 6.93359 32.3893 6.93359 31.8359C6.93359 31.2826 7.12077 30.8187 7.49512 30.4443C7.86947 30.07 8.33333 29.8828 8.88672 29.8828ZM13.7695 39.6484C13.7695 40.7227 14.152 41.6423 14.917 42.4072C15.682 43.1722 16.6016 43.5547 17.6758 43.5547C18.75 43.5547 19.6696 43.1722 20.4346 42.4072C21.1995 41.6423 21.582 40.7227 21.582 39.6484C21.582 38.5742 21.1995 37.6546 20.4346 36.8896C19.6696 36.1247 18.75 35.7422 17.6758 35.7422C16.6016 35.7422 15.682 36.1247 14.917 36.8896C14.152 37.6546 13.7695 38.5742 13.7695 39.6484ZM19.6289 39.6484C19.6289 40.2018 19.4417 40.6657 19.0674 41.04C18.693 41.4144 18.2292 41.6016 17.6758 41.6016C17.1224 41.6016 16.6585 41.4144 16.2842 41.04C15.9098 40.6657 15.7227 40.2018 15.7227 39.6484C15.7227 39.0951 15.9098 38.6312 16.2842 38.2568C16.6585 37.8825 17.1224 37.6953 17.6758 37.6953C18.2292 37.6953 18.693 37.8825 19.0674 38.2568C19.4417 38.6312 19.6289 39.0951 19.6289 39.6484ZM40.1855 9.27734C40.1855 8.13802 39.5915 6.51855 38.4033 4.41895C37.2152 2.31934 36.4421 0.99284 36.084 0.439453C36.0514 0.374348 36.0026 0.317383 35.9375 0.268555C35.8724 0.219727 35.8073 0.162762 35.7422 0.0976562C35.6771 0.0651054 35.6038 0.0406914 35.5225 0.0244141C35.4411 0.00813675 35.3678 0 35.3027 0C35.2051 0 35.1156 0.00813675 35.0342 0.0244141C34.9528 0.0406914 34.8796 0.0651054 34.8145 0.0976562C34.7493 0.162762 34.6842 0.219727 34.6191 0.268555C34.554 0.317383 34.5052 0.374348 34.4727 0.439453C34.1797 0.927734 33.5368 2.02637 32.5439 3.73535C31.5511 5.44434 30.8919 6.94987 30.5664 8.25195C29.0039 7.63346 27.4577 7.17773 25.9277 6.88477C24.3652 6.55925 22.819 6.40462 21.2891 6.4209C19.7591 6.43718 18.2454 6.62435 16.748 6.98242C15.2507 7.30794 13.8021 7.8125 12.4023 8.49609C11.0026 9.14714 9.68425 9.96094 8.44727 10.9375C7.21029 11.9141 6.0791 13.0127 5.05371 14.2334C4.02832 15.4541 3.15755 16.7969 2.44141 18.2617C1.69271 19.694 1.10677 21.224 0.683594 22.8516C0.651042 23.112 0.69987 23.3561 0.830078 23.584C0.960286 23.8118 1.1556 23.9583 1.41602 24.0234C1.44857 24.056 1.48926 24.0723 1.53809 24.0723C1.58691 24.0723 1.6276 24.0723 1.66016 24.0723C1.88802 24.0723 2.09147 23.999 2.27051 23.8525C2.44954 23.7061 2.55534 23.5352 2.58789 23.3398C2.94596 21.9076 3.45052 20.5404 4.10156 19.2383C4.7526 17.9362 5.53385 16.7236 6.44531 15.6006C7.35677 14.4775 8.39844 13.4603 9.57031 12.5488C10.7096 11.6374 11.9303 10.8724 13.2324 10.2539C14.5671 9.63542 15.9505 9.16341 17.3828 8.83789C18.7826 8.51237 20.2148 8.35775 21.6797 8.37402C23.1445 8.3903 24.6257 8.5612 26.123 8.88672C27.5879 9.24479 29.0527 9.74935 30.5176 10.4004C30.6803 11.0514 30.9652 11.6536 31.3721 12.207C31.779 12.7604 32.2754 13.1999 32.8613 13.5254C32.5684 14.5671 32.3161 15.861 32.1045 17.4072C31.8929 18.9535 31.722 20.6868 31.5918 22.6074C31.5267 23.3887 31.4779 24.1943 31.4453 25.0244C31.4128 25.8545 31.3802 26.6927 31.3477 27.5391C29.4922 28.6133 28.0192 30.1107 26.9287 32.0312C25.8382 33.9518 25.3743 36.1165 25.5371 38.5254C25.6022 39.4368 25.5452 40.5355 25.3662 41.8213C25.1872 43.1071 24.3815 44.3848 22.9492 45.6543C21.9076 46.5332 20.6787 47.0866 19.2627 47.3145C17.8467 47.5423 16.4388 47.4121 15.0391 46.9238C13.3138 46.3053 11.7025 45.459 10.2051 44.3848C8.74023 43.3105 7.44629 42.0736 6.32324 40.6738C5.2002 39.2741 4.2806 37.7279 3.56445 36.0352C2.84831 34.3424 2.39258 32.5846 2.19727 30.7617C2.16471 30.4688 2.04264 30.2409 1.83105 30.0781C1.61947 29.9154 1.36719 29.8503 1.07422 29.8828C0.813802 29.9154 0.602214 30.0374 0.439453 30.249C0.276693 30.4606 0.211589 30.6966 0.244141 30.957C0.472005 33.0404 0.976562 35.0098 1.75781 36.8652C2.57161 38.7207 3.59701 40.4134 4.83398 41.9434C6.07096 43.4733 7.48698 44.8242 9.08203 45.9961C10.7096 47.168 12.4837 48.0957 14.4043 48.7793C16.1296 49.3978 17.8711 49.5605 19.6289 49.2676C21.3867 48.9746 22.9167 48.2585 24.2188 47.1191C26.0091 45.5566 27.0182 43.9616 27.2461 42.334C27.474 40.7064 27.5553 39.4043 27.4902 38.4277C27.36 36.6374 27.653 35.0016 28.3691 33.5205C29.0853 32.0394 30.0781 30.8268 31.3477 29.8828C31.3477 31.0547 31.3802 32.4382 31.4453 34.0332C31.4779 35.6608 31.5674 37.3128 31.7139 38.9893C31.8604 40.6657 32.0475 42.2852 32.2754 43.8477C32.5033 45.4102 32.8125 46.7285 33.2031 47.8027C33.3008 48.0957 33.5042 48.5352 33.8135 49.1211C34.1227 49.707 34.6029 50 35.2539 50C35.9049 50 36.3851 49.707 36.6943 49.1211C37.0036 48.5352 37.207 48.0957 37.3047 47.8027C37.6953 46.7611 38.0046 45.459 38.2324 43.8965C38.4603 42.334 38.6475 40.7145 38.7939 39.0381C38.9404 37.3617 39.0299 35.7096 39.0625 34.082C39.1276 32.4544 39.1602 31.0547 39.1602 29.8828C39.1602 29.5573 39.1602 29.2236 39.1602 28.8818C39.1602 28.54 39.1602 28.2227 39.1602 27.9297C39.2904 27.9297 39.4368 27.9297 39.5996 27.9297C39.7624 27.9297 39.9089 27.9297 40.0391 27.9297C40.9831 27.9297 41.8376 27.6693 42.6025 27.1484C43.3675 26.6276 43.9128 25.944 44.2383 25.0977C45.1497 22.7539 44.9544 20.4834 43.6523 18.2861C42.3503 16.0889 40.7227 14.2253 38.7695 12.6953C39.2253 12.2396 39.5752 11.7188 39.8193 11.1328C40.0635 10.5469 40.1855 9.92839 40.1855 9.27734ZM35.3027 2.83203C35.9863 4.03646 36.6455 5.28157 37.2803 6.56738C37.915 7.85319 38.2324 8.75651 38.2324 9.27734C38.2324 10.1237 37.9313 10.8317 37.3291 11.4014C36.7269 11.971 36.0189 12.2396 35.2051 12.207C34.4238 12.207 33.7565 11.9222 33.2031 11.3525C32.6497 10.7829 32.373 10.0911 32.373 9.27734C32.373 8.75651 32.6823 7.85319 33.3008 6.56738C33.9193 5.28157 34.5866 4.03646 35.3027 2.83203ZM35.3027 14.1602C35.3678 14.1602 35.4411 14.1602 35.5225 14.1602C35.6038 14.1602 35.6934 14.1602 35.791 14.1602C36.0189 15.0391 36.2305 16.1458 36.4258 17.4805C36.6211 18.8151 36.7839 20.2799 36.9141 21.875C36.3607 21.9401 35.8073 21.9727 35.2539 21.9727C34.7005 21.9727 34.1471 21.9401 33.5938 21.875C33.724 20.2474 33.8867 18.7744 34.082 17.4561C34.2773 16.1377 34.4889 15.0391 34.7168 14.1602C34.8145 14.1602 34.9121 14.1602 35.0098 14.1602C35.1074 14.1602 35.2051 14.1602 35.3027 14.1602ZM35.2539 47.7051C34.8633 46.8587 34.5378 45.6543 34.2773 44.0918C34.0169 42.5293 33.8135 40.8691 33.667 39.1113C33.5205 37.3535 33.431 35.6445 33.3984 33.9844C33.3333 32.3242 33.3008 30.957 33.3008 29.8828C33.3008 29.6224 33.3008 29.2643 33.3008 28.8086C33.3008 28.3529 33.3008 28.125 33.3008 28.125C33.3333 27.3763 33.3577 26.6439 33.374 25.9277C33.3903 25.2116 33.4147 24.5117 33.4473 23.8281C33.7728 23.8607 34.082 23.8851 34.375 23.9014C34.668 23.9176 34.9772 23.9258 35.3027 23.9258C35.5957 23.9258 35.8887 23.9176 36.1816 23.9014C36.4746 23.8851 36.7676 23.8607 37.0605 23.8281C37.0931 24.349 37.1175 24.8779 37.1338 25.415C37.1501 25.9521 37.1582 26.4811 37.1582 27.002C37.1908 27.4577 37.207 27.9297 37.207 28.418C37.207 28.9062 37.207 29.3945 37.207 29.8828C37.207 30.9896 37.1745 32.373 37.1094 34.0332C37.0443 35.7259 36.9385 37.443 36.792 39.1846C36.6455 40.9261 36.4583 42.5781 36.2305 44.1406C35.9701 45.6706 35.6445 46.8587 35.2539 47.7051ZM42.4316 24.4141C42.2363 24.8698 41.9271 25.2441 41.5039 25.5371C41.0807 25.8301 40.6087 25.9766 40.0879 25.9766C39.9251 25.9766 39.7624 25.9766 39.5996 25.9766C39.4368 25.9766 39.2741 25.9766 39.1113 25.9766C39.0788 25.3906 39.0462 24.821 39.0137 24.2676C38.9811 23.7142 38.9486 23.1608 38.916 22.6074C38.8184 20.9798 38.68 19.4824 38.501 18.1152C38.3219 16.748 38.1185 15.5436 37.8906 14.502C39.8763 16.097 41.2679 17.7734 42.0654 19.5312C42.863 21.2891 42.985 22.9167 42.4316 24.4141ZM2.05078 26.9531C2.05078 27.2135 1.95312 27.4414 1.75781 27.6367C1.5625 27.832 1.33464 27.9297 1.07422 27.9297C0.813802 27.9297 0.585938 27.832 0.390625 27.6367C0.195312 27.4414 0.0976562 27.2135 0.0976562 26.9531C0.0976562 26.6927 0.195312 26.4648 0.390625 26.2695C0.585938 26.0742 0.813802 25.9766 1.07422 25.9766C1.33464 25.9766 1.5625 26.0742 1.75781 26.2695C1.95312 26.4648 2.05078 26.6927 2.05078 26.9531Z" fill="#39C0FA"/>
</svg>
