<?xml version="1.0" standalone="no"?>
<!DOCTYPE svg PUBLIC "-//W3C//DTD SVG 20010904//EN"
 "http://www.w3.org/TR/2001/REC-SVG-20010904/DTD/svg10.dtd">
<svg version="1.0" xmlns="http://www.w3.org/2000/svg"
 width="800.000000pt" height="534.000000pt" viewBox="0 0 800.000000 534.000000"
 preserveAspectRatio="xMidYMid meet">

<g transform="translate(0.000000,534.000000) scale(0.100000,-0.100000)"
fill="#000000" stroke="none">
<path d="M3837 5184 c5 -14 -1 -16 -40 -13 -25 2 -43 0 -40 -4 3 -5 -11 -5
-30 -2 -27 5 -36 3 -41 -10 -4 -13 -2 -16 9 -11 8 3 15 1 15 -4 0 -5 -11 -12
-25 -16 -30 -7 -80 -68 -70 -84 5 -8 10 -8 20 0 9 8 14 7 18 -4 4 -9 2 -18 -3
-21 -6 -4 -10 -11 -10 -17 0 -7 5 -6 14 1 11 9 16 9 22 0 5 -8 3 -9 -6 -4 -10
6 -12 4 -7 -9 6 -14 3 -17 -8 -12 -9 3 -18 -1 -21 -9 -4 -8 -11 -12 -18 -8
-17 11 -40 9 -55 -5 -8 -8 -24 -11 -40 -7 -21 4 -28 0 -38 -21 -8 -18 -9 -32
-3 -45 6 -10 10 -22 10 -28 0 -11 -39 -33 -79 -46 -22 -7 -24 -5 -18 23 5 22
3 30 -6 26 -7 -2 -12 5 -12 20 0 13 3 22 8 19 4 -2 7 1 7 6 0 6 -6 11 -14 11
-7 0 -19 13 -26 29 -15 37 -110 115 -123 102 -7 -7 -20 -3 -39 10 -15 11 -28
16 -28 10 0 -5 -12 -8 -26 -5 -18 3 -23 1 -18 -7 5 -9 -3 -10 -32 -6 -27 4
-34 3 -24 -3 11 -7 11 -10 2 -10 -7 0 -10 -5 -6 -11 4 -8 0 -8 -15 0 -17 10
-21 9 -21 -4 0 -8 -5 -15 -12 -15 -9 0 -9 -3 0 -12 19 -19 14 -28 -15 -28 -18
0 -23 -3 -16 -8 9 -6 7 -12 -8 -25 -11 -10 -17 -23 -13 -29 4 -7 3 -8 -4 -4
-17 10 -72 -21 -82 -47 -5 -14 -9 -16 -10 -7 -1 8 -7 -1 -15 -20 -7 -19 -18
-34 -24 -33 -12 3 -11 -19 2 -28 5 -4 -2 -17 -15 -29 -15 -15 -17 -21 -7 -17
13 4 16 0 15 -18 0 -13 -5 -21 -9 -18 -5 3 -7 -3 -5 -13 2 -11 11 -18 19 -16
10 2 9 -1 -3 -11 -33 -26 -47 -100 -16 -81 7 4 8 2 4 -4 -5 -9 -14 -7 -32 4
-28 19 -29 19 -38 -19 -5 -22 -4 -28 6 -24 7 2 11 12 10 22 -3 16 -2 17 13 5
9 -7 14 -19 11 -26 -2 -6 14 -33 37 -58 36 -39 57 -51 100 -55 5 -1 5 -5 2
-11 -3 -5 3 -10 13 -10 14 0 21 -8 24 -30 3 -16 1 -30 -3 -30 -10 0 -8 -42 3
-57 5 -6 8 -31 7 -55 -2 -24 0 -48 3 -54 4 -5 7 -32 9 -59 2 -38 -1 -49 -11
-47 -10 2 -11 0 -3 -10 12 -15 15 -40 17 -168 l1 -95 -30 3 c-24 2 -40 -6 -72
-34 -37 -33 -40 -39 -33 -65 5 -18 5 -27 -1 -24 -5 4 -9 2 -9 -4 0 -5 -3 -17
-7 -27 -4 -12 -3 -15 5 -10 17 11 15 -10 -4 -28 -9 -10 -14 -27 -11 -45 4 -22
2 -28 -9 -24 -10 3 -13 -3 -11 -26 1 -20 7 -31 17 -31 9 0 16 -10 17 -27 0
-15 6 -29 12 -31 6 -2 11 -9 11 -16 0 -12 35 -46 48 -46 4 0 29 -11 57 -25 28
-15 56 -23 65 -19 8 4 18 6 23 6 4 -1 7 2 7 6 0 5 19 14 42 21 37 12 43 11 55
-5 7 -10 13 -12 13 -6 0 7 5 12 11 12 6 0 9 -9 6 -20 -4 -16 -1 -19 16 -16 12
2 21 10 20 18 -2 7 6 14 16 15 20 2 51 -26 55 -49 2 -18 36 -53 59 -61 9 -4
17 -13 17 -20 0 -12 16 -11 91 5 50 10 105 26 122 34 19 10 41 14 62 10 19 -4
36 -2 39 3 4 6 -10 13 -31 16 -76 12 -85 17 -129 61 -40 42 -64 83 -29 52 36
-32 45 -36 92 -39 28 -2 49 -1 46 4 -2 4 -14 7 -27 7 -27 0 -99 49 -121 83
-19 30 -54 135 -55 165 0 12 9 31 20 42 26 26 60 26 60 1 0 -28 20 -31 65 -10
22 11 30 16 18 13 -13 -3 -23 -2 -23 3 0 11 -73 33 -110 33 -21 0 -39 -9 -56
-27 -31 -34 -38 -26 -16 17 23 46 58 58 120 41 71 -21 112 -25 112 -12 0 8 15
10 47 6 36 -4 45 -3 36 6 -6 6 -26 13 -44 15 -47 6 -49 14 -2 14 22 0 43 3 47
7 7 7 40 14 81 17 12 0 19 -4 17 -12 -1 -8 2 -11 8 -7 6 3 8 11 5 16 -4 5 -1
9 4 9 6 0 11 -4 11 -10 0 -5 4 -10 8 -10 5 0 9 7 9 15 0 8 -4 15 -7 15 -4 0
-7 13 -6 29 1 27 3 29 38 26 43 -3 49 5 16 20 -13 6 -22 17 -20 25 3 12 1 13
-9 3 -15 -15 -49 -17 -49 -3 0 6 -5 10 -11 10 -5 0 -8 -4 -4 -9 3 -6 -6 -6
-24 -1 -16 4 -32 6 -34 4 -2 -3 -7 2 -11 11 -4 13 -2 14 14 5 10 -5 27 -10 37
-9 20 1 -28 18 -65 23 -12 2 -26 7 -30 11 -4 4 11 5 33 2 61 -9 74 -12 81 -20
12 -12 24 -8 24 8 0 9 -6 12 -17 9 -15 -5 -15 -3 1 10 11 9 15 16 9 16 -7 0
-18 -7 -26 -15 -13 -12 -18 -12 -38 6 -19 16 -32 19 -62 15 -25 -4 -36 -3 -32
4 3 6 -4 10 -17 10 -19 0 -20 2 -8 11 12 8 9 10 -12 6 -18 -3 -33 2 -40 11
-10 13 -10 14 0 8 6 -4 12 -2 12 3 0 6 9 11 21 11 11 0 18 -4 15 -8 -3 -5 1
-9 9 -9 24 0 17 17 -10 27 -14 5 -25 17 -25 27 0 15 -2 16 -10 3 -7 -10 -10
-11 -10 -2 0 20 30 26 74 14 27 -7 44 -7 51 -1 7 7 4 8 -9 3 -13 -5 -17 -4
-13 3 4 7 0 9 -10 7 -10 -2 -24 0 -32 5 -19 12 -3 33 20 26 11 -4 19 -2 19 5
0 7 -9 14 -20 17 -15 4 -19 11 -15 24 5 16 1 19 -24 19 -17 0 -31 5 -31 11 0
6 -9 8 -20 4 -19 -6 -38 7 -70 49 -15 19 -14 19 12 2 15 -10 32 -15 38 -11 6
4 18 -1 26 -11 9 -11 12 -13 8 -5 -5 11 -3 13 10 8 9 -4 26 -1 37 6 16 10 21
9 28 -1 4 -8 15 -10 26 -6 13 5 16 4 11 -4 -4 -8 -2 -10 7 -6 18 6 32 -12 17
-21 -15 -9 10 -30 38 -32 19 -2 21 1 12 13 -7 8 -19 14 -27 14 -8 0 -12 4 -8
9 3 5 0 13 -5 16 -13 8 17 34 39 35 11 0 9 -4 -5 -16 -18 -15 -18 -15 3 -5 28
14 46 14 38 1 -4 -6 -1 -9 7 -8 8 2 12 -5 10 -17 -2 -19 -2 -19 9 -2 7 12 15
15 22 9 20 -15 65 -23 72 -12 3 5 12 10 18 10 8 0 8 -3 -1 -9 -10 -6 -8 -10
10 -13 12 -3 32 -9 43 -13 16 -7 15 -4 -5 13 -21 18 -22 21 -7 22 9 0 17 4 17
9 0 5 8 8 18 6 9 -1 11 0 4 2 -7 3 -10 9 -7 14 3 5 -1 6 -9 3 -9 -3 -16 -9
-16 -13 0 -12 -84 -9 -92 3 -5 8 -8 7 -8 -1 0 -19 -19 -16 -72 9 -59 28 -68
45 -22 44 19 -1 34 -4 34 -8 0 -10 26 -4 44 11 14 12 20 9 18 -10 -1 -4 18 -5
42 -4 33 1 43 -2 39 -12 -6 -15 13 -18 22 -3 4 6 10 8 15 5 22 -14 57 8 68 41
10 35 3 44 -17 21 -6 -8 -8 -17 -4 -21 4 -4 -1 -4 -12 0 -18 7 -19 6 -5 -12
14 -17 14 -18 -2 -6 -21 17 -72 27 -63 12 4 -7 -6 -9 -32 -6 -21 2 -41 5 -45
5 -5 1 -8 6 -8 12 0 6 6 9 14 6 8 -3 17 -3 20 0 11 11 59 12 78 2 20 -11 24 1
6 19 -9 9 -6 12 14 12 17 0 27 7 31 20 4 14 0 20 -11 20 -23 0 -82 23 -82 32
0 4 11 8 25 8 14 0 25 -4 25 -9 0 -5 19 -7 42 -4 33 5 40 3 33 -8 -5 -9 -1 -7
10 3 15 14 21 15 39 4 23 -14 50 -15 54 -3 6 18 1 47 -8 47 -5 0 -10 -9 -10
-20 0 -12 -7 -20 -16 -20 -14 0 -14 3 -4 15 16 20 5 32 -14 16 -10 -8 -16 -9
-21 -1 -3 5 -3 10 2 10 4 0 1 5 -7 10 -11 8 -9 9 11 5 26 -6 52 9 62 37 9 26
20 -3 19 -47 -2 -52 4 -55 42 -20 34 32 46 32 46 -1 0 -21 -4 -25 -23 -22 -17
2 -33 -7 -54 -30 -26 -29 -31 -31 -43 -17 -7 8 -19 15 -27 15 -23 0 2 -27 32
-34 29 -7 34 -26 8 -27 -13 0 -11 -3 6 -10 13 -5 29 -8 35 -5 6 2 3 5 -8 5
-15 1 -16 4 -6 16 7 8 17 15 23 15 6 0 19 8 29 17 18 16 18 16 12 -2 -5 -12
-4 -16 4 -11 8 5 10 2 6 -8 -4 -10 -1 -16 7 -16 8 0 36 -23 63 -50 26 -27 52
-48 56 -45 12 7 80 -34 80 -48 0 -7 6 -1 13 12 15 30 31 29 35 -4 3 -21 -1
-25 -24 -25 -15 0 -24 -3 -21 -7 4 -3 2 -12 -4 -20 -9 -10 -8 -13 2 -13 8 0
-1 -10 -18 -22 -37 -26 -37 -41 -2 -48 26 -5 38 -30 15 -30 -12 0 -12 -6 -3
-35 13 -44 -3 -78 -48 -99 -74 -35 -70 -74 6 -57 61 14 76 14 61 -1 -19 -19
-15 -58 6 -58 12 0 21 -11 27 -32 10 -32 11 -33 63 -30 49 4 52 2 52 -20 0
-12 6 -35 14 -49 25 -49 -6 -148 -70 -219 -21 -24 -21 -27 -6 -73 12 -37 13
-53 4 -72 -13 -29 -33 -31 -93 -9 -24 9 -48 17 -54 18 -5 1 -25 8 -42 15 -24
10 -49 11 -90 5 -78 -11 -105 -7 -126 18 -14 17 -20 18 -33 7 -13 -11 -17 -10
-25 4 -7 11 -22 17 -45 17 -30 0 -35 -4 -41 -30 -6 -33 -45 -70 -72 -70 -9 0
-32 13 -51 28 -22 19 -41 27 -57 24 -31 -6 -29 -18 4 -27 27 -6 27 -7 9 -21
-19 -13 -19 -14 -1 -14 10 0 33 -5 51 -12 18 -6 40 -8 50 -3 11 4 44 9 74 11
137 8 208 15 240 24 35 10 70 5 70 -10 0 -4 -11 -11 -25 -14 -15 -4 -37 -24
-53 -50 -34 -52 -72 -97 -98 -113 -10 -7 -54 -33 -96 -59 -103 -62 -114 -75
-98 -114 7 -17 25 -41 41 -55 26 -21 32 -22 61 -12 81 28 206 1 191 -41 -5
-14 -4 -15 8 -6 19 15 82 27 152 29 51 1 57 -1 58 -20 1 -11 5 0 9 25 6 35 4
49 -8 63 -15 16 -14 17 4 11 15 -5 16 -4 4 5 -8 6 -28 11 -43 11 -21 0 -33 8
-48 35 -23 38 -48 45 -74 19 -11 -12 -19 -14 -27 -6 -7 7 -16 7 -29 -1 -14 -9
-21 -9 -31 1 -6 6 -20 12 -30 12 -10 0 -21 6 -24 14 -7 18 30 92 51 99 8 4 15
18 15 32 0 14 5 25 11 25 5 0 8 4 5 8 -3 5 10 25 29 45 19 21 35 33 35 27 0
-5 9 -10 19 -10 11 0 23 -4 26 -10 3 -5 22 -10 41 -10 19 0 34 -4 34 -9 0 -8
48 -23 80 -25 20 -1 68 -98 52 -104 -19 -6 -14 -47 8 -67 16 -14 17 -20 8 -27
-9 -5 -7 -8 7 -9 l20 0 -20 -9 c-16 -7 -11 -9 20 -9 48 -1 87 -33 106 -85 12
-32 18 -36 68 -46 125 -25 204 -56 215 -85 3 -8 9 -15 13 -14 17 3 52 -14 47
-22 -3 -5 1 -9 9 -9 8 0 18 -7 21 -16 9 -24 1 -28 -17 -9 -11 10 -18 12 -23 4
-3 -6 -9 -7 -13 -3 -11 16 -51 35 -51 24 0 -6 -9 -6 -23 -1 -13 5 -32 9 -43 8
-13 -1 -19 4 -18 16 1 12 -2 15 -10 8 -14 -11 -65 -11 -72 0 -14 22 -164 0
-164 -24 0 -5 8 -6 18 -2 32 13 82 18 82 8 0 -13 -34 -43 -48 -43 -7 0 -12 -6
-12 -13 0 -8 -16 -27 -35 -43 -30 -25 -46 -54 -30 -54 4 0 42 31 79 65 40 38
95 58 171 62 98 6 131 -5 150 -51 8 -19 30 -43 50 -55 l36 -21 10 23 10 22 -5
-23 c-2 -12 1 -28 8 -35 7 -7 10 -19 8 -27 -3 -8 4 -4 15 9 l20 24 7 -26 c3
-15 10 -27 14 -27 4 0 18 -9 32 -20 l25 -19 -25 6 c-14 3 -31 10 -37 16 -9 6
-13 6 -13 -1 0 -14 25 -33 33 -25 4 3 7 1 7 -5 0 -5 -6 -13 -12 -15 -7 -3 -1
-6 13 -6 32 -1 63 -31 33 -32 -16 0 -15 -2 4 -10 13 -5 21 -13 17 -18 -3 -6 1
-26 9 -46 8 -19 12 -35 9 -35 -3 0 0 -7 7 -15 7 -8 16 -12 21 -9 6 3 7 -8 4
-26 -4 -20 -2 -29 5 -25 5 3 10 0 10 -9 0 -8 6 -17 13 -19 6 -3 3 -6 -8 -6
-37 -2 6 -21 48 -21 20 0 37 -5 37 -11 0 -5 4 -8 9 -5 5 4 7 -2 5 -11 -3 -12
7 -26 28 -42 18 -13 24 -20 13 -16 -11 4 -35 7 -52 6 -18 -1 -33 2 -33 7 0 25
-160 3 -218 -30 -19 -10 -40 -17 -47 -14 -7 2 -30 -3 -51 -13 -91 -42 -116
-51 -134 -51 -10 0 -20 -3 -22 -7 -1 -5 -28 -19 -58 -33 -30 -14 -57 -28 -60
-31 -3 -4 -14 -9 -25 -11 -11 -1 -26 -15 -34 -31 -7 -15 -21 -27 -29 -27 -13
0 -12 3 4 14 10 8 15 18 11 22 -4 5 -12 2 -16 -5 -5 -7 -14 -10 -20 -7 -6 4
-11 1 -11 -6 0 -7 -13 -19 -30 -26 -17 -6 -44 -18 -60 -24 -17 -7 -30 -20 -30
-29 0 -9 -9 -19 -20 -22 -12 -3 -20 -14 -20 -27 0 -18 3 -20 14 -11 8 7 32 13
53 15 22 2 37 7 36 14 -2 7 6 12 16 12 30 0 51 11 51 27 0 7 6 13 13 12 33 -4
57 2 57 16 0 13 18 20 43 16 4 0 7 4 7 10 0 5 3 8 8 5 4 -2 26 9 50 25 23 16
51 29 62 29 10 0 39 13 63 30 25 16 54 30 65 30 11 0 25 7 32 15 7 8 18 14 24
14 6 -1 25 4 41 11 89 38 393 26 409 -16 3 -8 13 -14 23 -14 19 0 47 -47 33
-55 -5 -3 -11 -1 -15 5 -3 5 -11 10 -16 10 -6 0 8 -18 30 -39 23 -22 41 -49
41 -60 0 -12 5 -21 10 -21 6 0 10 -8 10 -18 0 -21 72 -42 145 -42 67 0 89 -15
104 -68 19 -73 70 -110 180 -131 45 -9 67 -9 74 -2 8 8 7 11 -3 11 -7 0 -10 3
-7 6 4 4 -3 15 -15 25 -11 11 -17 19 -12 20 5 0 -4 5 -21 10 -36 10 -114 -9
-93 -23 10 -7 10 -9 -2 -6 -8 3 -27 29 -41 59 l-27 54 49 8 c27 5 49 13 49 17
0 5 -6 8 -12 6 -64 -20 -94 -11 -42 13 21 9 32 9 56 -3 27 -14 33 -14 60 0 16
8 38 24 49 35 10 10 29 19 42 19 13 0 27 4 33 9 5 6 32 4 69 -5 33 -8 92 -21
130 -30 39 -9 90 -27 115 -40 25 -12 56 -26 69 -29 16 -5 20 -10 12 -18 -7 -7
-22 -7 -51 3 -22 7 -40 16 -40 19 0 3 -13 6 -30 6 -16 0 -30 -1 -30 -2 0 -1
20 -18 44 -38 l44 -36 33 20 c133 79 172 90 239 71 31 -9 37 -7 65 20 41 39
153 98 204 106 23 4 41 9 41 11 0 3 -10 13 -21 22 l-22 17 32 13 c33 14 39 26
19 35 -7 3 -3 3 10 0 18 -4 25 -1 29 15 3 12 9 21 14 21 5 0 9 7 9 16 0 8 4
13 9 9 5 -3 13 0 16 5 10 16 -4 62 -15 55 -6 -3 -10 3 -10 13 0 25 -24 84 -32
77 -2 -3 -3 10 -2 27 2 18 6 69 9 113 3 44 8 87 11 95 9 22 11 260 3 266 -4 2
-10 24 -13 49 -4 25 -11 45 -16 45 -5 0 -9 15 -9 33 0 47 -3 67 -12 67 -4 0
-11 10 -15 23 -3 12 -14 33 -24 47 -9 14 -20 38 -24 53 -4 16 -20 41 -35 55
-16 15 -32 36 -35 48 -3 11 -35 47 -69 80 -35 33 -66 67 -70 77 -3 9 -17 17
-30 17 -13 0 -32 8 -43 18 -20 19 -54 36 -66 34 -5 -1 -8 3 -8 8 0 6 -6 10
-12 10 -7 0 -24 9 -38 20 -14 11 -36 20 -51 20 -50 0 -50 18 0 87 62 86 71
104 71 133 -1 27 -21 60 -38 60 -22 0 -23 22 -4 63 11 23 30 69 43 102 13 33
31 72 41 87 10 14 18 33 18 42 0 9 7 27 15 40 9 13 18 37 21 52 2 16 11 46 19
67 8 20 15 49 15 62 0 14 4 25 10 25 6 0 8 27 5 69 -4 44 -1 72 5 76 8 5 8 11
0 20 -7 9 -6 23 5 49 14 34 14 39 -5 78 -11 23 -20 47 -20 53 0 16 -28 73 -54
110 -12 17 -30 48 -41 69 -25 49 -89 116 -145 151 -24 15 -51 35 -61 44 -59
55 -338 171 -446 186 -65 9 -82 12 -126 20 -21 4 -42 3 -50 -3 -6 -5 -46 -12
-87 -16 -100 -8 -159 -20 -195 -39 -28 -14 -114 -53 -161 -73 -45 -19 -154
-116 -154 -139 0 -5 -16 -23 -35 -40 -21 -18 -35 -39 -35 -53 0 -12 -7 -25
-15 -28 -8 -4 -15 -13 -15 -22 0 -9 -8 -25 -18 -36 -11 -12 -29 -47 -42 -79
-13 -33 -29 -61 -35 -64 -7 -2 -12 -19 -12 -36 1 -28 -47 -144 -65 -157 -12
-9 -86 -2 -108 10 -15 8 -20 19 -18 38 3 27 2 27 -67 30 l-70 3 -33 64 c-18
35 -61 91 -95 125 -60 61 -228 180 -254 180 -7 0 -13 5 -13 10 0 6 -6 10 -14
10 -7 0 -16 9 -19 20 -3 11 -11 20 -17 20 -7 0 -10 -7 -6 -15 5 -14 4 -14 -16
0 -13 8 -32 15 -43 15 -11 0 -37 9 -58 20 -20 11 -40 21 -44 23 -5 1 -7 14 -6
30 1 15 -2 27 -7 27 -5 0 -6 7 -3 17 4 10 2 14 -5 9 -7 -4 -9 2 -6 18 8 44
-29 88 -53 62 -5 -5 -3 -6 5 -2 6 4 12 2 12 -4 0 -7 -6 -10 -12 -7 -7 2 -13 9
-13 14 0 6 -3 14 -7 18 -3 4 -4 22 -2 42 3 22 1 32 -6 28 -5 -3 -10 3 -10 13
0 18 -5 19 -52 15 -29 -3 -57 -11 -63 -20 -22 -30 -109 21 -97 57 5 13 3 13
-11 2 -14 -12 -19 -12 -32 2 -21 20 -26 20 -18 0z m-997 -634 c0 -5 -2 -10 -4
-10 -3 0 -8 5 -11 10 -3 6 -1 10 4 10 6 0 11 -4 11 -10z m30 -29 c0 -5 -7 -11
-14 -14 -10 -4 -13 -1 -9 9 6 15 23 19 23 5z m951 -1 c5 0 9 -4 9 -8 0 -4 -9
-8 -19 -8 -11 0 -18 3 -15 7 2 4 1 9 -3 12 -5 2 -2 2 5 0 8 -1 18 -3 23 -3z
m-921 -25 c0 -7 5 -15 12 -17 14 -5 2 -28 -15 -28 -8 0 -8 3 1 9 10 6 10 10
-3 21 -16 14 -21 45 -5 35 6 -3 10 -12 10 -20z m980 1 c0 -2 -9 -2 -20 1 -11
3 -20 9 -20 15 0 5 9 4 20 -2 11 -6 20 -12 20 -14z m269 15 c7 -5 9 -11 5 -14
-5 -3 -15 1 -22 9 -14 16 -5 18 17 5z m-1283 -32 c3 -6 1 -15 -5 -20 -6 -5 -9
-6 -6 -3 3 4 0 13 -6 21 -8 9 -8 13 -1 13 6 0 14 -5 18 -11z m971 5 c-3 -3
-12 -4 -19 -1 -8 3 -5 6 6 6 11 1 17 -2 13 -5z m-3 -63 c3 -4 -6 -7 -20 -5
-35 3 -43 14 -11 14 14 0 28 -4 31 -9z m390 -58 c-10 -7 -23 -13 -28 -12 -6 0
-5 3 2 6 6 2 12 11 12 18 0 16 23 26 29 12 2 -6 -4 -16 -15 -24z m-209 16 c16
-7 13 -8 -13 -4 -20 3 -31 1 -27 -5 3 -6 -4 -10 -16 -10 -22 0 -22 0 -3 15 22
17 31 17 59 4z m-258 -34 c15 0 18 -3 12 -12 -7 -7 -6 -12 3 -15 7 -3 3 -7 -9
-10 -12 -3 -22 -3 -21 1 2 22 -5 30 -23 28 -12 -1 -24 4 -27 12 -3 10 1 11 19
5 13 -4 34 -8 46 -9z m110 -31 c-3 -3 -12 -4 -19 -1 -8 3 -5 6 6 6 11 1 17 -2
13 -5z m-187 -14 c8 -5 12 -11 9 -14 -3 -3 -14 1 -25 9 -21 16 -8 20 16 5z
m45 0 c3 -6 -1 -7 -9 -4 -18 7 -21 14 -7 14 6 0 13 -4 16 -10z m16 -35 c-2
-17 -36 -11 -39 7 -3 14 1 16 18 10 12 -4 21 -12 21 -17z m1327 -34 c8 -4 16
-26 18 -47 3 -22 8 -46 12 -54 9 -22 9 -70 -1 -70 -4 0 -6 -4 -3 -8 2 -4 -2
-41 -10 -82 -10 -54 -20 -80 -38 -97 -14 -13 -27 -23 -28 -23 -2 0 -14 20 -28
44 -23 43 -23 46 -7 64 20 22 22 33 5 27 -16 -6 -38 39 -38 76 0 14 -7 46 -15
69 -8 23 -15 58 -15 76 l0 34 68 0 c37 0 73 -4 80 -9z m620 -13 c8 -10 2 -13
-23 -14 -25 0 -30 2 -21 12 14 17 31 17 44 2z m-2159 -33 c15 -4 20 -10 13
-17 -11 -11 -52 19 -52 37 0 6 3 6 8 -1 4 -6 18 -15 31 -19z m2048 17 c10 8
20 8 39 -1 14 -6 29 -9 34 -6 13 8 40 -36 41 -65 0 -21 2 -22 8 -7 8 23 20 11
41 -41 7 -18 22 -38 32 -43 14 -7 17 -14 10 -21 -7 -7 -5 -19 4 -36 16 -32 18
-68 4 -77 -6 -4 -8 -10 -5 -15 3 -5 -9 -25 -26 -44 -26 -30 -38 -36 -70 -36
-22 0 -56 7 -76 15 -19 8 -43 15 -53 15 -10 0 -34 18 -54 40 -27 30 -46 41
-77 46 -23 4 -49 15 -58 25 -8 11 -21 19 -28 19 -7 0 -16 15 -21 33 -7 26 -6
34 10 41 10 5 18 14 18 21 0 6 16 25 35 41 19 16 35 34 35 41 0 16 32 33 62
33 13 0 33 6 44 14 11 9 23 11 28 6 6 -6 15 -5 23 2z m-2022 -172 c3 -5 2 -10
-4 -10 -5 0 -13 5 -16 10 -3 6 -2 10 4 10 5 0 13 -4 16 -10z m138 -137 c-7 -2
-19 -2 -25 0 -7 3 -2 5 12 5 14 0 19 -2 13 -5z m-25 -20 c-10 -2 -26 -2 -35 0
-10 3 -2 5 17 5 19 0 27 -2 18 -5z m1278 -43 c8 0 14 -5 14 -12 0 -6 8 -20 17
-30 15 -17 15 -19 -3 -33 -10 -8 -25 -15 -31 -15 -7 0 -13 -9 -13 -20 0 -10
-9 -24 -20 -30 -11 -6 -20 -8 -20 -4 0 3 -7 1 -16 -7 -22 -18 -52 -19 -66 -2
-9 11 -8 22 7 49 10 20 27 40 37 45 10 5 15 16 12 24 -12 30 4 48 37 41 18 -3
38 -6 45 -6z m-1229 -56 c-3 -3 -12 -4 -19 -1 -8 3 -5 6 6 6 11 1 17 -2 13 -5z
m1495 -99 c-9 -17 -11 -16 -27 8 -22 35 -10 56 17 29 15 -15 18 -24 10 -37z
m-1798 -195 c18 -65 13 -79 -10 -24 -9 21 -21 42 -26 45 -11 7 -18 86 -10 108
3 8 11 -6 18 -30 6 -24 19 -69 28 -99z m3196 65 c-19 -14 -41 -25 -49 -25 -25
1 36 50 62 50 18 0 16 -3 -13 -25z m-1770 -65 c0 -11 -12 -22 -30 -29 -35 -12
-34 -13 -15 27 17 33 45 34 45 2z m980 20 c13 -9 13 -11 0 -20 -8 -5 -21 -8
-28 -5 -8 3 -17 5 -22 5 -4 0 -10 7 -14 15 -4 11 2 15 22 15 15 0 34 -5 42
-10z m-814 -147 c-13 -13 -28 15 -20 38 l7 24 10 -28 c5 -16 6 -31 3 -34z
m-36 21 c0 -22 -4 -26 -24 -22 -18 4 -26 0 -29 -14 -6 -22 -17 -23 -42 -4 -17
12 -17 16 -5 31 7 9 22 14 31 12 10 -3 23 1 30 9 19 23 39 17 39 -12z m834 -7
c15 -11 16 -15 5 -19 -20 -7 -62 10 -54 22 9 14 28 13 49 -3z m-969 -8 c4 -5
4 -21 1 -35 -5 -17 -13 -24 -32 -24 -35 0 -43 29 -15 52 26 21 37 22 46 7z
m651 -54 c10 -24 0 -34 -20 -20 -10 8 -15 18 -11 24 9 16 25 14 31 -4z m-536
-36 c0 -14 -5 -19 -14 -16 -8 3 -16 -2 -19 -12 -4 -16 -12 -18 -58 -13 -62 5
-78 15 -59 37 14 17 60 21 60 4 0 -6 7 -3 16 5 8 9 29 16 45 16 23 0 29 -4 29
-21z m447 -43 c1 -38 -16 -56 -54 -56 -24 0 -83 61 -65 67 6 3 10 9 6 14 -3 5
4 9 15 9 10 0 21 -6 23 -12 3 -9 9 -8 21 4 28 28 52 16 54 -26z m-77 -160 c0
-9 -30 -14 -35 -6 -4 6 3 10 14 10 12 0 21 -2 21 -4z m-60 -66 c-16 -30 -27
-32 -32 -5 -4 17 0 25 11 28 25 5 32 -2 21 -23z m631 -144 c-12 -15 -4 -49 9
-41 5 3 11 1 15 -5 3 -5 1 -10 -5 -10 -6 0 -9 -4 -5 -9 3 -6 -1 -13 -9 -18 -7
-4 -16 -21 -20 -38 -5 -24 -2 -33 15 -43 12 -8 18 -9 14 -3 -3 6 -2 11 4 11
20 0 23 -22 5 -35 -15 -11 -16 -14 -4 -15 9 0 11 -3 4 -8 -14 -10 -44 -87 -44
-115 0 -18 -2 -19 -10 -7 -6 9 -10 10 -10 3 0 -11 32 -35 41 -30 2 1 -4 -6
-14 -16 -9 -10 -22 -15 -27 -12 -5 3 -3 -13 5 -36 8 -23 15 -43 15 -45 0 -2
-15 -2 -32 0 -25 3 -40 -2 -59 -21 l-26 -24 0 25 c0 14 3 23 8 20 5 -3 6 2 3
10 -6 15 -37 30 -63 31 -8 0 -16 6 -19 14 -3 10 2 13 22 9 20 -4 26 -1 26 13
0 11 -4 19 -10 19 -5 0 -10 9 -10 21 0 11 -5 17 -10 14 -7 -4 -7 -13 0 -26 10
-17 7 -23 -12 -20 -4 0 -17 -12 -30 -27 -25 -29 -58 -36 -66 -13 -3 8 0 11 6
8 18 -12 21 36 4 67 -22 40 -19 121 4 112 13 -5 14 0 8 27 -4 17 -7 40 -6 50
0 10 -5 16 -11 14 -7 -2 -12 -20 -11 -40 1 -30 -2 -35 -13 -26 -9 8 -13 8 -13
0 0 -6 -7 -11 -15 -11 -8 0 -15 5 -15 10 0 6 5 10 12 10 9 0 9 3 0 12 -8 8
-15 8 -26 -1 -20 -17 -30 3 -11 22 17 18 20 47 5 47 -5 0 -10 7 -10 15 0 9 6
12 17 8 11 -4 14 -3 9 5 -9 15 -1 15 24 2 16 -8 18 -8 14 5 -3 8 -11 12 -16 9
-6 -4 -9 -1 -6 7 2 8 17 15 31 17 15 2 31 12 37 22 7 12 17 16 32 12 16 -4 20
-2 15 11 -5 13 -1 14 26 6 20 -5 35 -5 41 1 13 13 79 13 71 1 -3 -6 -15 -8
-26 -6 -13 3 -19 0 -16 -8 3 -7 10 -11 16 -9 7 1 10 -2 6 -8 -3 -5 -13 -10
-21 -10 -8 0 -14 -5 -14 -11 0 -11 5 -9 65 32 22 15 47 25 57 24 10 -2 18 0
18 6 0 5 5 9 11 9 8 0 8 -4 0 -14z m140 -101 c-36 -41 -36 -43 -17 -64 13 -14
12 -17 -10 -28 -13 -6 -22 -7 -18 -2 3 5 1 9 -5 9 -7 0 -7 8 0 26 5 15 7 29 4
32 -3 3 5 10 18 16 12 7 23 17 23 24 2 21 4 22 20 22 12 0 8 -9 -15 -35z m-56
4 c15 -14 -7 -10 -35 7 l-25 15 25 -7 c14 -3 29 -10 35 -15z m262 1 c-1 -21
-10 -18 -13 5 -1 8 2 15 6 15 5 0 8 -9 7 -20z m53 16 c0 -2 -7 -7 -16 -10 -8
-3 -12 -2 -9 4 6 10 25 14 25 6z m-187 -17 c-6 -6 -10 -17 -9 -23 2 -6 1 -8
-1 -4 -2 3 -16 -5 -30 -18 -27 -25 -43 -30 -43 -14 0 6 7 10 15 10 8 0 15 5
15 10 0 6 -5 10 -11 10 -5 0 -7 5 -4 10 3 6 17 10 30 10 13 0 27 5 30 10 3 6
9 10 13 10 3 0 1 -5 -5 -11z m-173 -10 c0 -5 -4 -7 -10 -4 -5 3 -10 1 -10 -4
0 -6 -4 -11 -8 -11 -5 0 -9 7 -9 15 0 8 9 15 19 15 10 0 18 -5 18 -11z m27
-36 c-21 -22 -32 -11 -17 17 9 16 15 19 23 11 8 -8 7 -16 -6 -28z m198 16
c-10 -15 -25 -10 -19 6 4 8 10 12 15 9 5 -3 7 -10 4 -15z m-665 1 c0 -5 -2
-10 -4 -10 -3 0 -8 5 -11 10 -3 6 -1 10 4 10 6 0 11 -4 11 -10z m687 -50 c-1
-22 -17 -28 -17 -7 0 12 9 27 16 27 2 0 2 -9 1 -20z m69 11 c-4 -5 0 -11 6
-14 10 -3 10 -8 -1 -18 -8 -8 -11 -9 -7 -2 3 6 2 14 -4 18 -10 6 -5 25 6 25 3
0 3 -4 0 -9z m-1051 -84 c39 -36 45 -45 31 -50 -12 -5 -19 1 -26 19 -7 17 -15
24 -26 20 -9 -4 -14 -1 -12 9 2 7 -6 21 -17 29 -11 9 -15 16 -9 16 6 0 33 -20
59 -43z m896 20 c-10 -9 -11 -8 -5 6 3 10 9 15 12 12 3 -3 0 -11 -7 -18z
m-721 -27 c-1 -17 -59 -91 -60 -75 0 6 11 22 25 37 30 32 30 36 8 61 -18 19
-17 19 5 6 12 -8 22 -21 22 -29z m610 36 c0 -3 -4 -8 -10 -11 -5 -3 -10 -1
-10 4 0 6 5 11 10 11 6 0 10 -2 10 -4z m26 -52 c-6 -6 -13 -10 -16 -9 -3 2 -7
-4 -8 -13 -4 -39 -10 -78 -13 -87 -2 -5 2 -20 10 -33 18 -33 11 -38 -36 -27
l-41 10 19 40 c19 39 20 39 14 8 -4 -21 -3 -33 4 -33 6 0 11 16 11 35 0 28 -4
35 -19 35 -10 0 -22 7 -25 16 -11 28 -6 36 10 20 8 -9 21 -16 29 -16 17 0 12
33 -6 38 -11 3 -11 1 1 -7 8 -6 10 -11 4 -11 -6 0 -14 3 -18 7 -9 9 44 54 55
47 5 -3 9 3 9 12 0 16 1 16 14 -1 10 -14 10 -22 2 -31z m49 10 c-3 -31 -24
-56 -26 -31 -1 9 -2 23 -3 30 -1 10 5 15 31 26 1 1 0 -11 -2 -25z m-485 6 c0
-5 -9 -10 -20 -10 -11 0 -20 5 -20 10 0 6 9 10 20 10 11 0 20 -4 20 -10z m540
0 c0 -5 -5 -10 -11 -10 -5 0 -7 5 -4 10 3 6 8 10 11 10 2 0 4 -4 4 -10z m-10
-50 c0 -5 -4 -12 -10 -15 -5 -3 -10 -4 -10 -1 0 2 -3 12 -6 20 -5 12 -2 15 10
10 9 -3 16 -10 16 -14z m-845 -21 c-6 -19 -4 -21 17 -16 21 6 28 1 46 -33 23
-44 13 -53 -21 -16 -12 13 -32 26 -44 30 -30 10 -31 56 -1 56 5 0 6 -10 3 -21z
m282 -11 c-3 -8 -6 -5 -6 6 -1 11 2 17 5 13 3 -3 4 -12 1 -19z m517 6 c3 -8 2
-12 -4 -9 -6 3 -10 10 -10 16 0 14 7 11 14 -7z m-484 -14 c-6 -11 -13 -20 -15
-20 -3 0 -5 9 -5 20 0 11 7 20 15 20 13 0 14 -4 5 -20z m557 -40 c1 -11 -2
-20 -8 -20 -10 0 -12 23 -2 33 9 9 9 10 10 -13z m-654 3 c-7 -2 -21 -2 -30 0
-10 3 -4 5 12 5 17 0 24 -2 18 -5z m618 -20 c-12 -20 -14 -14 -5 12 4 9 9 14
11 11 3 -2 0 -13 -6 -23z m-668 -13 c-3 -12 -8 -19 -11 -16 -5 6 5 36 12 36 2
0 2 -9 -1 -20z m124 -20 c32 0 63 -17 63 -35 0 -23 30 -17 40 8 8 20 9 19 9
-11 1 -37 27 -77 51 -77 8 0 16 -9 17 -20 1 -16 1 -16 -3 -2 -3 9 -10 14 -16
11 -6 -4 -20 -8 -32 -9 -11 -1 -24 -3 -28 -4 -15 -2 -8 -25 14 -48 17 -19 19
-23 5 -17 -12 4 -17 1 -17 -10 0 -19 -16 -21 -26 -4 -4 7 -3 8 4 4 17 -10 15
7 -4 30 -8 10 -12 12 -8 4 5 -10 1 -9 -14 3 -22 20 -42 16 -42 -10 0 -26 -12
-7 -31 48 -9 29 -15 59 -12 67 3 8 0 18 -8 23 -12 8 -11 12 5 24 11 8 15 15 9
15 -6 0 -16 -7 -23 -16 -15 -17 -61 -15 -67 3 -2 6 6 22 18 34 17 17 24 19 27
9 3 -7 -6 -21 -19 -31 -20 -15 -21 -19 -6 -19 9 0 17 5 17 10 0 6 7 10 16 10
12 0 15 7 11 28 l-5 27 15 -22 c9 -14 26 -23 40 -23z m343 9 c0 -5 -4 -9 -10
-9 -5 0 -10 7 -10 16 0 8 5 12 10 9 6 -3 10 -10 10 -16z m80 -42 c0 -8 -4 -7
-12 1 -9 9 -15 9 -27 -1 -14 -10 -14 -10 -3 5 14 17 42 14 42 -5z m-263 -32
c1 -19 -2 -35 -6 -35 -6 0 -7 35 -2 63 3 18 7 4 8 -28z m115 10 c0 -5 -5 -11
-11 -13 -6 -2 -11 4 -11 13 0 9 5 15 11 13 6 -2 11 -8 11 -13z m-79 -15 c-3
-11 -9 -20 -14 -20 -11 0 -11 3 -3 24 9 23 23 20 17 -4z m104 -12 c-3 -7 -5
-2 -5 12 0 14 2 19 5 13 2 -7 2 -19 0 -25z m-57 -33 c0 -5 -5 -3 -10 5 -5 8
-10 20 -10 25 0 6 5 3 10 -5 5 -8 10 -19 10 -25z m-30 -4 c0 -6 -4 -13 -10
-16 -5 -3 -10 1 -10 9 0 9 5 16 10 16 6 0 10 -4 10 -9z m-65 -52 c5 -15 9 -18
15 -9 5 8 10 8 14 2 9 -14 -20 -22 -33 -9 -6 6 -11 7 -11 3 0 -5 -7 -3 -15 4
-8 7 -12 16 -9 21 10 16 33 9 39 -12z m-280 -77 c-3 -3 -11 0 -18 7 -9 10 -8
11 6 5 10 -3 15 -9 12 -12z m698 -159 c-7 -2 -19 -2 -25 0 -7 3 -2 5 12 5 14
0 19 -2 13 -5z m-13 -89 c0 -15 -18 -18 -44 -8 -21 8 -20 32 2 36 21 5 42 -9
42 -28z m70 1 c0 -14 -2 -25 -4 -25 -2 0 -6 11 -8 25 -3 14 -1 25 3 25 5 0 9
-11 9 -25z m-47 -57 c36 -25 47 -37 47 -55 0 -21 -24 -15 -68 17 -26 20 -39
36 -35 45 7 20 20 19 56 -7z m-83 -77 c0 -5 -9 -11 -20 -14 -22 -6 -28 8 -7
16 19 8 27 8 27 -2z"/>
<path d="M5616 2815 c-3 -8 -1 -15 4 -15 6 0 10 7 10 15 0 8 -2 15 -4 15 -2 0
-6 -7 -10 -15z"/>
<path d="M5800 2725 c5 -14 17 -39 25 -56 9 -16 13 -38 10 -48 -3 -12 0 -21
10 -24 8 -4 14 -1 12 5 -1 7 5 12 13 13 10 0 16 12 18 34 3 29 1 33 -11 23
-14 -12 -27 -7 -27 12 0 6 5 4 11 -4 9 -13 10 -13 6 0 -2 8 -10 14 -17 12 -6
-1 -14 7 -17 19 -4 16 -8 17 -14 7 -6 -9 -9 -7 -9 10 0 12 -4 22 -10 22 -6 0
-6 -9 0 -25z"/>
<path d="M5544 2720 c0 -13 4 -16 10 -10 7 7 7 13 0 20 -6 6 -10 3 -10 -10z"/>
<path d="M5723 2700 c-3 -11 -12 -20 -21 -20 -8 0 -12 -3 -8 -7 4 -5 24 -8 44
-8 32 0 37 -4 42 -26 4 -23 8 -25 28 -18 12 5 22 11 22 15 0 3 -7 4 -15 0 -11
-4 -15 2 -15 24 0 23 -7 33 -30 45 -37 19 -41 19 -47 -5z"/>
<path d="M5637 2675 c-13 -9 -17 -20 -12 -34 8 -27 25 -28 18 -1 -3 11 -1 20
4 20 5 0 10 7 10 15 0 8 -1 15 -1 15 -1 0 -9 -7 -19 -15z"/>
<path d="M5670 2600 c0 -5 4 -10 9 -10 6 0 13 5 16 10 3 6 -1 10 -9 10 -9 0
-16 -4 -16 -10z"/>
<path d="M5760 2583 c0 -6 5 -15 10 -18 6 -4 7 -11 4 -17 -5 -7 -2 -8 6 -3 7
4 16 2 20 -5 9 -14 30 -5 30 13 0 8 -3 8 -9 -1 -7 -11 -9 -10 -15 3 -3 9 -10
14 -15 10 -6 -3 -14 3 -20 12 -6 10 -11 13 -11 6z"/>
<path d="M5623 2515 c-8 -22 6 -33 17 -15 13 20 12 30 0 30 -6 0 -13 -7 -17
-15z"/>
<path d="M5735 2513 c-8 -23 -6 -24 15 -11 24 15 26 25 5 25 -8 0 -17 -7 -20
-14z"/>
<path d="M5650 2485 c0 -9 5 -15 11 -13 6 2 11 8 11 13 0 5 -5 11 -11 13 -6 2
-11 -4 -11 -13z"/>
<path d="M5750 2493 c0 -5 5 -15 10 -23 8 -12 10 -11 10 8 0 12 -4 22 -10 22
-5 0 -10 -3 -10 -7z"/>
<path d="M5808 2403 c6 -2 18 -2 25 0 6 3 1 5 -13 5 -14 0 -19 -2 -12 -5z"/>
<path d="M2770 4662 c0 -10 -5 -23 -12 -30 -7 -7 -10 -12 -7 -13 2 0 12 -2 22
-4 13 -3 17 4 17 31 0 19 -4 34 -10 34 -5 0 -10 -8 -10 -18z"/>
<path d="M2760 4590 c0 -5 5 -10 11 -10 5 0 7 5 4 10 -3 6 -8 10 -11 10 -2 0
-4 -4 -4 -10z"/>
<path d="M4085 4360 c-13 -6 -15 -9 -5 -9 8 0 22 4 30 9 18 12 2 12 -25 0z"/>
<path d="M4097 4338 c-17 -11 23 -9 48 2 17 7 16 8 -8 7 -15 -1 -33 -5 -40 -9z"/>
<path d="M4082 4298 c2 -6 20 -13 39 -15 l34 -4 -29 16 c-34 18 -49 19 -44 3z"/>
<path d="M2910 4246 c0 -3 9 -10 20 -16 11 -6 20 -8 20 -6 0 3 -9 10 -20 16
-11 6 -20 8 -20 6z"/>
<path d="M4055 4230 c-19 -8 -19 -9 3 -9 12 -1 22 4 22 9 0 6 -1 10 -2 9 -2 0
-12 -4 -23 -9z"/>
<path d="M3617 4223 c-12 -12 -7 -20 20 -32 l28 -13 -20 24 c-11 12 -20 24
-21 26 0 1 -4 -1 -7 -5z"/>
<path d="M3780 4189 c0 -5 5 -7 10 -4 6 3 10 8 10 11 0 2 -4 4 -10 4 -5 0 -10
-5 -10 -11z"/>
<path d="M3840 4166 c0 -8 -6 -17 -12 -19 -8 -4 -7 -6 3 -6 9 -1 19 8 22 19 3
11 1 20 -4 20 -5 0 -9 -6 -9 -14z"/>
<path d="M3777 4156 c-3 -8 1 -17 9 -20 23 -9 24 -8 24 14 0 23 -25 27 -33 6z"/>
<path d="M3700 4122 c0 -5 7 -13 16 -16 10 -4 14 -1 12 6 -5 15 -28 23 -28 10z"/>
<path d="M3657 4044 c2 -7 11 -10 19 -7 19 7 18 10 -5 16 -13 3 -18 1 -14 -9z"/>
<path d="M3800 4050 c-23 -7 -23 -8 -3 -9 12 -1 25 4 28 9 3 6 5 10 3 9 -2 -1
-14 -5 -28 -9z"/>
<path d="M3710 4008 c0 -4 4 -8 9 -8 6 0 12 4 15 8 3 5 -1 9 -9 9 -8 0 -15 -4
-15 -9z"/>
<path d="M3663 4003 c9 -2 23 -2 30 0 6 3 -1 5 -18 5 -16 0 -22 -2 -12 -5z"/>
<path d="M3730 3969 c0 -5 5 -7 10 -4 6 3 10 8 10 11 0 2 -4 4 -10 4 -5 0 -10
-5 -10 -11z"/>
<path d="M3828 3943 c7 -3 16 -2 19 1 4 3 -2 6 -13 5 -11 0 -14 -3 -6 -6z"/>
<path d="M3840 3805 c0 -8 8 -11 20 -8 11 3 20 7 20 8 0 1 -9 5 -20 8 -12 3
-20 0 -20 -8z"/>
<path d="M3753 3725 c9 -8 22 -15 30 -15 18 0 29 -37 13 -44 -6 -2 21 -3 60
-1 69 3 71 2 67 -19 -4 -20 -4 -20 11 -2 10 12 21 16 33 12 15 -6 13 -10 -12
-26 -17 -11 -28 -20 -25 -21 42 -6 56 -12 63 -24 4 -8 13 -15 19 -15 7 0 7 4
-1 13 -6 8 -8 17 -4 20 3 4 0 13 -7 22 -10 12 -10 15 0 15 9 0 10 3 1 13 -6 8
-8 17 -4 21 4 4 -1 4 -10 0 -11 -4 -25 0 -36 10 -12 11 -29 15 -52 11 -19 -3
-28 -3 -21 1 6 3 10 10 6 15 -3 5 2 9 11 9 10 0 13 -5 9 -12 -5 -9 -2 -8 9 1
10 8 15 16 13 18 -9 9 -96 11 -101 2 -3 -4 -11 -6 -18 -4 -7 2 -25 6 -41 10
-26 5 -27 4 -13 -10z"/>
<path d="M3945 3710 c3 -5 8 -10 11 -10 2 0 4 5 4 10 0 6 -5 10 -11 10 -5 0
-7 -4 -4 -10z"/>
<path d="M3595 3603 c15 -15 15 -18 -12 -44 -15 -16 -39 -30 -53 -32 -14 -2
-32 -15 -40 -30 -13 -24 -13 -29 2 -54 17 -28 84 -70 94 -60 4 3 -3 16 -15 28
-27 29 -20 53 31 104 l40 40 -6 -70 c-3 -46 -11 -74 -21 -81 -25 -18 -17 -24
13 -8 37 19 54 18 80 -6 22 -21 92 -28 92 -10 0 6 -9 10 -20 10 -12 0 -32 8
-47 17 -14 9 -39 16 -56 15 -26 -2 -28 0 -17 13 7 8 18 15 26 15 7 0 14 10 16
23 2 14 9 21 20 19 14 -2 15 2 7 30 -5 18 -9 35 -9 37 0 2 -11 1 -23 -3 -18
-4 -34 3 -65 29 -41 36 -67 48 -37 18z m75 -78 c-7 -9 -15 -13 -19 -10 -3 3 1
10 9 15 21 14 24 12 10 -5z"/>
<path d="M3723 3463 c-7 -3 -13 -12 -12 -21 0 -11 2 -12 6 -4 8 19 33 14 72
-15 22 -16 29 -19 19 -7 -23 26 -70 52 -85 47z"/>
<path d="M4462 3408 c-14 -14 -17 -98 -3 -98 5 0 21 16 36 36 21 28 26 41 18
53 -13 21 -35 25 -51 9z"/>
<path d="M3720 3329 c0 -4 -3 -16 -7 -26 -6 -17 -5 -17 15 1 26 22 28 33 7 33
-8 0 -15 -4 -15 -8z"/>
<path d="M3748 3283 c7 -3 16 -2 19 1 4 3 -2 6 -13 5 -11 0 -14 -3 -6 -6z"/>
<path d="M4594 2889 c-3 -5 -9 -7 -14 -4 -5 3 -11 1 -14 -4 -4 -6 13 -8 42 -5
39 4 54 0 75 -16 15 -12 27 -28 27 -36 0 -8 4 -13 10 -9 13 8 0 36 -28 62 -25
21 -87 29 -98 12z"/>
<path d="M4118 2826 c-18 -6 -40 -11 -48 -11 -8 1 -21 -3 -28 -8 -10 -8 -10
-13 0 -25 11 -13 10 -15 -5 -9 -11 4 -16 3 -12 -3 3 -6 1 -10 -5 -10 -6 0 -8
-4 -5 -10 3 -5 -3 -10 -15 -10 -13 0 -19 -4 -14 -12 4 -6 3 -8 -4 -4 -11 7
-77 -48 -77 -64 0 -6 -4 -10 -10 -11 -5 0 -19 -8 -29 -17 -15 -13 -18 -14 -11
-2 4 8 -2 5 -14 -7 -11 -12 -21 -27 -21 -33 0 -5 -7 -10 -15 -10 -9 0 -20 -12
-25 -26 -6 -15 -14 -22 -22 -18 -7 4 -8 3 -4 -4 4 -7 2 -12 -4 -12 -6 0 -8 -4
-5 -10 3 -5 1 -10 -5 -10 -5 0 -24 -13 -42 -30 -23 -22 -34 -27 -44 -19 -9 7
-19 7 -32 0 -32 -17 -131 -174 -132 -208 0 -29 -20 -9 -63 65 -51 88 -103 135
-145 130 -17 -2 -28 -10 -31 -23 -2 -11 -8 -23 -13 -26 -6 -4 3 -10 19 -13 25
-6 30 -12 31 -37 1 -26 -5 -33 -39 -47 -37 -16 -39 -18 -25 -37 14 -20 15 -19
25 8 15 39 41 36 41 -6 0 -18 5 -38 12 -45 10 -10 7 -16 -10 -28 -12 -8 -22
-23 -22 -32 0 -13 -2 -14 -8 -4 -10 15 -44 11 -66 -7 -19 -16 -36 -6 -36 20 0
12 -7 19 -20 19 -11 0 -20 -5 -20 -12 0 -6 -22 12 -49 40 -34 35 -58 52 -74
52 -36 0 -40 -25 -9 -61 30 -37 33 -46 34 -114 0 -30 13 -89 34 -148 39 -113
39 -111 20 -104 -9 4 -16 -3 -20 -16 -4 -16 -8 -18 -14 -9 -10 15 -22 3 -131
-138 -45 -57 -81 -111 -81 -120 0 -9 -9 -25 -20 -35 -11 -10 -20 -25 -20 -32
0 -8 -9 -26 -20 -40 -16 -20 -17 -28 -7 -44 6 -10 17 -19 24 -19 7 0 13 -4 13
-9 0 -5 18 -12 40 -16 23 -4 40 -12 40 -20 0 -7 6 -16 13 -18 6 -3 -8 -6 -33
-6 -33 -1 -41 -4 -30 -11 8 -5 11 -10 5 -11 -5 -1 6 -5 25 -9 28 -7 42 -4 72
13 20 12 66 39 102 60 35 21 74 52 85 70 12 18 30 46 41 62 16 25 20 47 20
128 l0 99 47 -42 c37 -32 53 -56 69 -103 31 -90 46 -130 55 -149 4 -9 15 -44
24 -78 16 -62 16 -63 -6 -83 -17 -16 -36 -21 -74 -22 -46 0 -51 -2 -48 -20 4
-18 2 -17 -17 5 -12 14 -19 20 -16 13 8 -14 -3 -43 -16 -43 -5 0 -7 4 -3 9 3
5 0 13 -6 17 -6 3 -15 0 -20 -7 -5 -8 -9 -10 -9 -6 0 4 -19 -3 -42 -16 -51
-29 -118 -39 -173 -27 -28 6 -42 5 -47 -3 -6 -9 -8 -8 -9 3 -1 8 -1 18 0 23 0
4 -6 7 -15 7 -13 0 -12 -5 6 -29 11 -17 34 -42 50 -57 16 -15 27 -31 24 -36
-3 -4 7 -8 21 -8 21 0 26 -4 21 -16 -7 -18 32 -54 51 -47 7 3 19 -2 27 -10 14
-13 12 -16 -12 -23 -15 -4 -31 -6 -37 -5 -5 1 -33 4 -62 6 -45 2 -52 0 -42
-11 6 -8 16 -14 22 -14 5 0 17 -9 27 -20 13 -15 31 -20 90 -21 l74 -2 98 102
c54 56 98 107 98 112 0 6 -7 3 -16 -6 -9 -9 -23 -14 -32 -10 -23 9 -82 -6 -82
-21 0 -15 -19 -29 -27 -20 -10 10 28 45 56 51 16 3 31 17 39 35 7 16 21 32 30
35 9 3 35 21 57 40 22 19 42 31 45 27 4 -4 19 -41 35 -82 15 -41 32 -80 36
-86 5 -6 10 -23 11 -37 1 -14 5 -24 8 -22 5 3 22 -26 63 -110 15 -29 14 -30
-12 -33 -14 -2 -38 -5 -53 -5 -30 -2 -37 -14 -15 -23 15 -5 19 -34 5 -34 -4 0
-8 -5 -8 -11 0 -5 4 -7 10 -4 6 3 7 -1 4 -9 -9 -22 -25 -20 -31 4 -3 11 -12
20 -20 20 -11 0 -13 7 -9 23 4 17 1 24 -9 24 -10 0 -13 -7 -8 -25 5 -22 4 -23
-17 -12 -16 9 -25 9 -33 1 -6 -6 -7 -11 -3 -11 5 0 3 -7 -4 -15 -9 -11 -9 -15
-1 -15 7 0 9 -5 6 -11 -5 -6 -12 -4 -20 7 -8 12 -18 15 -31 10 -16 -6 -17 -5
-6 6 7 7 18 13 25 13 6 0 13 8 15 18 2 12 -3 17 -17 17 -13 0 -21 7 -22 18 0
10 -3 12 -6 5 -2 -7 -17 -13 -31 -14 -25 -1 -25 -2 -5 -7 19 -6 20 -10 9 -30
l-12 -23 -19 35 c-24 45 -34 46 -28 2 2 -19 0 -37 -6 -41 -6 -3 -11 1 -11 9 0
25 -17 18 -24 -10 -5 -20 -11 -24 -27 -19 -18 6 -20 4 -14 -14 4 -12 2 -21 -4
-21 -6 0 -11 5 -11 12 0 6 -7 3 -15 -8 -8 -10 -15 -30 -15 -43 0 -13 -7 -29
-16 -36 -13 -9 -14 -16 -5 -33 16 -30 14 -40 -9 -47 -12 -4 -17 -11 -13 -18 4
-7 8 -24 9 -39 1 -19 -2 -25 -12 -21 -8 3 -14 -1 -14 -11 0 -9 -7 -19 -15 -22
-8 -4 -15 -16 -15 -28 0 -11 -4 -27 -9 -35 -6 -10 -4 -25 5 -43 8 -15 11 -28
7 -28 -4 0 2 -7 13 -16 10 -8 13 -13 7 -9 -7 3 -13 1 -13 -6 0 -9 -3 -9 -14 1
-13 10 -13 8 -3 -14 7 -14 15 -26 20 -26 4 0 7 -5 7 -11 0 -6 11 -25 25 -43
14 -18 25 -37 25 -42 0 -9 86 -121 116 -151 9 -9 54 -13 153 -13 119 0 144 3
161 17 11 10 20 24 20 33 0 12 2 12 9 1 13 -20 50 -4 57 25 5 18 11 23 23 19
10 -3 28 4 41 15 27 24 44 26 36 5 -3 -8 -2 -14 2 -14 4 1 14 1 22 0 13 -1 13
-2 0 -11 -13 -8 -13 -11 -1 -19 7 -5 10 -14 6 -20 -5 -9 -10 -9 -21 0 -11 9
-14 8 -14 -5 0 -9 5 -16 10 -16 6 0 10 -5 10 -11 0 -5 -5 -7 -12 -3 -7 4 -8 3
-4 -4 4 -7 16 -12 26 -12 14 0 18 5 14 18 -5 16 -5 16 6 0 10 -16 35 -18 270
-17 187 0 260 3 260 12 0 8 3 8 12 -1 9 -9 144 -12 546 -12 l534 0 -7 23 c-5
12 -8 44 -9 72 -1 47 1 50 34 66 19 10 36 13 38 8 2 -4 11 -3 21 3 20 12 91 3
91 -13 0 -6 7 -6 19 1 11 5 47 10 80 10 34 0 61 4 61 10 0 6 -4 10 -10 10 -5
0 -7 7 -4 15 5 11 -2 15 -27 15 -88 1 -320 20 -369 31 -53 12 -54 12 -25 20
17 5 91 14 165 20 127 10 186 22 270 54 19 8 46 17 60 20 45 12 85 33 109 59
14 14 19 26 13 26 -6 0 -9 7 -6 15 8 20 -2 19 -34 -3 -29 -20 -115 -52 -202
-76 -96 -26 -288 -26 -314 -1 -16 16 -43 13 -136 -19 -65 -22 -318 -51 -351
-41 -10 4 -19 22 -24 48 -6 34 -8 38 -15 22 -4 -11 -6 -30 -3 -42 6 -26 -11
-30 -52 -11 -19 8 -22 14 -13 20 8 5 -2 6 -23 3 -28 -5 -38 -3 -42 10 -5 12
-15 14 -42 9 -23 -4 -35 -2 -35 5 0 21 -16 11 -28 -16 -9 -23 -11 -1 -7 112 2
77 -3 210 -11 295 -8 85 -20 218 -27 295 -12 135 -13 140 -35 141 -16 1 -21
-3 -18 -12 3 -8 1 -14 -4 -14 -6 0 -10 6 -10 13 -1 6 -7 1 -15 -13 -14 -24
-15 -23 -9 20 9 78 15 93 40 119 19 18 27 22 33 13 12 -20 41 -2 41 24 0 18 5
24 23 24 14 0 24 -6 24 -14 0 -11 -5 -13 -19 -5 -15 8 -18 6 -16 -15 2 -24 5
-25 85 -28 46 -2 83 1 83 5 0 5 6 7 12 5 7 -3 19 1 26 9 15 14 36 8 27 -8 -27
-43 105 92 140 144 25 35 25 36 25 72 0 17 6 25 18 26 11 0 12 2 4 6 -10 4
-10 8 -1 19 6 8 15 11 20 8 5 -3 6 2 3 10 -7 17 72 126 92 126 7 0 17 6 21 13
14 21 71 57 93 57 11 0 28 9 37 20 11 12 30 20 50 20 17 0 35 5 39 12 4 7 3 8
-4 4 -7 -4 -10 -2 -6 7 2 7 11 14 18 14 8 0 12 -6 9 -14 -3 -7 0 -13 6 -13 6
0 11 7 11 15 0 15 14 20 92 30 25 3 49 2 52 -4 4 -5 15 -5 30 2 19 9 22 15 15
29 -21 40 -198 14 -326 -47 -50 -25 -94 -49 -98 -54 -3 -6 -21 -18 -40 -27
-19 -8 -54 -38 -79 -64 -26 -27 -46 -44 -46 -39 0 6 -12 -3 -26 -20 -14 -17
-32 -31 -40 -31 -9 0 -13 -4 -10 -8 7 -12 -66 -77 -83 -73 -9 2 -12 -3 -8 -13
4 -9 3 -15 -1 -15 -20 3 -52 -15 -57 -32 -4 -10 -14 -19 -23 -19 -21 -1 -54
-25 -45 -33 3 -4 1 -7 -6 -7 -7 0 -9 -5 -5 -12 5 -7 2 -9 -8 -5 -12 4 -14 1
-10 -15 4 -18 2 -20 -16 -16 -12 4 -22 2 -22 -4 0 -5 -4 -7 -9 -4 -5 3 -7 16
-4 29 l4 22 -13 -23 c-17 -27 -82 -64 -102 -56 -17 6 -31 -12 -16 -21 5 -3 10
-1 10 6 0 7 3 10 6 6 3 -3 3 -11 -1 -17 -5 -8 -11 -8 -21 1 -11 9 -12 15 -3
26 7 7 8 17 4 21 -4 4 -10 1 -12 -5 -7 -18 -30 -16 -37 3 -3 9 -13 14 -20 11
-8 -3 -17 -1 -20 6 -3 9 -5 9 -5 0 -1 -7 -10 -13 -21 -13 -11 0 -34 -12 -51
-27 -17 -16 -36 -27 -42 -25 -6 2 -5 -4 2 -12 13 -16 7 -36 -11 -36 -14 0 -52
-33 -55 -48 -3 -14 19 -16 33 -2 6 6 10 3 10 -9 0 -11 -3 -19 -6 -19 -17 1
-21 -4 -11 -16 10 -11 9 -14 -4 -12 -21 3 -44 26 -26 26 8 0 3 10 -13 25 -31
29 -31 29 -6 125 11 41 25 103 32 138 9 50 17 68 42 90 26 23 30 33 28 64 -3
33 -1 37 15 32 13 -4 14 -3 5 3 -10 8 -8 22 10 69 12 32 23 68 23 79 0 13 6
19 18 17 20 -3 20 -2 7 32 -6 17 -6 26 0 26 6 0 10 7 10 15 0 22 20 53 58 92
18 19 30 37 28 42 -3 4 -1 13 5 21 7 12 9 9 9 -10 0 -14 -9 -36 -20 -50 -11
-14 -20 -36 -20 -50 0 -24 1 -24 19 7 31 51 39 94 29 155 -9 50 -7 61 16 109
29 62 73 115 107 133 13 6 25 21 27 32 2 11 13 24 25 29 13 6 21 17 19 27 -2
10 2 26 7 37 6 10 7 21 4 25 -10 10 -33 -15 -33 -35 0 -12 -7 -19 -19 -19 -11
0 -22 -8 -25 -17 -3 -10 -16 -29 -29 -44 -50 -52 -126 -177 -159 -256 -7 -18
-16 -33 -20 -33 -5 0 -8 -8 -8 -18 0 -10 -9 -38 -21 -61 -11 -24 -23 -59 -26
-77 -3 -19 -10 -34 -14 -34 -5 0 -9 -9 -9 -21 0 -11 -3 -18 -7 -16 -5 3 -9 -8
-10 -24 -1 -16 -8 -44 -16 -62 -23 -53 -68 -189 -81 -242 -8 -36 -18 -53 -36
-62 -18 -9 -20 -13 -7 -13 9 0 17 -4 17 -10 0 -13 -6 -13 -30 0 -14 8 -18 6
-16 -7 2 -9 9 -19 17 -21 11 -3 11 -1 -1 7 -9 7 -10 11 -3 11 19 0 26 -20 9
-26 -9 -3 -13 -10 -10 -15 3 -5 10 -6 16 -3 7 5 8 2 2 -7 -5 -8 -9 -17 -9 -21
0 -16 -20 -7 -21 10 -1 9 -2 22 -3 27 -1 6 -14 16 -31 22 -20 7 -30 18 -30 31
0 29 -11 53 -21 46 -5 -3 -9 1 -9 9 0 21 -47 39 -71 27 -12 -7 -19 -7 -19 -1
0 6 -8 7 -17 4 -16 -6 -16 -5 -4 11 11 13 11 20 3 28 -9 9 -12 8 -12 -5 0 -9
-4 -17 -10 -17 -5 0 -10 7 -10 15 0 8 -6 15 -14 15 -19 0 -40 26 -26 35 17 11
11 22 -20 35 -16 7 -30 16 -30 21 0 4 -9 11 -20 14 -13 4 -20 15 -20 32 0 22
-3 24 -24 19 -20 -5 -29 0 -46 24 -12 16 -23 40 -25 52 -3 13 -15 32 -28 43
-28 23 -47 91 -47 166 0 38 -7 64 -25 95 -18 30 -24 51 -19 69 3 14 10 25 14
25 4 0 13 14 20 30 16 39 74 102 85 93 4 -5 5 -3 1 4 -8 14 49 47 64 38 6 -3
10 -1 10 4 0 6 6 11 14 11 8 0 17 6 19 13 4 9 8 8 17 -3 9 -12 10 -12 6 5 -4
15 7 34 39 69 34 38 45 45 45 30 0 -16 2 -15 13 6 7 13 22 29 33 35 11 6 28
18 38 28 10 9 22 15 27 12 5 -4 9 -2 9 3 0 9 122 71 183 93 20 7 37 16 37 20
0 4 8 10 18 12 16 4 16 5 -1 6 -10 0 -15 6 -12 12 11 16 -3 56 -19 56 -9 0
-30 -5 -48 -11z m-723 -735 c0 -17 -3 -31 -7 -31 -68 0 -72 1 -58 10 8 5 12
12 8 15 -3 4 -2 20 4 36 10 28 12 29 32 16 14 -10 21 -25 21 -46z m1105 -731
c0 -5 -7 -10 -15 -10 -8 0 -15 5 -15 10 0 6 7 10 15 10 8 0 15 -4 15 -10z
m-1065 -570 c-4 -6 -11 -7 -17 -4 -6 4 -14 0 -19 -7 -7 -11 -9 -10 -9 4 0 12
8 17 26 17 14 0 23 -4 19 -10z m-58 -32 c-3 -7 -5 -2 -5 12 0 14 2 19 5 13 2
-7 2 -19 0 -25z m-97 18 c0 -3 -4 -8 -10 -11 -5 -3 -10 -1 -10 4 0 6 5 11 10
11 6 0 10 -2 10 -4z m-50 -30 c-7 -7 -13 -7 -20 0 -6 6 -3 10 10 10 13 0 16
-4 10 -10z m11 -50 c-13 -32 -21 -35 -13 -4 5 19 3 20 -10 8 -8 -8 -13 -23
-10 -34 4 -14 2 -17 -8 -11 -9 5 -11 4 -6 -3 5 -9 13 -9 29 -1 20 9 20 8 -2
-9 -18 -15 -21 -21 -10 -25 8 -3 5 -6 -8 -6 -19 -1 -23 4 -23 32 0 24 -3 28
-10 17 -7 -11 -10 -11 -10 -2 0 19 51 64 67 58 7 -3 13 0 13 6 0 6 2 9 5 6 3
-3 1 -17 -4 -32z m51 -8 c-6 -6 -7 0 -4 19 5 21 7 23 10 9 2 -10 0 -22 -6 -28z
m175 -14 c-3 -3 -12 -4 -19 -1 -8 3 -5 6 6 6 11 1 17 -2 13 -5z m-197 -54 c0
-5 -4 -10 -10 -10 -5 0 -10 5 -10 10 0 6 5 10 10 10 6 0 10 -4 10 -10z m0 -40
c0 -5 -2 -10 -4 -10 -3 0 -8 5 -11 10 -3 6 -1 10 4 10 6 0 11 -4 11 -10z m697
-86 c-3 -3 -12 -4 -19 -1 -8 3 -5 6 6 6 11 1 17 -2 13 -5z m-140 -21 c-4 -3
-2 -12 3 -18 7 -9 6 -16 -5 -25 -8 -7 -15 -9 -15 -5 0 4 -7 2 -15 -5 -29 -24
-28 0 1 30 16 16 31 30 33 30 2 0 1 -3 -2 -7z m-67 -73 c0 -5 -9 -14 -20 -20
-16 -8 -20 -8 -20 4 0 13 13 23 33 25 4 1 7 -3 7 -9z m-90 -85 c0 -8 -6 -15
-13 -15 -18 0 -44 -33 -39 -50 3 -13 2 -13 -8 0 -9 12 -10 11 -5 -7 5 -17 2
-23 -10 -23 -23 0 -16 20 25 68 36 44 50 52 50 27z m1731 8 l64 -8 -75 -5
c-93 -6 -155 -1 -125 11 26 10 59 11 136 2z m-2373 -55 c15 -15 16 -38 1 -38
-5 0 -7 5 -4 11 4 6 -1 17 -11 24 -11 8 -14 15 -8 15 5 0 15 -5 22 -12z m708
-59 c10 -16 -9 -29 -33 -23 -18 5 -19 9 -10 20 15 16 33 18 43 3z m219 1 c3
-5 1 -10 -4 -10 -6 0 -11 5 -11 10 0 6 2 10 4 10 3 0 8 -4 11 -10z m-339 -15
c-4 -26 -23 -40 -39 -27 -8 7 -16 9 -20 6 -3 -3 -3 3 0 15 7 26 63 31 59 6z
m274 -15 c0 -5 -5 -10 -11 -10 -5 0 -7 5 -4 10 3 6 8 10 11 10 2 0 4 -4 4 -10z
m-219 -15 c5 4 6 -2 2 -11 -4 -12 -8 -14 -11 -6 -3 10 -7 10 -20 0 -14 -12
-14 -11 -1 10 8 12 15 18 17 12 2 -6 8 -8 13 -5z m123 0 c-4 -8 -8 -15 -10
-15 -2 0 -4 7 -4 15 0 8 4 15 10 15 5 0 7 -7 4 -15z m-232 -23 c-3 -10 -1 -13
6 -8 6 3 13 2 17 -4 3 -5 -3 -10 -13 -10 -11 0 -22 8 -24 18 -3 11 0 19 7 19
8 0 11 -7 7 -15z m174 -30 c-3 -6 -15 -8 -26 -5 -19 5 -19 6 -3 19 19 13 40 3
29 -14z m-196 -47 c0 -19 -6 -19 -14 0 -3 8 -1 15 4 15 6 0 10 -7 10 -15z
m-43 -27 c-3 -8 -6 -5 -6 6 -1 11 2 17 5 13 3 -3 4 -12 1 -19z"/>
<path d="M4610 2830 c-8 -5 -11 -12 -7 -17 4 -4 17 -2 27 5 13 8 20 9 20 1 0
-5 5 -7 10 -4 6 4 8 11 5 16 -8 12 -36 11 -55 -1z"/>
<path d="M4250 2809 c0 -5 -3 -8 -7 -6 -5 3 -14 -1 -21 -9 -11 -12 -9 -13 10
-11 19 3 41 37 24 37 -3 0 -6 -5 -6 -11z"/>
<path d="M4900 2620 c-14 -4 -38 -15 -55 -24 -16 -9 -36 -16 -42 -16 -7 0 -13
-4 -13 -9 0 -6 16 -3 36 5 59 25 138 36 183 25 37 -8 40 -7 31 8 -7 13 -22 18
-62 18 -29 0 -64 -3 -78 -7z"/>
<path d="M4744 2558 c-3 -4 2 -8 10 -8 8 0 17 4 20 8 3 5 -2 9 -10 9 -8 0 -17
-4 -20 -9z"/>
<path d="M4685 2530 c-4 -6 -10 -8 -15 -5 -4 3 -10 -2 -14 -10 -7 -20 -3 -19
36 5 21 13 27 20 16 20 -9 0 -20 -5 -23 -10z"/>
<path d="M3220 2415 c-7 -9 -8 -15 -2 -15 5 0 12 7 16 15 3 8 4 15 2 15 -2 0
-9 -7 -16 -15z"/>
<path d="M3195 2370 c-3 -5 -2 -10 4 -10 5 0 13 5 16 10 3 6 2 10 -4 10 -5 0
-13 -4 -16 -10z"/>
<path d="M4807 2294 c-4 -4 -17 -8 -30 -10 -12 -1 -22 -3 -22 -4 0 -2 -33 -8
-62 -12 -7 -1 -13 -5 -13 -10 0 -5 -4 -7 -10 -3 -5 3 -17 1 -27 -4 -10 -5 -31
-12 -46 -16 -17 -3 -25 -10 -21 -17 4 -6 3 -8 -3 -5 -6 4 -21 -2 -33 -13 -14
-12 -31 -18 -41 -15 -18 6 -45 -26 -32 -39 3 -3 -2 -6 -12 -6 -10 0 -15 -3
-11 -7 10 -10 30 -11 36 -1 3 4 20 8 37 10 18 1 30 4 28 7 -3 2 16 17 41 33
50 31 152 63 233 72 13 2 28 11 33 20 9 16 7 16 -10 7 -16 -9 -21 -8 -24 5 -2
9 -6 12 -11 8z"/>
<path d="M4372 1930 c0 -14 2 -19 5 -12 2 6 2 18 0 25 -3 6 -5 1 -5 -13z"/>
<path d="M5552 1916 c4 -30 46 -35 44 -5 -1 16 -8 23 -24 24 -18 1 -22 -3 -20
-19z"/>
<path d="M5256 1513 c-3 -4 -19 -8 -34 -9 -100 -7 -272 -55 -272 -75 0 -5 -6
-9 -13 -9 -8 0 -30 -19 -51 -42 l-37 -43 50 -3 c47 -3 52 -6 78 -48 15 -24 40
-60 54 -79 14 -18 34 -55 43 -82 48 -132 68 -161 74 -107 4 26 -72 219 -90
230 -5 3 -3 16 6 29 13 20 13 25 1 41 -20 26 -18 42 5 49 11 4 18 11 14 16 -3
6 4 7 20 3 26 -6 38 10 14 19 -10 3 -9 6 2 10 8 3 24 9 35 13 11 4 25 8 30 9
23 3 64 29 59 36 -3 5 0 9 5 9 6 0 11 7 11 15 0 8 5 15 11 15 5 0 7 -5 3 -12
-4 -7 -3 -8 5 -4 6 4 9 12 6 17 -7 11 -19 12 -29 2z"/>
<path d="M6262 1463 c-1 -21 -6 -39 -11 -41 -5 -2 -7 -12 -4 -23 3 -10 0 -31
-6 -47 -6 -15 -12 -38 -14 -52 -1 -14 -8 -34 -14 -45 -6 -11 -9 -30 -7 -43 3
-14 0 -21 -6 -17 -12 8 -12 8 -1 -33 6 -21 6 -32 0 -32 -6 0 -8 -9 -4 -20 3
-10 2 -28 -4 -38 -5 -10 -11 -39 -12 -63 -3 -67 -10 -91 -25 -85 -8 3 -14 2
-14 -3 0 -12 -47 -31 -78 -32 -24 0 -25 -1 -7 -9 16 -7 13 -9 -17 -9 -24 -1
-40 5 -46 15 -8 14 -11 11 -20 -15 -13 -37 -31 -42 -24 -6 2 15 0 25 -7 25 -6
0 -11 -4 -11 -9 0 -5 -11 -12 -25 -15 -14 -4 -24 -10 -21 -15 3 -4 -6 -6 -20
-3 l-26 5 32 20 c27 17 31 24 25 46 -5 22 -11 55 -14 84 -1 4 -8 7 -16 7 -17
0 -20 16 -4 25 6 4 8 13 5 21 -3 8 -1 14 4 14 6 0 10 5 10 12 0 9 -3 9 -12 0
-7 -7 -20 -12 -30 -12 -11 0 -18 -7 -18 -20 0 -22 -15 -27 -26 -8 -5 7 -10 4
-16 -11 -7 -19 -11 -21 -23 -11 -12 10 -16 9 -21 -4 -8 -21 -33 -20 -50 2 -13
16 -13 16 -14 0 0 -24 -26 -23 -43 2 -13 18 -16 19 -27 5 -8 -10 -9 -15 -1
-15 6 0 10 -3 10 -7 -1 -5 0 -10 1 -13 7 -19 7 -40 -1 -40 -14 0 -48 -33 -43
-42 3 -4 -22 -8 -55 -8 -38 0 -61 4 -64 13 -2 6 -8 9 -12 5 -7 -7 14 -29 62
-68 7 -6 17 -10 23 -10 5 0 10 -4 10 -8 0 -4 14 -16 30 -26 17 -9 42 -28 57
-42 14 -13 34 -24 44 -24 11 0 18 -5 16 -11 -1 -6 21 -23 50 -37 55 -29 62
-43 23 -49 -13 -2 -27 -8 -31 -14 -3 -6 -20 -8 -41 -4 -25 5 -38 2 -48 -10 -8
-9 -31 -25 -51 -36 -21 -10 -44 -27 -51 -37 -7 -10 -25 -26 -40 -36 -14 -9
-34 -33 -43 -52 -18 -39 -15 -72 4 -37 11 21 121 103 137 103 4 0 15 7 24 15
32 29 222 106 244 98 12 -4 23 -7 26 -8 3 0 20 -6 38 -14 28 -12 32 -18 32
-51 0 -44 24 -73 33 -39 7 27 27 15 27 -17 0 -30 14 -31 27 -2 9 21 10 21 28
-10 13 -21 27 -32 42 -32 13 0 28 -9 35 -19 6 -10 17 -17 24 -14 18 7 26 -14
14 -38 -10 -19 -10 -20 8 -10 11 6 22 16 24 21 6 18 34 1 47 -27 8 -17 17 -24
29 -21 10 3 24 -1 31 -9 11 -12 10 -17 -5 -28 -23 -17 -31 -18 -39 -5 -4 6
-12 7 -22 1 -9 -4 -23 -6 -32 -4 -9 2 -50 -5 -91 -17 -41 -12 -111 -30 -155
-40 -142 -32 -173 -42 -191 -61 -9 -10 -12 -19 -6 -19 6 0 13 4 16 9 3 4 34
14 68 20 35 7 117 26 183 42 71 18 166 34 234 39 114 9 115 8 153 -18 50 -35
46 -57 -10 -57 -23 0 -42 -2 -42 -5 0 -3 -34 -6 -75 -7 -41 -1 -89 -8 -107
-16 -18 -8 -64 -24 -103 -37 -70 -23 -142 -77 -167 -125 l-10 -20 20 20 c53
54 71 64 183 105 107 40 235 56 306 39 47 -11 53 -10 81 10 19 13 33 17 37 11
8 -14 -3 -30 -21 -30 -8 0 -14 -4 -14 -9 0 -12 -96 -59 -147 -71 -47 -12 -59
-30 -15 -23 70 12 171 48 208 74 39 29 41 29 77 14 41 -17 41 -37 -1 -55 -26
-11 -92 -65 -92 -75 0 -3 44 -5 97 -5 95 0 98 1 129 31 l32 31 74 -23 c40 -13
75 -27 76 -31 2 -4 109 -8 238 -8 233 0 234 0 249 23 8 13 18 37 21 54 6 32
37 73 54 73 5 0 7 6 4 14 -3 7 5 22 18 32 13 11 25 28 26 39 2 11 9 26 15 33
6 8 11 56 11 110 0 110 -23 183 -74 237 -15 17 -39 55 -53 85 -14 31 -37 70
-51 87 -14 17 -26 35 -26 40 0 4 29 28 64 52 65 44 127 101 110 101 -5 0 2 8
16 18 14 9 26 24 28 32 2 9 -7 5 -25 -11 -30 -28 -81 -49 -119 -49 -15 0 -24
-6 -24 -15 0 -8 -7 -15 -15 -15 -8 0 -15 5 -15 10 0 6 -9 10 -20 10 -12 0 -34
7 -49 15 -16 8 -31 12 -34 9 -3 -3 -8 4 -12 15 -3 12 -11 21 -16 21 -6 0 -18
7 -27 16 -10 11 -17 13 -20 5 -2 -6 -17 -11 -33 -11 -17 0 -28 4 -25 8 3 5 -2
9 -11 9 -13 0 -11 -4 6 -18 12 -10 17 -20 13 -23 -5 -3 -17 3 -27 14 -10 11
-29 20 -42 20 -12 0 -23 5 -23 12 0 6 -14 -9 -31 -35 -22 -33 -42 -50 -74 -63
-25 -9 -50 -23 -56 -30 -6 -8 -28 -14 -48 -14 -33 0 -38 4 -49 33 -12 34 -7
87 9 98 6 4 6 15 0 33 -6 15 -10 30 -9 34 3 14 -14 42 -26 42 -7 0 -37 24 -68
53 -70 66 -96 87 -107 87 -5 0 -19 28 -31 63 -18 55 -59 140 -59 127 -1 -3 6
-27 14 -54 8 -27 15 -55 15 -63 0 -18 -34 -17 -50 2 -6 8 -15 14 -18 12 -4 -1
-26 11 -49 27 -23 15 -50 27 -60 26 -57 -6 -83 0 -83 21 0 18 -21 49 -33 49
-2 0 -4 -17 -5 -37z m216 -102 c13 -14 27 -30 30 -36 4 -5 16 -15 27 -21 11
-7 20 -21 19 -32 0 -12 2 -21 5 -20 20 2 31 -4 31 -16 0 -8 4 -16 10 -18 5 -1
7 -13 4 -25 -4 -13 -10 -21 -14 -18 -5 3 -12 1 -15 -5 -4 -6 -1 -9 7 -8 7 2
14 -7 16 -19 2 -13 10 -23 18 -23 8 0 17 -7 21 -16 5 -13 7 -13 14 -2 6 9 9 7
9 -9 0 -13 6 -23 13 -23 17 0 129 -129 121 -141 -3 -5 -16 -9 -30 -9 -13 0
-24 -4 -24 -9 0 -13 -77 -41 -95 -35 -8 4 -22 1 -30 -6 -12 -10 -18 -10 -30 0
-13 11 -14 10 -9 -4 5 -13 -1 -16 -32 -16 -29 0 -35 3 -26 12 9 9 8 14 -4 22
-13 10 -13 15 5 38 16 20 20 37 17 73 -2 26 -8 50 -13 54 -15 10 -33 48 -33
70 0 12 -4 21 -10 21 -5 0 -13 12 -16 28 -9 38 -15 46 -24 33 -4 -7 -7 5 -8
25 -1 20 -6 42 -12 49 -8 9 -8 15 0 20 6 4 7 13 1 23 -4 9 -11 32 -14 50 -6
31 -5 32 20 26 15 -4 38 -19 51 -33z m-123 -156 c-1 -14 2 -28 6 -31 19 -11 9
-80 -14 -102 -13 -12 -27 -19 -30 -15 -4 3 -7 -3 -7 -14 0 -15 -6 -20 -25 -20
-22 0 -25 4 -25 33 0 18 5 36 10 39 6 3 10 15 10 26 0 10 4 27 10 37 5 9 14
29 20 45 13 36 49 38 45 2z m25 -155 c0 -5 -4 -10 -10 -10 -5 0 -10 5 -10 10
0 6 5 10 10 10 6 0 10 -4 10 -10z m-746 -61 c-3 -5 4 -9 15 -9 11 0 23 -5 27
-11 4 -8 -1 -9 -17 -4 -30 9 -42 20 -45 40 -2 13 1 14 12 4 7 -6 11 -15 8 -20z
m1593 -33 c-4 -9 1 -17 12 -21 10 -3 27 -15 37 -26 16 -18 16 -19 1 -13 -9 3
-17 10 -17 14 0 4 -13 13 -29 20 -28 11 -34 40 -9 40 6 0 8 -7 5 -14z m-1387
-15 c0 -6 -4 -13 -10 -16 -5 -3 -10 1 -10 9 0 9 5 16 10 16 6 0 10 -4 10 -9z
m340 -61 c0 -5 -7 -10 -16 -10 -8 0 -12 5 -9 10 3 6 10 10 16 10 5 0 9 -4 9
-10z"/>
<path d="M4288 1413 c6 -2 18 -2 25 0 6 3 1 5 -13 5 -14 0 -19 -2 -12 -5z"/>
<path d="M3360 1161 c0 -11 -6 -22 -12 -24 -10 -4 -10 -6 0 -6 7 -1 15 6 19
15 3 9 15 20 27 24 19 8 19 9 -6 9 -21 1 -28 -4 -28 -18z"/>
<path d="M5940 1096 c0 -8 -6 -16 -14 -19 -9 -4 -12 -14 -9 -27 7 -27 29 -20
25 8 -2 16 1 20 11 16 8 -3 18 -1 22 5 3 7 0 8 -10 5 -11 -5 -14 -2 -9 10 3 9
1 16 -5 16 -6 0 -11 -6 -11 -14z"/>
<path d="M4970 1096 c0 -2 7 -23 15 -46 8 -24 17 -54 19 -66 3 -13 14 -37 25
-53 12 -16 21 -34 21 -39 0 -6 15 -25 34 -42 30 -29 33 -36 25 -64 -5 -17 -9
-32 -9 -33 0 -1 9 -7 20 -13 14 -7 26 -8 40 0 19 10 19 11 -3 58 -13 27 -37
66 -54 88 -17 21 -50 78 -74 127 -24 48 -47 87 -51 87 -5 0 -8 -2 -8 -4z"/>
<path d="M5340 1072 c0 -13 -2 -14 -9 -4 -7 11 -9 11 -14 -2 -6 -16 26 -46 49
-46 13 0 56 -35 50 -41 -3 -2 19 -5 48 -7 l53 -3 -5 31 c-3 21 -13 35 -33 46
-16 8 -29 18 -29 23 0 4 -11 6 -25 4 -13 -3 -38 0 -55 5 -26 9 -30 9 -30 -6z"/>
<path d="M5732 1057 c-8 -10 -6 -13 7 -13 11 0 17 6 14 13 -3 7 -6 13 -8 13
-1 0 -7 -6 -13 -13z"/>
<path d="M5930 980 c0 -5 7 -10 16 -10 8 0 12 5 9 10 -3 6 -10 10 -16 10 -5 0
-9 -4 -9 -10z"/>
<path d="M5305 960 c-22 -9 -73 -60 -61 -60 5 0 -2 -9 -15 -19 -13 -11 -21
-22 -17 -26 12 -12 46 5 82 41 18 18 40 34 48 34 20 0 28 9 21 26 -6 15 -27
17 -58 4z"/>
<path d="M3450 910 c0 -5 5 -10 10 -10 6 0 10 5 10 10 0 6 -4 10 -10 10 -5 0
-10 -4 -10 -10z"/>
<path d="M3492 896 c7 -8 15 -12 17 -11 5 6 -10 25 -20 25 -5 0 -4 -6 3 -14z"/>
<path d="M3310 860 c0 -5 5 -10 11 -10 5 0 7 5 4 10 -3 6 -8 10 -11 10 -2 0
-4 -4 -4 -10z"/>
<path d="M5150 590 c-14 -11 -21 -20 -17 -20 5 0 20 9 34 20 14 11 22 20 17
20 -5 0 -20 -9 -34 -20z"/>
<path d="M5412 560 c0 -14 2 -19 5 -12 2 6 2 18 0 25 -3 6 -5 1 -5 -13z"/>
<path d="M5367 512 c-10 -10 -17 -22 -17 -26 0 -4 -9 -16 -20 -28 -12 -13 -20
-34 -19 -52 1 -22 3 -25 6 -11 3 11 21 44 40 73 35 55 40 77 10 44z"/>
<path d="M5905 410 c-4 -6 5 -10 20 -10 15 0 24 4 20 10 -3 6 -12 10 -20 10
-8 0 -17 -4 -20 -10z"/>
<path d="M4820 390 c-13 -8 -12 -10 3 -10 9 0 17 5 17 10 0 12 -1 12 -20 0z"/>
<path d="M6000 390 c0 -5 9 -10 20 -10 11 0 20 5 20 10 0 6 -9 10 -20 10 -11
0 -20 -4 -20 -10z"/>
<path d="M2942 365 c6 -14 15 -25 19 -25 5 0 3 11 -3 25 -6 14 -15 25 -19 25
-5 0 -3 -11 3 -25z"/>
<path d="M6110 379 c0 -5 5 -7 10 -4 6 3 10 8 10 11 0 2 -4 4 -10 4 -5 0 -10
-5 -10 -11z"/>
<path d="M5725 161 c-17 -7 -14 -10 20 -20 49 -13 145 -14 165 -1 10 7 -9 10
-62 10 -42 0 -80 5 -83 10 -7 12 -12 12 -40 1z"/>
<path d="M3640 46 c0 -20 -4 -35 -9 -31 -5 3 -12 2 -15 -3 -2 -4 5 -9 17 -10
19 -1 22 4 21 33 -1 48 -14 58 -14 11z"/>
<path d="M3550 26 c0 -2 7 -9 15 -16 12 -10 15 -10 15 4 0 9 -7 16 -15 16 -8
0 -15 -2 -15 -4z"/>
<path d="M3591 14 c0 -11 3 -14 6 -6 3 7 2 16 -1 19 -3 4 -6 -2 -5 -13z"/>
</g>
</svg>
