<?xml version="1.0" standalone="no"?>
<!DOCTYPE svg PUBLIC "-//W3C//DTD SVG 20010904//EN"
 "http://www.w3.org/TR/2001/REC-SVG-20010904/DTD/svg10.dtd">
<svg version="1.0" xmlns="http://www.w3.org/2000/svg"
 width="612.000000pt" height="408.000000pt" viewBox="0 0 612.000000 408.000000"
 preserveAspectRatio="xMidYMid meet">

<g transform="translate(0.000000,408.000000) scale(0.100000,-0.100000)"
fill="#000000" stroke="none">
<path d="M1500 4050 c0 -35 -18 -30 230 -64 102 -14 295 -42 430 -61 135 -20
292 -42 350 -50 58 -7 169 -24 248 -36 79 -12 144 -20 146 -18 2 2 6 61 9 132
l7 127 -710 0 -710 0 0 -30z"/>
<path d="M3230 3937 c0 -79 3 -245 7 -370 6 -206 7 -224 22 -209 15 14 16 14
19 -1 3 -12 10 -15 31 -11 19 4 33 0 46 -12 17 -17 18 -17 34 3 10 11 32 24
49 28 18 3 32 13 32 21 0 16 26 19 35 4 8 -13 42 -13 50 0 4 6 2 17 -4 24 -7
8 -10 20 -9 27 2 8 -3 13 -11 11 -12 -3 -12 0 -2 12 15 17 7 36 -15 36 -8 0
-17 6 -20 14 -8 20 25 86 42 86 8 0 14 9 14 20 0 11 4 20 10 20 5 0 9 -15 8
-33 -1 -18 4 -42 10 -53 11 -18 11 -18 12 4 0 12 5 22 10 22 6 0 10 21 10 48
0 53 13 85 24 57 3 -9 6 -40 7 -68 0 -29 4 -61 8 -72 6 -16 10 -9 20 32 7 28
12 64 11 80 -3 43 -1 55 9 49 5 -3 7 -24 4 -45 -3 -22 -2 -57 2 -78 l7 -38 23
28 c30 34 35 34 35 -2 0 -17 4 -32 9 -35 14 -9 1 -44 -19 -49 -10 -2 -24 -17
-31 -33 -17 -36 -54 -44 -62 -15 -6 25 -29 27 -48 5 -16 -19 0 -50 25 -48 12
1 16 -7 16 -32 0 -20 5 -34 13 -35 6 -1 19 -2 27 -3 8 -1 24 3 35 8 11 6 24 9
28 8 4 -1 7 4 5 11 -2 7 1 12 7 12 5 0 11 -8 12 -19 2 -10 7 -26 12 -35 9 -14
10 -14 16 4 17 53 25 64 40 59 8 -4 16 -20 17 -38 3 -59 -4 -131 -13 -134 -12
-5 -12 -82 0 -82 5 0 12 -10 15 -22 11 -39 23 -1 31 95 4 48 11 87 17 87 5 0
8 20 7 45 -4 58 5 65 36 29 21 -24 27 -27 35 -14 7 12 12 12 22 2 10 -10 10
-15 -2 -22 -12 -7 -12 -12 -2 -22 6 -6 12 -30 12 -52 1 -23 7 -59 15 -81 8
-21 10 -42 5 -45 -8 -5 -18 -36 -24 -73 -1 -9 -5 -20 -9 -23 -4 -4 -7 -18 -7
-30 0 -13 -11 -35 -25 -50 -26 -28 -26 -28 -32 -6 -3 15 -18 26 -45 34 -38 11
-42 10 -60 -12 -14 -18 -22 -20 -30 -12 -22 22 -28 12 -28 -53 0 -66 7 -78 30
-49 8 9 25 14 44 12 l31 -3 0 -70 c1 -49 -4 -80 -17 -102 -15 -29 -16 -34 -2
-47 13 -13 12 -19 -4 -50 -11 -20 -23 -32 -27 -28 -4 4 -4 -3 -1 -15 5 -14 3
-23 -3 -23 -6 0 -11 6 -11 13 0 7 -7 4 -15 -7 -10 -14 -15 -45 -15 -102 0
-122 -6 -144 -41 -144 -16 0 -38 -5 -48 -11 -13 -9 -26 -9 -48 -1 -23 8 -34 7
-44 -3 -8 -7 -31 -18 -52 -23 -32 -9 -38 -8 -47 9 -7 13 -7 19 0 19 5 0 10 6
10 13 0 7 10 17 22 22 15 7 22 18 22 35 -2 38 -15 80 -26 80 -6 0 -4 7 3 17
11 12 11 17 2 20 -9 3 -10 9 -1 23 13 20 -3 50 -28 50 -7 0 -12 11 -12 29 1
33 -8 51 -26 51 -18 0 -54 79 -55 118 0 38 -16 62 -41 62 -10 0 -20 6 -23 14
-7 17 -115 30 -132 16 -6 -5 -15 -7 -18 -3 -4 3 -7 2 -7 -4 0 -5 -15 -8 -32
-6 -18 3 -54 4 -80 3 -42 0 -48 2 -48 20 0 23 -13 26 -29 6 -7 -8 -25 -12 -44
-10 -17 1 -32 3 -32 4 0 0 -19 3 -43 5 -34 3 -48 -1 -64 -17 -12 -12 -33 -21
-50 -20 -16 0 -26 -4 -22 -9 8 -14 -23 -59 -41 -59 -8 0 -15 -5 -15 -11 0 -6
-12 -1 -26 10 -24 19 -40 21 -146 21 -118 0 -119 0 -128 -25 -7 -18 -6 -32 3
-46 10 -17 20 -20 67 -15 30 2 70 7 87 11 18 4 49 4 69 1 31 -6 35 -10 32 -34
-3 -24 -7 -27 -38 -27 -19 0 -38 -4 -42 -10 -4 -5 -18 1 -32 15 -30 27 -31 25
-11 -24 14 -33 14 -37 0 -42 -21 -8 -19 -28 3 -20 14 5 14 4 -2 -9 -11 -8 -35
-15 -54 -15 -26 0 -33 -4 -28 -15 3 -8 -1 -21 -9 -29 -26 -25 -14 -66 19 -66
1 0 1 13 -2 30 -3 19 0 30 8 30 6 0 10 -6 8 -12 -5 -14 15 -38 29 -38 16 0 58
-63 45 -68 -7 -2 -12 -16 -12 -32 0 -22 -6 -30 -30 -39 -32 -11 -41 -24 -13
-19 15 2 17 -4 16 -32 l-2 -35 11 38 c6 22 16 37 25 37 13 0 15 -9 10 -45 -4
-25 -9 -56 -13 -70 -12 -49 12 -24 31 31 11 31 21 51 23 45 2 -6 -1 -25 -6
-41 -9 -23 -8 -28 3 -23 8 2 17 13 20 24 5 15 10 17 26 9 17 -10 20 -7 25 20
4 16 11 30 16 30 5 0 7 4 4 9 -3 5 8 14 24 20 32 11 37 4 20 -29 -8 -15 -6
-17 10 -13 15 4 20 -2 26 -33 l7 -37 22 43 22 44 17 -56 c9 -31 28 -70 42 -87
20 -24 22 -31 10 -31 -9 0 -50 -16 -91 -35 -52 -24 -75 -40 -75 -52 0 -15 -2
-16 -10 -3 -8 13 -10 12 -12 -5 -3 -41 -5 -50 -14 -70 -8 -18 -9 -17 -14 9 -3
16 -11 31 -18 34 -10 3 -11 -3 -5 -25 8 -31 8 -55 1 -93 -4 -18 -12 -25 -31
-27 -34 -2 -48 38 -23 66 12 13 14 24 7 42 -8 23 -9 23 -19 -11 -10 -33 -10
-32 -11 27 l-1 61 -40 -19 c-21 -10 -44 -19 -50 -19 -6 0 -32 -9 -57 -21 -25
-11 -51 -18 -59 -15 -14 6 -17 -3 -15 -41 1 -11 -2 -24 -8 -27 -5 -4 -9 12 -9
38 0 36 3 45 20 50 18 4 19 7 8 21 -11 13 -9 19 11 36 20 17 23 28 22 78 -1
32 -3 62 -5 67 -2 5 2 9 7 9 6 0 9 -6 9 -12 -2 -15 12 -17 21 -4 3 5 1 12 -4
16 -13 7 -4 32 15 39 27 10 44 -4 38 -31 -6 -22 -4 -24 15 -18 12 4 21 2 21
-4 0 -6 -4 -11 -9 -11 -5 0 -11 -7 -14 -14 -4 -10 -1 -13 8 -10 20 8 27 34 14
50 -6 8 -9 14 -6 14 3 0 -5 11 -18 25 -18 20 -29 24 -49 19 -16 -4 -26 -2 -26
5 0 6 5 11 10 11 6 0 10 4 10 10 0 5 -6 7 -13 4 -16 -6 -37 55 -37 105 0 17
-4 31 -10 31 -15 0 -12 -70 5 -126 19 -62 18 -77 -1 -41 -8 15 -18 50 -21 78
-4 35 -9 46 -15 37 -6 -8 -8 3 -4 32 2 24 9 46 14 48 4 1 7 17 5 35 l-4 32 23
-26 c13 -15 29 -24 36 -22 15 6 16 33 2 33 -25 0 -49 36 -44 65 6 38 5 77 -2
84 -12 13 -24 -28 -22 -84 1 -37 -7 -84 -20 -125 -11 -36 -23 -79 -27 -96 -3
-18 -19 -46 -36 -65 -16 -18 -26 -35 -21 -38 4 -3 14 -25 20 -48 12 -39 16
-43 44 -43 27 0 30 -3 24 -23 -4 -12 -9 -34 -12 -49 -4 -15 -16 -35 -27 -45
-19 -17 -20 -17 -14 0 6 15 3 16 -12 7 -11 -5 -21 -15 -24 -22 -3 -10 -9 -10
-27 0 -17 11 -24 11 -30 2 -5 -8 -10 -6 -15 7 -5 10 -7 21 -7 26 1 4 -1 7 -5
7 -5 0 -9 28 -10 63 -1 53 0 58 9 33 6 -16 17 -40 24 -55 l14 -26 -4 35 c-3
19 -5 37 -7 40 -1 3 -1 9 0 14 1 5 -6 17 -15 28 -10 10 -28 35 -40 56 -13 20
-24 33 -24 27 0 -5 -9 5 -20 23 -11 18 -24 31 -28 28 -11 -6 -40 28 -53 61 -5
14 -12 23 -15 20 -13 -12 49 -118 77 -132 17 -9 31 -26 34 -43 4 -15 14 -52
23 -82 21 -69 22 -99 5 -93 -8 3 -31 -6 -52 -20 -46 -31 -120 -57 -139 -49 -9
3 14 19 55 38 66 32 109 64 85 64 -6 0 -14 -5 -17 -10 -4 -7 -12 -7 -24 0 -10
5 -22 6 -26 2 -5 -4 -5 -1 -1 6 4 6 3 12 -2 12 -5 0 -12 9 -15 21 -4 15 -2 19
8 15 8 -3 17 -1 20 4 8 13 -18 13 -90 -1 -53 -10 -60 -9 -72 7 -7 10 -12 25
-12 33 1 13 2 12 6 -2 3 -12 11 -15 29 -11 13 3 30 1 38 -5 11 -9 14 -8 12 6
0 10 -11 24 -23 30 -14 9 -20 19 -16 33 3 11 0 20 -6 20 -6 0 -11 9 -11 21 0
11 -4 18 -9 14 -14 -8 -41 35 -41 65 0 14 -4 30 -9 36 -4 5 -16 33 -27 62 -10
28 -22 52 -26 52 -11 0 -10 -18 2 -41 18 -32 1 -21 -20 14 -25 40 -26 59 -3
50 13 -5 15 -2 10 18 -4 13 -10 40 -13 61 l-6 36 73 -1 73 -2 19 -49 c21 -58
51 -98 63 -87 5 5 20 12 34 16 22 7 23 6 11 -9 -11 -13 -11 -22 -1 -46 12 -29
20 -34 48 -31 6 1 12 -5 12 -13 0 -10 6 -13 15 -10 21 9 19 32 -5 39 -26 8
-25 20 2 47 15 15 32 21 50 19 23 -2 28 2 28 18 0 31 27 26 58 -10 l26 -31 8
23 c5 13 6 45 3 71 l-7 47 39 4 c32 3 34 5 16 11 -23 8 -40 36 -22 36 6 0 8 4
4 9 -3 6 11 13 31 17 37 7 37 7 13 20 -13 7 -32 13 -41 14 -29 0 -20 20 10 21
27 2 27 2 2 6 -14 3 -28 9 -31 14 -3 6 -18 3 -34 -5 -33 -17 -55 -9 -82 31
-17 25 -43 78 -43 87 0 2 25 4 56 4 31 0 61 5 67 11 19 19 53 12 65 -13 9 -21
7 -28 -14 -51 -14 -15 -23 -32 -21 -39 5 -16 38 -19 71 -6 24 9 26 13 15 26
-7 9 -14 21 -15 28 -1 6 -12 34 -24 61 -19 45 -23 48 -34 33 -14 -19 -52 -23
-76 -8 -15 9 -2 17 55 33 11 4 -12 5 -51 2 -69 -3 -72 -3 -83 23 -10 21 -10
28 2 37 8 5 18 21 22 35 4 14 24 40 44 57 34 31 40 32 91 27 30 -3 76 -13 103
-22 39 -13 47 -20 47 -41 0 -15 4 -42 9 -61 5 -19 12 -52 16 -72 l6 -38 107 1
107 0 93 191 c51 105 91 192 89 195 -5 4 -147 17 -377 33 -146 11 -158 14
-218 46 -35 18 -80 36 -99 40 -50 10 -148 -14 -188 -46 -31 -25 -39 -27 -82
-19 -56 9 -398 39 -452 39 -36 0 -39 -2 -69 -64 -36 -73 -48 -116 -35 -116 13
0 53 -35 53 -46 0 -4 21 -28 48 -53 79 -76 123 -131 128 -161 7 -33 26 -38
147 -41 42 -1 77 -5 77 -8 0 -3 -9 -21 -20 -38 l-20 -33 -178 0 -178 0 -63 46
c-35 25 -78 52 -97 60 -18 7 -35 18 -39 24 -3 5 -12 10 -20 10 -8 0 -26 5 -42
12 -38 15 -62 11 -101 -19 -18 -14 -39 -23 -46 -20 -7 3 -25 -10 -41 -29 -33
-39 -49 -44 -40 -11 4 12 3 17 -2 10 -12 -16 -49 -21 -45 -5 1 6 -3 12 -9 12
-20 0 0 68 30 101 16 17 34 48 41 70 8 22 22 45 32 50 10 5 18 16 18 23 0 8 7
27 15 42 10 19 11 30 4 33 -15 5 -20 -3 -70 -94 -23 -44 -58 -107 -76 -140
-75 -137 -71 -121 -42 -175 23 -42 24 -51 13 -72 -36 -65 11 -293 80 -383 14
-19 26 -38 26 -44 0 -5 9 -12 19 -16 11 -3 35 -25 53 -48 48 -59 56 -77 22
-46 -16 14 -37 32 -47 40 -10 8 -26 22 -34 31 -9 9 -20 15 -25 12 -4 -3 -8 -2
-8 3 0 4 -39 7 -88 6 -139 -3 -137 -2 -149 -34 -14 -35 -63 -43 -63 -10 0 26
-13 33 -80 47 -54 12 -56 11 -77 -15 -12 -14 -22 -30 -23 -36 0 -5 -7 -22 -14
-37 -13 -25 -32 -85 -70 -223 -6 -22 -21 -51 -33 -65 -13 -13 -25 -40 -28 -59
-4 -20 -11 -45 -17 -56 -47 -82 -49 -90 -42 -222 5 -95 12 -138 26 -165 22
-46 18 -68 -30 -163 -19 -38 -45 -106 -56 -149 -18 -66 -26 -82 -51 -98 -36
-22 -73 -38 -86 -38 -13 0 -12 -857 1 -865 6 -3 10 -20 10 -36 0 -18 -4 -28
-10 -24 -5 3 -10 -1 -10 -9 0 -14 142 -16 1376 -16 993 0 1373 3 1369 11 -4 6
-17 8 -28 5 -24 -6 -337 18 -517 40 -69 8 -141 17 -160 19 -59 7 -159 26 -295
57 -413 92 -705 233 -789 382 -13 22 -29 73 -36 111 l-12 70 42 80 c23 44 47
85 52 92 11 14 7 113 -5 113 -5 0 -15 -17 -24 -39 -14 -37 -56 -72 -69 -58 -4
4 6 26 22 49 26 39 29 51 29 128 0 69 -4 93 -22 128 -34 63 -11 91 70 83 9 -1
17 3 17 8 0 6 -6 11 -12 12 -7 1 -22 2 -33 3 -12 0 -21 9 -23 22 -3 18 1 20
28 16 16 -2 30 -7 30 -11 0 -14 41 -51 51 -46 5 4 9 -1 9 -10 0 -9 5 -13 11
-9 6 3 15 0 20 -7 4 -7 12 -10 16 -5 4 5 2 11 -4 13 -7 3 -13 11 -13 19 0 7
-11 21 -25 30 -30 20 -32 44 -5 51 12 3 20 14 20 26 0 11 7 25 15 31 12 9 11
14 -6 35 -18 22 -21 22 -37 8 -32 -29 -65 -30 -95 -2 -19 18 -26 33 -22 46 8
25 -3 59 -19 59 -26 0 -32 21 -25 86 5 35 15 77 23 92 47 88 67 138 73 177 3
25 12 50 19 56 8 6 14 19 14 28 0 21 54 43 69 28 6 -6 14 -8 18 -4 8 8 -14 54
-41 85 -11 12 -17 22 -14 22 12 0 68 -32 68 -39 0 -5 19 -21 41 -36 33 -21 43
-24 50 -13 5 7 7 18 5 24 -3 6 5 10 19 8 26 -2 43 24 21 32 -8 3 -12 14 -9 24
3 11 -4 28 -16 41 -12 13 -21 36 -21 54 0 17 -4 35 -8 41 -12 14 -35 112 -28
123 4 5 29 1 61 -11 l55 -20 45 27 c25 14 45 30 45 35 0 6 -21 11 -47 11 -45
2 -63 3 -88 8 -5 1 -2 6 8 12 9 5 17 16 17 24 0 7 13 16 29 20 16 3 35 13 42
21 18 22 30 17 23 -11 -7 -28 7 -33 26 -10 10 12 16 13 26 4 11 -9 14 -8 14 1
0 10 3 10 15 0 25 -20 38 2 39 62 0 56 -6 84 -23 117 -14 26 -14 42 0 17 9
-14 13 -16 20 -5 4 7 11 10 16 6 4 -5 1 -12 -6 -16 -7 -5 -10 -14 -7 -20 4 -6
12 -8 18 -5 6 4 8 3 5 -3 -3 -5 7 -17 24 -27 16 -9 29 -25 29 -35 0 -9 6 -23
13 -30 7 -9 8 -12 0 -7 -7 4 -9 -1 -6 -14 3 -11 0 -20 -6 -20 -6 0 -16 -11
-21 -25 -6 -15 -15 -23 -24 -19 -8 3 -21 -5 -30 -18 -13 -18 -16 -19 -16 -5 0
9 -7 17 -15 17 -8 0 -15 -4 -15 -9 0 -5 -11 -19 -25 -32 -33 -32 -32 -51 3
-47 19 2 28 9 30 26 5 33 22 27 22 -8 0 -17 -5 -30 -12 -30 -8 0 -9 -3 -2 -10
8 -8 19 -7 39 0 15 6 30 9 32 7 2 -3 1 -24 -3 -48 -7 -39 -8 -41 -17 -21 -8
16 -19 22 -44 22 -29 0 -33 3 -33 26 0 15 -4 23 -11 19 -6 -4 -9 -23 -8 -44 1
-20 -3 -47 -9 -61 -12 -30 2 -62 26 -58 9 2 25 -10 36 -29 19 -28 44 -43 70
-42 5 1 13 -6 18 -15 5 -9 36 -29 69 -46 60 -30 88 -39 59 -20 -13 9 -13 11 0
20 8 5 32 12 52 15 34 6 41 3 65 -26 16 -18 31 -44 35 -58 22 -75 27 -258 7
-245 -4 2 -9 -5 -12 -15 -2 -11 -15 -21 -28 -24 l-24 -4 23 -2 c13 0 21 -5 17
-10 -3 -6 4 -15 16 -21 12 -7 19 -18 16 -29 -2 -9 3 -23 11 -30 12 -12 13 -11
8 10 -6 21 -5 22 6 8 8 -9 22 -19 33 -22 19 -4 19 -5 1 -6 -18 -1 -18 -2 -1
-21 10 -11 25 -20 34 -21 12 0 11 -3 -4 -9 -11 -5 -16 -9 -11 -9 5 -1 3 -7 -3
-14 -8 -11 -6 -18 9 -32 18 -16 20 -16 45 10 33 36 44 25 15 -14 -11 -17 -18
-35 -15 -41 12 -19 33 -10 45 20 7 16 19 35 28 42 14 11 13 9 -1 -12 -9 -13
-17 -28 -17 -32 0 -14 23 -8 35 9 11 15 15 16 31 3 18 -14 18 -13 0 8 -21 25
-19 26 18 12 14 -5 26 -6 26 -2 1 10 50 44 50 34 0 -5 -19 -28 -42 -50 l-42
-42 30 -30 c35 -33 77 -52 99 -44 10 4 15 0 15 -10 0 -10 9 -16 23 -16 37 0
61 -23 52 -50 -7 -21 -11 -22 -71 -17 -57 6 -66 4 -77 -13 -12 -21 -37 -27
-37 -10 0 14 -42 12 -65 -3 -36 -24 -140 -13 -275 27 -69 21 -126 38 -126 39
-1 1 -5 16 -8 34 -9 38 3 47 61 49 24 1 49 6 55 12 7 6 50 10 96 9 56 -1 76 1
62 7 -11 5 -20 15 -20 22 0 13 -83 74 -102 74 -7 0 -6 6 2 15 11 13 10 14 -6
8 -17 -6 -17 -5 -5 10 11 13 11 17 1 17 -19 0 -100 -49 -100 -60 0 -6 -4 -10
-9 -10 -12 0 -20 49 -10 56 15 9 10 34 -6 34 -8 0 -15 -5 -15 -12 0 -6 -3 -8
-7 -4 -5 5 8 21 27 37 37 32 27 38 -22 13 l-30 -16 18 31 c10 17 25 32 33 34
11 3 10 5 -4 6 -11 0 -30 -6 -42 -14 -14 -10 -23 -11 -25 -4 -5 14 -58 1 -64
-16 -3 -7 10 -43 29 -79 30 -57 32 -66 16 -61 -11 4 -19 2 -19 -5 0 -6 5 -8
10 -5 6 3 10 1 10 -5 0 -6 4 -9 9 -5 5 3 12 1 16 -5 3 -5 1 -10 -5 -10 -6 0
-15 -11 -19 -24 -9 -23 -46 -35 -124 -42 -37 -3 -39 -6 -27 -38 7 -20 15 -26
29 -21 24 7 49 -21 33 -37 -18 -18 -15 -25 12 -32 24 -6 25 -9 20 -74 -7 -88
-2 -94 61 -78 28 7 69 16 93 20 l42 6 0 -40 c0 -36 2 -40 25 -40 23 0 25 3 25
49 l0 50 48 6 c26 3 58 8 71 11 l24 5 -6 -76 c-4 -41 -14 -89 -23 -106 -8 -17
-14 -33 -11 -35 2 -2 31 -7 64 -10 l61 -7 37 79 c21 45 38 96 39 119 0 22 6
46 13 53 8 8 52 14 124 17 l111 5 -4 -25 c-3 -14 0 -25 6 -26 6 -1 0 -4 -14
-8 -19 -6 -12 -8 25 -8 59 1 75 -7 75 -34 0 -17 7 -19 59 -19 l59 0 -1 -305
c-2 -282 -1 -305 15 -305 16 0 17 26 17 342 1 293 -2 346 -15 366 -14 22 -14
25 2 37 17 12 17 14 0 40 -20 31 -16 40 15 30 15 -5 18 -10 9 -15 -14 -9 11
-20 43 -19 21 0 21 1 2 9 -16 7 -14 9 15 9 23 1 30 -2 21 -8 -26 -17 8 -22 39
-6 26 14 30 14 30 1 0 -15 31 -15 78 0 12 3 16 -8 13 -33 -1 -9 12 -13 37 -13
38 0 40 2 46 38 9 55 7 102 -3 102 -5 0 -11 -11 -13 -25 -4 -31 -23 -33 -23
-2 0 13 -8 23 -18 25 -13 3 -17 -2 -15 -14 5 -27 -17 -27 -30 1 -25 54 -8 87
22 44 l14 -21 4 21 c4 29 20 29 35 1 l11 -22 11 21 c7 11 21 21 31 21 11 0 20
6 20 13 0 9 2 9 9 -1 4 -7 14 -12 21 -10 18 4 26 -33 9 -43 -10 -5 -13 -25
-11 -73 2 -36 7 -66 12 -66 5 0 12 30 15 68 4 37 13 82 21 100 7 17 18 77 24
132 11 98 7 137 -11 109 -6 -11 -24 2 -73 50 -36 36 -63 67 -61 70 3 2 14 -4
25 -14 25 -22 39 -12 18 12 -17 21 -34 118 -18 108 6 -3 10 -15 10 -25 0 -32
26 -13 38 28 8 24 21 41 39 49 41 20 45 16 38 -28 -5 -29 -4 -40 4 -35 6 4 11
13 11 20 0 8 7 19 15 26 9 7 14 19 11 27 -4 9 -1 11 6 7 7 -5 9 1 4 20 -4 18
-2 26 7 26 7 0 30 9 52 20 46 23 45 23 45 10 0 -5 -6 -10 -14 -10 -14 0 -56
-86 -56 -114 0 -15 38 -62 44 -54 2 2 11 37 21 78 10 41 19 77 21 79 2 2 24
-9 49 -23 56 -33 77 -31 82 9 2 17 8 53 13 80 8 45 8 42 8 -40 0 -71 4 -99 20
-135 16 -34 22 -39 22 -22 0 19 5 23 28 20 20 -2 28 -9 30 -26 2 -16 14 -27
33 -34 32 -11 35 -25 15 -81 -8 -20 -10 -39 -6 -42 4 -3 40 4 79 14 l71 19 0
-35 c0 -33 -2 -35 -26 -29 -15 4 -23 3 -20 -2 6 -11 -51 -25 -65 -16 -5 3 -9
0 -9 -6 0 -14 -41 -3 -52 14 -5 8 -8 7 -8 -2 0 -7 7 -15 15 -18 12 -5 15 -26
15 -100 0 -52 3 -93 8 -92 4 1 35 -2 70 -6 52 -7 65 -12 72 -30 4 -13 14 -23
22 -23 7 0 27 -3 43 -7 27 -7 28 -6 12 6 -15 11 -16 18 -8 41 6 15 17 27 26
27 10 0 15 10 15 29 0 45 21 56 88 45 52 -8 57 -11 60 -36 2 -16 9 -28 18 -28
8 0 14 -7 14 -15 0 -8 -4 -15 -10 -15 -5 0 -10 -7 -10 -15 0 -8 5 -15 10 -15
6 0 9 -6 8 -12 -2 -7 9 -14 24 -16 23 -3 30 3 47 36 11 21 27 44 36 52 15 12
16 11 9 -16 -4 -16 -13 -36 -20 -45 -23 -26 -17 -47 16 -54 16 -4 32 -10 35
-15 3 -5 19 -5 35 0 17 5 44 5 63 -1 37 -10 101 -72 112 -107 4 -13 9 -22 11
-19 9 8 -18 62 -44 90 -38 40 -74 57 -124 57 l-43 0 26 26 c58 57 157 17 226
-92 11 -18 12 -18 12 0 1 20 -77 98 -123 122 -16 9 -42 14 -57 12 -22 -4 -29
-1 -29 13 0 9 -8 20 -17 24 -16 7 -15 9 6 14 29 8 53 41 34 48 -14 5 -6 33 13
49 16 13 28 134 13 134 -6 0 -17 7 -25 15 -9 8 -12 15 -7 15 5 0 14 -5 20 -11
8 -8 11 -6 10 7 -1 11 -6 22 -10 25 -5 3 3 13 16 22 39 25 70 83 58 104 -6 10
-11 12 -11 6 0 -7 -7 -13 -15 -13 -19 0 -19 30 0 56 20 26 20 88 0 80 -11 -4
-15 1 -15 17 0 12 -9 28 -19 34 -12 8 -17 19 -14 31 2 10 -3 24 -12 32 -18 15
-32 6 -18 -12 6 -7 13 -31 16 -53 5 -28 4 -34 -3 -20 -5 11 -9 30 -9 42 -1 18
-6 22 -23 20 -26 -5 -41 -48 -28 -82 7 -19 6 -23 -6 -18 -20 7 -28 47 -15 71
16 31 13 35 -11 18 -33 -23 -51 -19 -71 15 -20 36 -15 49 19 49 13 0 24 5 24
10 0 6 11 15 25 22 13 6 21 16 18 21 -12 20 -9 61 7 79 19 23 47 50 111 107
27 24 49 49 49 56 0 7 7 15 15 19 24 9 17 26 -10 26 -14 0 -28 7 -31 15 -4 8
-18 15 -33 16 -15 0 -20 3 -11 6 8 3 18 11 23 17 5 8 10 7 16 -3 6 -9 11 -10
15 -2 10 16 29 13 23 -4 -8 -20 8 -28 23 -10 7 8 22 15 33 15 19 0 20 2 6 15
-12 12 -27 14 -77 7 -34 -5 -64 -6 -67 -4 -9 10 -5 23 5 17 14 -9 13 8 -2 23
-9 9 -8 12 8 13 10 0 14 3 7 5 -7 3 -9 12 -6 20 3 8 -1 14 -8 14 -11 0 -11 3
1 10 8 5 24 7 35 4 13 -3 10 1 -7 11 -27 15 -39 45 -18 45 6 0 10 4 10 9 0 5
-25 13 -55 16 -30 4 -52 11 -49 16 3 5 -1 9 -9 9 -24 0 -29 60 -9 115 16 47
19 105 4 105 -10 0 -1 174 9 181 5 3 12 30 15 60 3 30 9 63 14 74 4 11 11 28
14 38 7 21 25 22 31 2 15 -47 17 -50 23 -35 7 21 50 60 67 60 16 0 22 35 31
177 5 82 3 106 -9 123 l-15 22 -11 -21 c-15 -28 -31 -27 -31 2 0 24 42 72 52
61 9 -8 28 92 29 151 1 28 6 74 11 103 7 41 13 51 22 43 13 -11 26 -5 26 11 0
4 -265 8 -590 8 l-590 0 0 -143z m695 -102 c0 -5 -10 -11 -22 -13 -16 -2 -23
2 -23 13 0 11 7 15 23 13 12 -2 22 -7 22 -13z m335 -35 c0 -11 -4 -20 -10 -20
-5 0 -10 9 -10 20 0 11 5 20 10 20 6 0 10 -9 10 -20z m-850 -303 c0 -13 -7
-32 -15 -43 -13 -18 -14 -16 -15 24 0 31 4 42 15 42 9 0 15 -9 15 -23z m703
-70 c8 -22 -4 -67 -19 -68 -8 -1 -20 -2 -26 -3 -8 -1 -14 14 -15 42 -1 40 0
42 27 42 15 0 30 -6 33 -13z m-713 -24 c0 -20 -3 -24 -11 -16 -7 7 -9 19 -6
27 10 24 17 19 17 -11z m700 -373 c0 -5 -4 -10 -10 -10 -5 0 -10 5 -10 10 0 6
5 10 10 10 6 0 10 -4 10 -10z m-4 -73 c15 -8 20 -57 6 -57 -18 0 -32 26 -31
60 0 19 3 28 6 20 3 -8 12 -19 19 -23z m-115 -110 c22 -17 31 -57 13 -57 -8 0
-14 -5 -14 -11 0 -6 8 -8 18 -5 13 5 13 3 -3 -9 -11 -9 -27 -21 -35 -28 -32
-27 -35 -25 -35 19 0 24 4 44 8 44 5 0 6 9 2 20 -12 37 14 52 46 27z m99 -37
c0 -5 -2 -10 -4 -10 -3 0 -8 5 -11 10 -3 6 -1 10 4 10 6 0 11 -4 11 -10z m35
-20 c3 -6 -4 -10 -17 -10 -18 0 -20 2 -8 10 19 12 18 12 25 0z m-48 -6 c-3 -3
-12 -4 -19 -1 -8 3 -5 6 6 6 11 1 17 -2 13 -5z m-1841 -109 c16 -14 24 -25 17
-25 -6 0 -18 7 -27 15 -8 8 -19 15 -25 15 -5 0 -13 5 -16 10 -12 20 22 10 51
-15z m274 5 c12 -8 12 -10 -5 -10 -11 0 -27 5 -35 10 -12 8 -12 10 5 10 11 0
27 -5 35 -10z m1400 -9 c0 -6 -4 -13 -10 -16 -5 -3 -10 1 -10 9 0 9 5 16 10
16 6 0 10 -4 10 -9z m-2182 -156 c1 -25 -1 -27 -8 -10 -5 11 -9 33 -9 49 -1
21 -5 27 -17 22 -9 -3 -17 -6 -18 -6 -2 0 0 -21 4 -47 4 -26 5 -53 3 -60 -9
-24 -20 -13 -27 26 -3 22 -9 46 -12 54 -4 11 6 22 33 35 l38 20 6 -26 c4 -15
7 -40 7 -57z m215 52 c28 5 57 -34 35 -48 -8 -6 -2 -8 20 -7 17 1 32 5 32 9 0
9 37 18 44 12 3 -3 -22 -19 -56 -35 -44 -20 -64 -26 -72 -18 -8 8 -7 14 4 20
13 8 13 10 -1 10 -16 0 -40 40 -38 63 0 8 2 8 5 1 3 -6 15 -9 27 -7z m-315
-47 c-7 -11 -16 -20 -21 -20 -4 0 -3 9 3 20 6 11 15 20 20 20 6 0 5 -9 -2 -20z
m472 -25 c7 -9 8 -15 2 -15 -5 0 -12 7 -16 15 -3 8 -4 15 -2 15 2 0 9 -7 16
-15z m-390 -55 c0 -5 0 -13 -1 -16 0 -4 4 -10 9 -13 19 -12 72 -119 72 -145 0
-15 5 -37 11 -48 8 -15 8 -22 -1 -28 -7 -4 -10 -12 -6 -18 7 -11 -16 -22 -47
-22 -32 0 -7 -18 30 -22 52 -5 26 -25 -42 -33 -43 -5 -56 -3 -45 4 8 6 11 11
5 11 -5 0 -3 5 5 10 13 8 12 11 -5 24 -15 12 -16 16 -5 16 8 0 3 7 -12 16 -22
11 -28 22 -30 52 -2 50 -5 76 -8 82 -11 21 -4 53 15 68 22 16 22 17 2 27 -26
13 -24 28 5 37 35 9 48 9 48 -2z m-735 -40 c3 -5 1 -10 -4 -10 -6 0 -11 5 -11
10 0 6 2 10 4 10 3 0 8 -4 11 -10z m602 -42 c-3 -8 -6 -5 -6 6 -1 11 2 17 5
13 3 -3 4 -12 1 -19z m-552 -8 c3 -5 2 -10 -4 -10 -5 0 -13 5 -16 10 -3 6 -2
10 4 10 5 0 13 -4 16 -10z m1555 -45 c0 -8 -4 -15 -10 -15 -5 0 -10 7 -10 15
0 8 5 15 10 15 6 0 10 -7 10 -15z m150 11 c0 -3 -4 -8 -10 -11 -5 -3 -10 -1
-10 4 0 6 5 11 10 11 6 0 10 -2 10 -4z m-370 -145 c0 -3 -4 -1 -9 5 -5 5 -12
27 -15 49 l-6 40 15 -45 c8 -25 15 -47 15 -49z m1658 61 c8 -15 16 -32 19 -39
8 -19 -32 -34 -61 -23 -30 11 -35 44 -9 72 22 25 36 23 51 -10z m-2481 -4 c-3
-8 -6 -5 -6 6 -1 11 2 17 5 13 3 -3 4 -12 1 -19z m1479 -24 c1 -26 -3 -34 -13
-29 -8 3 -17 5 -19 5 -9 0 -3 47 8 58 16 16 22 7 24 -34z m447 -8 c89 -16 122
-34 131 -73 4 -15 21 -42 38 -60 31 -32 31 -53 -2 -53 -24 0 -37 20 -13 20 17
1 17 2 -1 15 -27 20 -47 19 -53 -4 -3 -11 -12 -22 -21 -26 -28 -10 -34 10 -18
64 19 66 6 66 -18 1 -10 -28 -23 -49 -30 -47 -6 3 -10 9 -9 14 12 60 14 115 5
109 -7 -4 -16 -21 -22 -39 -9 -30 -9 -29 -4 11 5 40 5 42 -20 42 -14 0 -26 4
-26 9 0 4 -15 13 -32 19 -30 9 -30 10 -8 11 14 0 60 -6 103 -13z m-249 -77 c7
-49 7 -49 -47 -40 -9 1 -4 25 15 74 14 35 24 25 32 -34z m-840 -10 c2 -13 7
-31 11 -41 3 -9 -1 -30 -10 -47 -20 -39 -27 -40 -13 -1 5 17 7 38 3 48 -11 27
-15 100 -5 81 5 -8 11 -26 14 -40z m1610 26 c-6 -16 -24 -21 -24 -7 0 11 11
22 21 22 5 0 6 -7 3 -15z m-2968 -87 c2 -3 -13 -8 -34 -12 -43 -6 -66 -27 -76
-68 -7 -32 -24 -37 -32 -10 -3 9 -9 24 -14 33 -6 12 -1 23 18 42 15 13 34 27
42 29 15 5 87 -6 96 -14z m3229 -28 c3 -5 1 -10 -4 -10 -6 0 -11 5 -11 10 0 6
2 10 4 10 3 0 8 -4 11 -10z m-2258 -14 c0 -8 -8 -11 -20 -8 -14 3 -18 1 -13
-6 5 -8 1 -10 -10 -5 -14 5 -13 8 7 19 31 17 36 17 36 0z m1770 -2 c-3 -3 -12
-4 -19 -1 -8 3 -5 6 6 6 11 1 17 -2 13 -5z m-267 -23 c0 -10 -8 -21 -17 -25
-10 -3 -24 -9 -30 -12 -7 -3 -13 -1 -13 6 0 6 5 8 10 5 6 -3 13 2 17 12 5 15
21 32 31 33 1 0 2 -8 2 -19z m390 -15 c0 -42 -10 -50 -44 -35 -19 9 -23 15
-15 25 7 8 7 14 -1 19 -21 13 -9 25 25 25 33 0 35 -2 35 -34z m-1760 -4 c0
-10 -91 -55 -98 -48 -3 3 11 12 31 21 19 8 38 19 42 25 7 12 25 13 25 2z m211
-35 c-6 -15 -16 -27 -24 -27 -7 0 -20 -9 -29 -19 -13 -15 -25 -19 -52 -14 -32
5 -35 3 -39 -23 -3 -21 -4 -17 -6 15 -1 34 2 42 14 38 24 -10 105 23 123 50
19 30 27 17 13 -20z m233 12 c-3 -5 -7 -19 -9 -31 -3 -12 -10 -26 -16 -32 -9
-8 -10 -8 -5 2 6 10 -2 11 -36 6 -24 -4 -51 -11 -60 -15 -9 -5 -28 -13 -41
-18 -21 -8 -25 -7 -22 7 2 9 4 22 4 27 1 11 31 25 116 55 49 17 80 17 69 -1z
m-416 -29 c0 -32 -4 -40 -19 -40 -11 0 -19 7 -19 15 0 8 -7 15 -15 15 -9 0
-12 -6 -9 -15 8 -19 -16 -19 -71 0 l-40 13 44 -5 c23 -3 46 -2 50 3 9 14 63
54 72 54 4 0 7 -18 7 -40z m52 20 c0 -5 -4 -10 -10 -10 -5 0 -10 5 -10 10 0 6
5 10 10 10 6 0 10 -4 10 -10z m40 0 c0 -5 -4 -10 -10 -10 -5 0 -10 5 -10 10 0
6 5 10 10 10 6 0 10 -4 10 -10z m504 -6 c3 -8 2 -12 -4 -9 -6 3 -10 10 -10 16
0 14 7 11 14 -7z m1197 -6 c-17 -44 -82 -143 -109 -168 -32 -28 -46 -57 -32
-65 15 -9 12 -25 -4 -25 -9 0 -15 -21 -20 -72 -4 -40 -11 -77 -16 -82 -17 -17
-22 42 -15 161 4 65 8 133 9 151 1 17 4 32 7 32 4 0 9 10 12 22 10 37 20 12
18 -47 0 -30 2 -55 7 -55 4 1 21 12 37 25 28 24 29 25 8 25 -20 0 -23 5 -23
35 0 26 4 35 18 35 9 1 37 12 62 25 25 13 46 24 47 25 1 0 -1 -10 -6 -22z
m-1007 -4 c3 -8 -1 -27 -9 -42 -14 -27 -14 -27 -12 15 2 44 10 55 21 27z
m-130 -49 c4 -32 3 -45 -2 -36 -8 11 -11 11 -16 0 -3 -8 -4 -3 -1 11 2 14 5
38 5 54 0 42 6 29 14 -29z m-1841 10 c4 -8 2 -17 -3 -20 -6 -4 -10 3 -10 14 0
25 6 27 13 6z m1355 -16 c-3 -38 -15 -46 -36 -25 -16 16 -15 18 8 36 32 25 31
25 28 -11z m569 9 c-3 -8 -6 -5 -6 6 -1 11 2 17 5 13 3 -3 4 -12 1 -19z m-747
-28 c0 -11 -7 -20 -15 -20 -8 0 -15 9 -15 20 0 11 7 20 15 20 8 0 15 -9 15
-20z m90 0 c0 -5 -5 -10 -11 -10 -5 0 -7 5 -4 10 3 6 8 10 11 10 2 0 4 -4 4
-10z m694 -16 c9 -22 8 -24 -9 -18 -8 4 -15 12 -15 20 0 19 16 18 24 -2z
m-426 -10 c15 -8 38 -38 51 -65 25 -48 25 -49 5 -63 -10 -8 -20 -10 -22 -5 -2
5 -10 9 -18 9 -8 0 -14 5 -14 12 0 9 -3 9 -12 0 -7 -7 -24 -12 -38 -12 -15 0
-30 -3 -34 -7 -4 -4 -26 -15 -50 -24 l-43 -16 -19 29 c-10 15 -28 28 -38 28
-26 0 -12 13 17 16 12 1 25 3 30 3 4 1 7 10 7 21 0 11 3 20 8 21 4 1 36 3 72
5 44 3 67 9 73 19 4 9 14 13 20 9 7 -3 1 4 -13 15 -30 24 -19 27 18 5z m-53
-14 c4 -6 -7 -10 -24 -10 -17 0 -31 5 -31 10 0 6 11 10 24 10 14 0 28 -4 31
-10z m-148 -44 c-13 -14 -30 -26 -37 -26 -8 0 -21 -7 -30 -15 -17 -16 -50 -11
-50 7 0 6 6 8 14 5 9 -4 16 3 20 19 4 13 10 23 14 22 4 0 23 6 42 15 45 20 58
7 27 -27z m510 12 c-3 -8 -6 -5 -6 6 -1 11 2 17 5 13 3 -3 4 -12 1 -19z m-682
2 c-3 -5 -12 -7 -20 -3 -21 7 -19 13 6 13 11 0 18 -4 14 -10z m1482 -16 c-3
-3 -12 -4 -19 -1 -8 3 -5 6 6 6 11 1 17 -2 13 -5z m573 -4 c0 -5 -4 -10 -10
-10 -5 0 -10 5 -10 10 0 6 5 10 10 10 6 0 10 -4 10 -10z m-2116 -15 c-6 -16
-30 -13 -64 6 -10 6 -1 8 27 9 34 0 41 -3 37 -15z m-1764 1 c0 -2 -9 -25 -20
-51 -11 -26 -20 -55 -20 -65 0 -10 -5 -22 -12 -26 -17 -11 -3 76 19 114 15 27
33 42 33 28z m1820 -5 c0 -6 -5 -13 -10 -16 -15 -9 -43 3 -35 15 8 13 45 13
45 1z m45 -11 c3 -5 -1 -10 -10 -10 -9 0 -13 5 -10 10 3 6 8 10 10 10 2 0 7
-4 10 -10z m2070 -10 c3 -5 1 -10 -4 -10 -6 0 -11 5 -11 10 0 6 2 10 4 10 3 0
8 -4 11 -10z m-2201 -20 c4 -4 -1 -13 -12 -19 -22 -12 -76 1 -101 25 -12 11
-5 12 45 8 32 -3 63 -10 68 -14z m66 -9 c0 -8 -54 -41 -67 -41 -13 0 1 27 20
36 28 15 47 16 47 5z m46 -16 c-4 -13 -2 -13 14 -5 10 5 27 10 37 9 10 0 13
-3 6 -6 -7 -2 -13 -8 -13 -13 0 -12 62 7 71 22 11 17 39 -9 39 -36 -1 -21 -1
-21 -12 -1 -6 11 -12 21 -14 23 -4 6 -58 -31 -67 -45 -4 -7 -13 -13 -20 -13
-8 0 -6 4 3 11 12 8 10 10 -10 5 -13 -3 -35 -3 -47 1 -19 4 -21 8 -12 19 16
20 -1 17 -24 -3 -15 -14 -19 -14 -15 -3 2 8 18 22 34 31 37 22 37 22 30 4z
m2074 -25 c0 -11 -4 -20 -9 -20 -5 0 -7 9 -4 20 3 11 7 20 9 20 2 0 4 -9 4
-20z m-1490 -10 c0 -5 -4 -10 -10 -10 -5 0 -10 5 -10 10 0 6 5 10 10 10 6 0
10 -4 10 -10z m-473 -22 c-3 -8 -6 -5 -6 6 -1 11 2 17 5 13 3 -3 4 -12 1 -19z
m403 -19 c0 -6 -4 -7 -10 -4 -5 3 -10 11 -10 16 0 6 5 7 10 4 6 -3 10 -11 10
-16z m-450 -3 c0 -3 -4 -8 -10 -11 -5 -3 -10 -1 -10 4 0 6 5 11 10 11 6 0 10
-2 10 -4z m256 -38 c9 -20 13 -24 10 -10 -6 31 6 27 26 -8 17 -30 42 -42 32
-16 -3 8 -1 16 3 19 5 3 10 -7 11 -23 3 -39 -13 -46 -34 -15 -9 14 -23 24 -30
21 -15 -6 -29 9 -38 42 -11 33 3 27 20 -10z m-217 -87 c-1 -26 -3 -23 -20 34
-8 28 -8 29 6 11 8 -11 15 -31 14 -45z m346 9 c3 -5 2 -10 -4 -10 -5 0 -13 5
-16 10 -3 6 -2 10 4 10 5 0 13 -4 16 -10z m-82 -37 c-6 -15 -15 -16 -28 -4 -6
5 -26 12 -45 14 -20 3 -10 4 21 3 41 0 55 -4 52 -13z m147 -38 c19 -19 29 -35
24 -35 -6 0 -19 9 -29 20 -10 11 -23 20 -30 20 -6 0 -12 7 -12 15 0 23 10 19
47 -20z m-403 3 c-3 -8 -6 -5 -6 6 -1 11 2 17 5 13 3 -3 4 -12 1 -19z m-1307
-19 c0 -6 -4 -7 -10 -4 -5 3 -10 11 -10 16 0 6 5 7 10 4 6 -3 10 -11 10 -16z
m-20 -34 c19 -23 8 -70 -17 -73 -29 -4 -59 49 -43 77 11 21 41 19 60 -4z
m1588 -84 c4 -27 -12 -41 -50 -41 -18 0 -29 6 -33 20 -10 30 13 52 49 48 24
-2 32 -8 34 -27z m-1815 -4 c3 -8 -10 -13 -47 -14 -35 -2 -45 0 -31 6 11 5 25
6 31 4 7 -2 15 0 19 6 8 15 22 14 28 -2z m53 -32 c8 -21 -6 -41 -17 -24 -12
19 -11 39 1 39 6 0 13 -7 16 -15z m1304 -5 c0 -5 -7 -7 -15 -4 -8 4 -15 8 -15
10 0 2 7 4 15 4 8 0 15 -4 15 -10z m0 -56 c0 -17 -6 -24 -20 -24 -15 0 -20 7
-20 29 0 24 3 28 20 24 13 -3 20 -14 20 -29z m-1203 -56 c7 -5 22 -7 34 -3 21
7 22 5 15 -36 -4 -23 -13 -57 -21 -73 -7 -17 -13 -44 -13 -59 1 -35 -7 -43
-26 -28 -10 9 -12 20 -6 44 13 46 6 122 -13 151 -16 24 -16 25 0 19 10 -3 23
-10 30 -15z"/>
<path d="M2460 1255 c-10 -12 -10 -15 3 -15 19 0 31 16 18 24 -5 3 -14 -1 -21
-9z"/>
<path d="M4436 4038 c-3 -24 -8 -90 -11 -148 -3 -58 -10 -145 -17 -194 -10
-70 -10 -90 0 -94 7 -2 12 -18 12 -35 0 -26 -2 -29 -11 -17 -8 11 -9 6 -4 -20
9 -47 9 -47 1 -108 -5 -37 -4 -52 4 -47 5 3 10 2 10 -3 0 -13 75 -33 94 -26
13 5 14 10 4 27 -6 12 -14 38 -17 57 -5 29 -11 36 -33 38 -26 3 -27 6 -23 40
3 20 9 51 13 67 5 17 7 35 5 41 -2 7 15 18 39 25 40 13 43 17 43 49 0 32 -3
35 -32 38 -32 3 -33 4 -28 45 9 72 16 94 34 111 17 16 19 15 25 -6 5 -21 8
-20 27 19 15 27 19 47 14 60 -5 10 -7 21 -7 26 1 4 -2 7 -8 7 -5 0 -10 -11
-10 -25 0 -14 -5 -25 -11 -25 -10 0 -5 48 6 59 14 13 34 -16 49 -68 15 -54 36
-90 36 -62 0 6 3 10 8 9 4 -1 26 4 50 10 23 7 60 17 83 23 40 10 41 11 37 50
-3 36 -2 40 17 35 18 -5 20 -1 17 39 -4 40 -7 45 -28 45 -25 0 -27 -5 -24 -60
2 -33 1 -34 -17 -18 -10 9 -36 19 -58 21 -42 5 -48 21 -18 45 14 10 -9 12
-124 12 l-141 0 -6 -42z"/>
<path d="M4986 4048 c-3 -18 -6 -75 -7 -127 -1 -94 -12 -141 -34 -141 -6 0
-18 -11 -25 -25 -7 -14 -17 -25 -22 -25 -4 0 -8 -13 -8 -28 0 -28 35 -72 57
-72 7 0 14 -8 16 -17 4 -17 5 -17 6 0 0 9 6 17 12 17 7 0 8 -11 4 -30 -4 -16
-3 -30 2 -30 15 0 43 103 43 161 1 84 44 295 60 291 15 -4 30 16 30 41 0 14
-10 17 -64 17 l-64 0 -6 -32z"/>
<path d="M5126 4013 c-15 -168 -16 -181 -7 -138 7 35 33 139 47 188 4 12 0 17
-14 17 -17 0 -20 -10 -26 -67z"/>
<path d="M5200 4015 c0 -53 3 -63 15 -59 8 4 16 11 17 18 0 6 2 16 2 21 1 6 6
17 11 25 6 8 15 25 22 38 11 21 10 22 -28 22 l-39 0 0 -65z"/>
<path d="M5721 3823 c-7 -142 -24 -472 -37 -733 -14 -261 -28 -628 -30 -814
-4 -275 -8 -345 -20 -369 -9 -16 -13 -35 -10 -43 6 -15 46 -20 46 -5 0 23 31
625 40 781 14 233 36 664 55 1045 8 171 17 329 19 353 3 40 2 42 -23 42 l-27
0 -13 -257z"/>
<path d="M2060 3854 c-58 -13 -127 -29 -155 -37 l-50 -13 -92 -184 c-50 -102
-92 -188 -92 -192 -1 -5 4 -8 11 -8 6 0 8 3 5 7 -4 3 2 12 13 20 11 8 20 20
20 26 0 7 9 20 20 30 11 9 20 24 20 32 0 8 5 15 10 15 6 0 16 12 22 26 8 18
17 24 31 20 11 -3 21 2 25 12 3 9 21 31 39 50 18 18 33 39 33 46 0 13 20 26
41 26 5 0 9 -16 9 -35 0 -24 5 -35 15 -35 8 0 15 5 15 10 0 6 11 10 25 10 23
0 25 -3 19 -27 l-6 -28 20 20 c22 22 132 210 132 225 0 13 -8 12 -130 -16z
m-223 -246 c-3 -8 -6 -5 -6 6 -1 11 2 17 5 13 3 -3 4 -12 1 -19z"/>
<path d="M2198 3763 c-68 -148 -75 -168 -73 -199 2 -25 -1 -30 -19 -30 -15 1
-28 -14 -52 -62 -17 -34 -29 -64 -25 -66 3 -1 20 -2 36 -1 29 2 30 3 33 58 3
62 9 68 38 36 14 -15 26 -19 47 -15 28 6 28 6 25 -41 -3 -47 -3 -47 32 -54 19
-4 72 -10 117 -14 l83 -6 11 28 c13 34 29 45 45 32 8 -6 19 -7 31 -1 142 72
176 68 153 -18 -8 -29 -8 -46 -1 -53 9 -9 171 -24 171 -16 0 11 -170 423 -177
430 -5 5 -74 18 -153 29 -80 11 -172 24 -205 30 -33 5 -65 10 -70 10 -6 0 -27
-35 -47 -77z m-8 -222 c15 -30 12 -45 -6 -27 -8 9 -20 14 -25 11 -10 -7 -12
18 -2 28 11 12 22 8 33 -12z"/>
<path d="M5113 3720 c0 -25 2 -35 4 -22 2 12 2 32 0 45 -2 12 -4 2 -4 -23z"/>
<path d="M3566 3494 c-4 -10 -1 -14 6 -12 15 5 23 28 10 28 -5 0 -13 -7 -16
-16z"/>
<path d="M2126 3424 c-7 -18 21 -31 36 -16 7 7 4 13 -10 21 -16 8 -21 7 -26
-5z"/>
<path d="M2580 3379 c0 -11 5 -17 10 -14 6 3 10 13 10 21 0 8 -4 14 -10 14 -5
0 -10 -9 -10 -21z"/>
<path d="M4258 3234 c-2 -33 1 -48 10 -52 19 -7 32 16 32 61 0 30 -4 37 -19
37 -15 0 -20 -9 -23 -46z"/>
<path d="M5157 3254 c-10 -13 -17 -35 -15 -47 2 -18 9 -22 38 -22 28 0 37 5
48 28 12 25 12 31 -4 48 -23 26 -45 24 -67 -7z"/>
<path d="M986 3245 c-8 -23 -8 -35 3 -35 13 0 23 32 13 42 -6 6 -12 3 -16 -7z"/>
<path d="M4567 3223 c-14 -13 -7 -63 8 -63 8 0 15 5 15 10 0 6 5 10 10 10 6 0
10 -7 10 -15 0 -8 5 -15 10 -15 15 0 12 11 -10 48 -20 32 -30 38 -43 25z"/>
<path d="M3950 3210 c0 -5 5 -10 10 -10 6 0 10 5 10 10 0 6 -4 10 -10 10 -5 0
-10 -4 -10 -10z"/>
<path d="M4493 3203 c-19 -7 -17 -63 2 -63 10 0 15 11 15 35 0 19 -1 35 -2 34
-2 0 -9 -3 -15 -6z"/>
<path d="M3652 3135 c1 -10 9 -20 16 -21 7 -1 8 0 2 3 -5 2 -8 9 -5 13 3 5 0
12 -6 15 -7 5 -10 1 -7 -10z"/>
<path d="M4871 2978 c-12 -19 -11 -23 5 -35 11 -8 33 -13 49 -11 25 3 30 7 27
27 -3 30 0 27 -37 35 -24 5 -33 2 -44 -16z"/>
<path d="M2360 2975 c-16 -19 0 -19 26 0 16 12 16 14 3 15 -9 0 -22 -7 -29
-15z"/>
<path d="M3340 2981 c-19 -5 -25 -14 -25 -36 0 -23 6 -32 28 -39 39 -14 62 2
62 45 0 37 -16 44 -65 30z"/>
<path d="M4410 2971 c-14 -27 -14 -27 17 -56 31 -28 32 -28 51 -16 10 6 7 17
-14 49 -31 47 -39 50 -54 23z"/>
<path d="M4170 2941 c0 -30 17 -34 22 -6 4 17 1 25 -8 25 -8 0 -14 -9 -14 -19z"/>
<path d="M2347 2933 c-13 -12 -7 -23 12 -23 10 0 24 7 31 15 10 13 9 15 -12
15 -14 0 -28 -3 -31 -7z"/>
<path d="M2390 2800 c0 -5 5 -10 11 -10 5 0 7 5 4 10 -3 6 -8 10 -11 10 -2 0
-4 -4 -4 -10z"/>
<path d="M3486 2751 c-4 -7 -5 -23 -2 -37 9 -33 61 -35 69 -2 4 12 4 24 2 27
-3 2 -5 -1 -5 -7 0 -19 -20 -14 -39 10 -13 15 -20 18 -25 9z"/>
<path d="M5108 2709 c-43 -52 -99 -77 -153 -68 -22 3 -32 7 -22 8 34 2 6 21
-32 21 -42 0 -91 -38 -91 -70 0 -9 -10 -25 -21 -36 -12 -10 -35 -39 -52 -63
-29 -42 -31 -43 -39 -22 -12 33 -52 25 -56 -11 -2 -20 2 -28 19 -33 13 -5 25
-2 31 6 7 10 8 8 3 -6 -13 -35 -32 -124 -29 -128 2 -2 5 -24 5 -48 1 -24 8
-56 15 -71 8 -15 14 -57 14 -94 0 -37 5 -83 12 -101 14 -39 3 -53 -44 -53 -16
0 -28 -5 -28 -11 0 -5 8 -9 18 -8 34 3 42 -1 42 -22 0 -20 -4 -21 -55 -14 -45
5 -55 4 -55 -9 0 -10 15 -18 43 -23 36 -7 42 -12 45 -37 3 -25 1 -27 -20 -21
-13 4 -34 18 -49 31 -28 27 -77 32 -85 9 -4 -10 -14 -13 -30 -9 -18 5 -24 2
-24 -9 0 -9 8 -18 18 -22 22 -7 82 -62 82 -75 0 -5 3 -10 8 -10 4 0 22 -12 40
-27 96 -83 233 -171 282 -182 50 -11 169 -24 215 -23 17 0 74 0 128 1 61 1 97
5 97 12 0 6 -15 8 -44 4 -25 -4 -52 -2 -63 4 -11 5 -62 13 -114 15 -52 3 -123
7 -160 9 -75 5 -97 15 -156 68 -24 22 -47 39 -52 39 -33 0 -211 155 -211 184
0 3 13 6 28 6 22 0 30 -7 39 -30 7 -18 18 -30 29 -30 32 0 113 -63 123 -95 6
-20 10 -23 10 -11 1 18 3 18 29 -6 15 -14 36 -30 47 -36 21 -10 188 -32 290
-37 33 -2 78 -6 100 -10 34 -5 37 -4 21 6 -29 18 -83 29 -171 35 -44 3 -81 7
-83 9 -2 1 18 15 43 30 47 27 52 28 160 12 11 -1 30 -8 42 -15 31 -17 39 -15
19 6 -9 11 -41 25 -71 32 -30 7 -55 16 -55 20 0 4 11 17 25 30 23 22 29 23 57
12 18 -6 34 -10 36 -7 3 2 -7 9 -22 15 -21 8 -25 14 -20 34 4 17 0 28 -13 37
-11 8 -27 25 -37 39 l-18 25 5 -24 c6 -25 -24 -60 -84 -95 -31 -18 -31 -18
-25 2 9 27 -25 48 -53 32 -26 -13 -91 -13 -91 1 0 6 9 9 20 6 12 -3 24 1 30
11 7 13 9 13 10 3 0 -8 3 -12 6 -9 12 13 -17 47 -46 53 -17 4 -28 10 -25 15 3
5 0 12 -5 15 -7 5 -5 12 7 21 15 11 15 13 2 8 -10 -3 -19 -1 -22 4 -8 11 33
122 45 122 15 0 25 -43 20 -89 -4 -40 6 -60 29 -61 7 0 22 40 20 53 -1 4 7 7
16 7 23 0 83 36 83 50 0 5 -11 10 -25 10 -35 0 -31 16 8 30 30 10 31 12 12 22
-28 16 -36 30 -23 45 6 7 8 26 5 42 -5 23 -2 30 18 39 36 17 85 -3 85 -33 0
-13 6 -30 13 -37 25 -24 38 -57 32 -81 -6 -21 -3 -23 29 -24 24 -1 35 4 38 16
7 25 -2 40 -20 34 -10 -3 -13 -2 -6 4 25 20 64 82 64 101 0 11 9 27 20 35 12
8 23 31 27 53 3 22 14 50 25 63 10 13 18 31 18 40 0 21 -68 131 -81 131 -5 0
-9 8 -9 18 0 20 -46 59 -103 87 -54 27 -59 45 -13 45 38 0 61 25 50 54 -7 17
-64 46 -92 46 -12 0 -35 -18 -54 -41z m242 -277 c0 -7 4 -11 9 -8 5 3 8 -5 7
-19 0 -14 -2 -25 -3 -25 -6 0 -43 80 -43 92 0 16 29 -23 30 -40z m-620 -659
c0 -18 -17 -16 -24 3 -8 22 4 40 15 23 5 -8 9 -20 9 -26z m285 -43 c-3 -5 -11
-10 -16 -10 -6 0 -7 5 -4 10 3 6 11 10 16 10 6 0 7 -4 4 -10z"/>
<path d="M3822 2678 c-17 -17 -15 -35 6 -40 13 -4 17 2 19 24 2 30 -6 35 -25
16z"/>
<path d="M4318 2638 c6 -6 18 -8 28 -6 14 3 12 5 -9 10 -19 3 -25 2 -19 -4z"/>
<path d="M4279 2622 c27 -24 30 -25 49 -13 10 6 7 10 -11 15 -14 3 -33 9 -44
13 -14 5 -12 1 6 -15z"/>
<path d="M1817 2529 c8 -8 16 -8 30 0 16 9 14 10 -11 11 -22 0 -27 -3 -19 -11z"/>
<path d="M3663 2528 c-30 -39 -20 -88 18 -88 25 0 33 21 25 65 -7 36 -26 45
-43 23z"/>
<path d="M1825 2500 c-18 -6 -18 -8 4 -19 12 -7 30 -9 39 -5 9 4 21 6 25 5 5
-1 6 3 3 8 -8 12 -49 19 -71 11z"/>
<path d="M1775 2490 c3 -5 11 -10 16 -10 6 0 7 5 4 10 -3 6 -11 10 -16 10 -6
0 -7 -4 -4 -10z"/>
<path d="M1860 2436 c0 -10 28 -13 41 -5 10 6 7 9 -13 9 -16 0 -28 -2 -28 -4z"/>
<path d="M2091 2344 c-16 -37 -14 -46 9 -34 20 11 27 44 11 54 -4 3 -13 -6
-20 -20z"/>
<path d="M1340 2272 c0 -14 43 -23 54 -12 7 7 4 10 -6 10 -9 0 -23 3 -32 6 -9
3 -16 2 -16 -4z"/>
<path d="M4237 2263 c-4 -3 -7 -11 -7 -17 0 -6 5 -5 12 2 6 6 9 14 7 17 -3 3
-9 2 -12 -2z"/>
<path d="M0 2240 c0 -13 5 -20 13 -17 6 2 12 10 12 17 0 7 -6 15 -12 18 -8 2
-13 -5 -13 -18z"/>
<path d="M55 2249 c-12 -18 27 -25 105 -20 73 5 82 8 64 18 -22 13 -162 15
-169 2z"/>
<path d="M4242 2216 c-37 -37 -41 -45 -28 -53 30 -17 126 -115 126 -129 0 -11
22 -13 111 -10 61 3 114 7 117 10 11 12 102 6 102 -6 0 -9 4 -8 10 2 15 23 13
26 -26 27 -19 1 -43 8 -53 17 -10 9 -35 19 -54 23 -24 3 -39 12 -42 24 -7 20
-25 26 -25 9 0 -6 -8 -5 -20 2 -11 7 -20 17 -20 21 0 5 -11 22 -25 39 -22 26
-26 27 -31 11 -10 -34 -33 -68 -46 -70 -7 -2 -25 14 -39 35 -20 29 -24 43 -18
65 4 15 7 27 6 27 -1 0 -22 -20 -45 -44z m128 -172 c0 -8 -4 -12 -10 -9 -5 3
-10 10 -10 16 0 5 5 9 10 9 6 0 10 -7 10 -16z"/>
<path d="M1350 2210 c-8 -5 -12 -12 -9 -15 8 -8 39 5 39 16 0 11 -11 11 -30
-1z"/>
<path d="M4290 2210 c0 -5 5 -10 11 -10 5 0 7 5 4 10 -3 6 -8 10 -11 10 -2 0
-4 -4 -4 -10z"/>
<path d="M48 2133 l-48 -4 0 -125 0 -124 61 0 60 0 -2 118 c-2 117 -5 144 -18
140 -3 -1 -27 -3 -53 -5z"/>
<path d="M146 2045 c-7 -116 3 -367 16 -380 7 -7 9 49 5 173 l-6 184 49 52
c28 29 50 56 50 59 0 4 -24 6 -54 4 l-53 -2 -7 -90z"/>
<path d="M2577 2134 c-8 -8 1 -24 14 -24 5 0 9 7 9 15 0 15 -12 20 -23 9z"/>
<path d="M2616 2125 c-3 -9 -6 -24 -5 -33 0 -9 5 -4 10 12 9 32 6 48 -5 21z"/>
<path d="M5306 2084 c-3 -9 -6 -23 -6 -32 0 -14 4 -13 21 5 12 11 18 26 15 32
-10 16 -23 14 -30 -5z"/>
<path d="M2090 2080 c0 -5 5 -10 10 -10 6 0 10 5 10 10 0 6 -4 10 -10 10 -5 0
-10 -4 -10 -10z"/>
<path d="M2555 2079 c4 -5 0 -18 -8 -27 -17 -20 -40 -62 -33 -62 6 0 66 86 66
94 0 3 -7 6 -16 6 -8 0 -12 -5 -9 -11z"/>
<path d="M1450 2055 c-3 -51 -8 -69 -25 -81 -14 -11 -14 -12 1 -18 8 -3 17 -6
19 -6 7 0 17 109 12 122 -3 7 -6 0 -7 -17z"/>
<path d="M2590 2050 c-6 -11 -7 -20 -2 -20 6 0 12 9 15 20 3 11 3 20 1 20 -2
0 -8 -9 -14 -20z"/>
<path d="M1750 2021 c0 -6 4 -13 10 -16 6 -3 7 1 4 9 -7 18 -14 21 -14 7z"/>
<path d="M2382 1974 c-36 -18 -10 -26 34 -10 35 12 36 13 14 17 -14 3 -36 0
-48 -7z"/>
<path d="M3250 1965 c-6 -8 -15 -30 -20 -48 l-7 -34 48 0 c46 0 48 1 43 22 -3
13 -1 26 5 30 16 9 3 25 -20 25 -10 0 -19 5 -19 10 0 15 -16 12 -30 -5z"/>
<path d="M3115 1900 c13 -40 58 -101 68 -91 6 6 4 16 -7 26 -9 9 -16 22 -16
30 0 7 -7 15 -15 19 -8 3 -15 12 -15 21 0 8 -5 15 -11 15 -6 0 -8 -9 -4 -20z"/>
<path d="M3365 1910 c-3 -5 -1 -10 4 -10 6 0 11 5 11 10 0 6 -2 10 -4 10 -3 0
-8 -4 -11 -10z"/>
<path d="M1440 1855 c0 -30 3 -55 6 -55 5 0 45 19 52 25 4 4 -47 85 -53 85 -3
0 -5 -25 -5 -55z"/>
<path d="M1513 1865 c2 -24 7 -31 27 -34 36 -5 75 -35 93 -73 14 -29 14 -33
-1 -45 -15 -11 -11 -12 25 -13 23 0 45 5 48 11 4 5 -21 37 -55 70 -51 49 -67
59 -96 59 -19 0 -33 3 -31 8 3 4 1 16 -4 27 -7 16 -8 15 -6 -10z"/>
<path d="M3222 1840 c0 -14 2 -19 5 -12 2 6 2 18 0 25 -3 6 -5 1 -5 -13z"/>
<path d="M23 1843 c-13 -2 -23 -9 -23 -15 0 -6 13 -8 34 -4 63 12 69 3 61 -86
-7 -75 -6 -80 11 -76 16 3 19 14 21 73 2 105 -2 115 -46 114 -20 -1 -46 -4
-58 -6z"/>
<path d="M3300 1840 c0 -5 5 -10 10 -10 6 0 10 5 10 10 0 6 -4 10 -10 10 -5 0
-10 -4 -10 -10z"/>
<path d="M2970 1831 c0 -5 5 -13 10 -16 6 -3 10 -2 10 4 0 5 -4 13 -10 16 -5
3 -10 2 -10 -4z"/>
<path d="M1212 1800 c0 -14 2 -19 5 -12 2 6 2 18 0 25 -3 6 -5 1 -5 -13z"/>
<path d="M5406 1779 c-3 -17 -6 -53 -6 -79 0 -27 -5 -50 -11 -52 -7 -2 -7 -22
1 -63 6 -33 11 -70 11 -82 -1 -12 7 -27 17 -32 25 -14 46 -140 47 -285 0 -110
2 -120 20 -126 11 -4 23 -6 28 -3 4 2 7 -1 7 -7 0 -6 5 -8 10 -5 6 4 10 -15
10 -49 0 -50 -2 -56 -21 -56 -35 0 -16 -24 30 -37 48 -14 84 -7 59 11 -13 10
-12 25 3 126 24 159 57 327 71 366 11 30 31 44 67 44 9 0 10 -4 4 -12 -6 -7
-13 -38 -17 -68 -3 -30 -17 -103 -30 -161 -14 -59 -28 -127 -31 -153 l-7 -46
33 0 c19 0 63 5 99 11 36 5 92 14 125 19 105 15 159 31 177 53 15 18 18 44 18
160 l0 137 -35 0 c-19 0 -35 5 -35 10 0 6 -10 15 -22 20 -18 7 -10 9 37 10
102 3 24 18 -98 19 -107 1 -134 12 -59 25 22 3 52 13 68 21 l29 15 -25 1 c-17
1 -12 5 20 13 l45 12 -43 17 c-23 9 -51 17 -62 17 -11 0 -20 4 -20 9 0 9 120
31 169 31 20 0 31 5 31 14 0 16 -3 17 -230 41 -229 24 -247 28 -280 61 -18 19
-55 39 -102 54 -40 13 -78 25 -84 27 -6 2 -14 -10 -18 -28z m218 -220 c-10
-16 -24 -9 -24 12 0 18 2 19 15 9 8 -7 12 -16 9 -21z m376 -25 c0 -2 -7 -4
-15 -4 -8 0 -15 4 -15 10 0 5 7 7 15 4 8 -4 15 -8 15 -10z m-410 -358 c0 -96
-10 -138 -23 -102 -8 21 5 206 14 206 5 0 9 -47 9 -104z"/>
<path d="M3064 1764 c4 -16 19 -39 34 -52 59 -51 72 -65 73 -81 0 -10 4 -8 10
8 15 37 3 57 -63 108 l-61 47 7 -30z"/>
<path d="M1375 1762 c-46 -29 -60 -51 -60 -98 0 -24 -7 -49 -14 -56 -11 -11
-13 -9 -8 12 3 15 0 33 -9 44 -13 18 -14 16 -14 -25 l0 -44 -40 -1 c-33 -1
-41 2 -45 20 -2 11 -6 30 -8 41 -3 11 -5 4 -6 -15 -1 -25 -9 -40 -28 -56 -16
-12 -25 -25 -21 -29 3 -3 32 -9 64 -11 32 -3 62 -10 65 -16 4 -6 5 -29 3 -52
l-5 -41 18 35 c10 19 23 38 29 42 6 4 10 19 8 34 -2 23 0 25 21 20 13 -3 27
-2 30 4 3 5 15 10 26 10 14 0 19 7 19 29 0 17 5 33 11 37 6 3 8 17 5 30 -4 15
0 34 10 49 17 25 14 28 -21 26 -20 -2 -20 -1 -1 14 27 21 7 19 -29 -3z"/>
<path d="M4426 1745 c-4 -11 1 -15 17 -15 28 -1 103 -67 113 -100 7 -24 6 -24
-17 -7 -13 9 -34 24 -47 33 -28 20 -112 32 -112 15 0 -6 17 -14 39 -17 45 -7
109 -41 125 -66 8 -13 7 -23 -2 -39 -7 -11 -10 -29 -7 -40 4 -12 2 -19 -7 -19
-7 0 -21 -12 -30 -27 l-16 -26 -16 31 c-20 39 -61 68 -129 90 -39 13 -60 16
-75 9 -34 -16 -26 -29 13 -21 52 9 117 -19 161 -69 30 -36 34 -47 29 -77 -4
-24 -3 -31 4 -21 7 11 10 6 13 -20 2 -19 6 -32 10 -29 3 3 17 -4 30 -16 13
-11 43 -33 67 -49 24 -16 54 -45 66 -65 71 -110 197 -172 342 -167 76 2 56 20
-27 22 -66 2 -202 54 -244 93 -15 15 -45 54 -66 87 -21 33 -54 69 -72 79 -46
27 -78 63 -72 81 5 13 12 12 43 -7 20 -12 46 -33 58 -47 14 -16 22 -21 23 -12
0 12 3 12 18 -1 28 -24 283 -121 332 -126 25 -2 51 -9 58 -15 9 -7 16 -7 24 1
7 7 23 12 38 12 24 1 24 1 6 15 -11 8 -28 13 -37 10 -10 -3 -20 -1 -24 5 -3 5
-17 10 -29 10 -13 0 -46 7 -72 15 -27 8 -83 24 -124 36 -103 31 -199 80 -236
123 -17 19 -33 33 -36 31 -2 -2 -4 5 -4 15 0 11 6 20 14 20 7 0 10 -5 6 -12
-4 -6 -3 -8 3 -5 6 4 40 -9 75 -29 165 -94 370 -161 405 -132 14 11 15 9 8
-22 -7 -34 -7 -35 12 -17 14 12 30 16 51 12 18 -3 47 -7 65 -10 l32 -5 -23 20
c-13 10 -43 22 -67 26 -50 7 -54 13 -24 40 18 16 23 16 42 4 12 -8 45 -17 72
-20 28 -4 59 -11 70 -15 17 -8 18 -7 7 7 -7 8 -30 18 -52 21 -22 3 -47 12 -55
21 -21 21 -91 21 -99 1 -3 -8 -14 -15 -25 -15 -11 0 -21 -4 -23 -9 -8 -23
-144 8 -257 59 -142 64 -189 94 -197 124 -14 58 -2 57 91 -6 124 -84 187 -113
275 -128 41 -7 80 -16 85 -21 18 -14 65 34 58 60 l-6 22 -19 -21 c-15 -16 -23
-18 -38 -10 -10 5 -43 10 -73 10 -30 0 -69 5 -88 12 -34 11 -44 17 -131 76
-25 18 -49 32 -53 32 -7 0 -62 38 -92 64 -13 11 -23 29 -23 40 -1 14 -21 35
-64 64 -68 46 -81 50 -90 27z"/>
<path d="M3433 1722 c-3 -15 -13 -19 -36 -18 -27 1 -32 -3 -35 -24 -2 -14 -7
-34 -13 -45 -6 -12 -9 -45 -7 -75 3 -51 5 -55 29 -58 20 -2 25 1 24 17 -1 11
-10 31 -20 43 -11 13 -13 17 -5 11 23 -21 30 -15 30 27 0 22 5 40 11 40 6 0
10 -28 8 -77 -1 -43 1 -79 5 -80 24 -10 31 0 28 42 -2 26 3 62 11 84 19 47 16
72 -9 82 -10 4 -13 8 -6 8 15 1 16 27 1 36 -6 4 -13 -2 -16 -13z"/>
<path d="M1442 1641 c-6 -16 -8 -32 -5 -35 4 -3 2 -6 -3 -6 -14 0 -15 -100 -2
-127 16 -32 46 -30 46 2 0 17 -6 25 -18 25 -19 0 -30 17 -23 37 2 7 12 9 20 6
14 -6 14 -8 -3 -14 -16 -6 -15 -8 8 -8 26 -1 27 1 17 26 -7 18 -6 30 1 37 11
11 13 46 4 70 -10 25 -31 19 -42 -13z"/>
<path d="M4346 1621 c-3 -5 11 -12 32 -16 20 -3 57 -18 81 -32 57 -33 43 -10
-17 28 -46 29 -86 37 -96 20z"/>
<path d="M5310 1625 c0 -15 18 -40 24 -34 3 3 -1 14 -9 25 -8 10 -14 15 -15 9z"/>
<path d="M1535 1600 c-3 -5 -5 -39 -4 -75 2 -59 4 -65 23 -65 12 0 27 4 34 9
10 6 8 10 -9 14 -18 5 -21 9 -12 18 10 10 9 15 -3 23 -8 7 -16 28 -17 49 -2
40 -3 42 -12 27z"/>
<path d="M1870 1582 c0 -5 9 -17 20 -27 22 -20 26 -14 10 16 -11 19 -30 26
-30 11z"/>
<path d="M4218 1503 c-37 -9 -16 -20 30 -16 41 4 53 1 97 -29 27 -18 60 -48
72 -67 14 -21 23 -28 23 -18 0 24 -67 95 -111 118 -36 18 -73 22 -111 12z"/>
<path d="M2019 1433 c-5 -14 -8 -27 -6 -29 2 -2 26 -8 53 -13 27 -5 57 -13 67
-17 17 -6 18 -5 6 14 -8 12 -26 26 -41 31 -16 6 -28 14 -28 19 0 5 -9 12 -21
15 -15 4 -23 -1 -30 -20z"/>
<path d="M5137 1434 c-13 -13 5 -24 41 -24 34 0 35 1 16 15 -20 15 -46 19 -57
9z"/>
<path d="M3066 1360 c-6 -59 -5 -75 9 -90 9 -10 15 -24 14 -32 -4 -29 2 -33
42 -30 31 3 39 8 34 20 -3 8 2 23 10 32 12 13 15 35 13 86 l-3 69 -50 -1 c-27
-1 -53 3 -56 8 -3 5 -9 -23 -13 -62z"/>
<path d="M3340 1409 c0 -14 7 -19 25 -19 32 0 32 12 0 27 -22 10 -25 9 -25 -8z"/>
<path d="M3937 1423 c-4 -3 -7 -11 -7 -17 0 -6 5 -5 12 2 6 6 9 14 7 17 -3 3
-9 2 -12 -2z"/>
<path d="M5245 1400 c19 -8 93 -14 84 -6 -2 2 -26 6 -54 9 -32 4 -43 3 -30 -3z"/>
<path d="M3409 1344 c-1 -33 -2 -74 -4 -92 -2 -29 0 -33 19 -30 18 3 23 14 33
83 7 43 11 80 10 81 -1 1 -14 5 -30 9 l-27 7 -1 -58z"/>
<path d="M3815 1390 c17 -4 39 -8 50 -8 l20 -1 -20 9 c-11 5 -33 8 -50 8 l-30
0 30 -8z"/>
<path d="M2951 1320 c-14 -64 -15 -60 10 -60 18 0 20 5 18 55 -1 30 -6 55 -10
55 -4 0 -12 -23 -18 -50z"/>
<path d="M3558 1356 c-12 -9 -18 -27 -18 -53 0 -39 1 -39 50 -52 50 -13 63
-27 36 -37 -13 -5 -36 -53 -36 -74 0 -4 9 -10 20 -13 16 -4 20 0 20 19 0 14 7
36 16 50 17 26 31 27 146 8 25 -4 42 -2 52 7 7 8 32 29 54 48 44 37 45 51 5
51 -19 0 -24 -4 -19 -16 9 -25 -11 -53 -34 -47 -16 4 -20 14 -20 43 l0 37
-107 17 c-60 10 -117 19 -128 22 -11 2 -28 -2 -37 -10z"/>
<path d="M4057 1340 c-17 -13 -24 -27 -20 -37 5 -13 0 -14 -33 -9 -37 6 -42 3
-96 -50 -32 -31 -58 -57 -58 -59 0 -1 37 -8 83 -15 100 -14 117 -19 117 -30 0
-5 -10 -10 -22 -12 -21 -3 -23 -9 -26 -66 -2 -45 -7 -65 -18 -69 -11 -4 -12
-8 -4 -13 7 -4 13 -32 13 -61 2 -41 8 -60 25 -79 25 -27 27 -37 10 -42 -21 -7
2 -27 42 -38 56 -15 170 -28 170 -19 0 4 -27 10 -60 14 -35 4 -69 15 -83 26
-19 16 -19 18 -4 19 11 0 17 8 17 25 0 31 -15 33 -25 3 -5 -19 -9 -11 -21 37
-21 84 -29 165 -17 165 6 0 18 32 28 72 24 100 34 118 63 118 23 0 92 -58 92
-77 0 -6 -11 -23 -25 -39 -14 -16 -24 -38 -24 -49 2 -17 2 -17 6 3 4 18 11 22
43 22 41 0 59 15 41 33 -6 6 -11 18 -11 28 0 64 -155 140 -198 97 -8 -8 -12
-8 -12 -1 0 6 6 16 14 23 8 6 12 18 9 26 -3 8 2 25 11 39 27 41 15 48 -27 15z"/>
<path d="M4094 1306 c-26 -19 -13 -29 21 -16 42 16 99 -4 150 -54 53 -50 58
-47 13 8 -52 63 -141 93 -184 62z"/>
<path d="M4430 1295 c0 -15 7 -39 15 -56 9 -16 13 -35 9 -41 -4 -6 -3 -8 3 -5
14 9 23 -27 12 -44 -8 -11 -11 -10 -20 4 -10 18 -13 17 -40 -9 -16 -15 -29
-36 -29 -45 0 -25 11 -49 22 -49 10 0 27 -7 130 -54 31 -14 63 -26 70 -26 7 0
44 -11 81 -25 66 -24 68 -24 80 -5 6 11 20 20 30 20 10 0 24 6 31 13 10 10 2
17 -43 36 -89 39 -161 89 -154 108 5 12 2 15 -10 10 -21 -8 -97 22 -97 39 0 7
-3 20 -7 30 -6 16 -4 16 25 -2 34 -20 39 -29 20 -37 -7 -3 -3 -6 9 -6 12 -1
24 -7 27 -13 3 -7 3 -2 0 12 -4 21 3 16 47 -29 29 -29 69 -62 88 -74 51 -28
158 -67 165 -60 12 13 5 21 -24 27 -80 16 -164 72 -227 153 -18 22 -53 50 -77
62 -25 11 -48 26 -52 33 -5 8 -9 6 -14 -8 -6 -16 -10 -12 -29 24 -24 47 -41
54 -41 17z m168 -231 c12 -8 20 -19 17 -24 -3 -4 1 -11 7 -13 8 -4 7 -6 -4 -6
-9 -1 -26 13 -38 29 -24 33 -17 39 18 14z"/>
<path d="M1485 1270 c4 -6 11 -8 16 -5 14 9 11 15 -7 15 -8 0 -12 -5 -9 -10z"/>
<path d="M4660 1268 c0 -20 40 -62 77 -82 69 -35 259 -96 303 -96 54 0 111
-38 138 -90 24 -49 30 -39 8 14 -18 42 -68 81 -126 96 -25 7 -47 16 -50 20 -3
4 -54 23 -115 40 -141 42 -174 56 -207 88 -21 19 -28 22 -28 10z"/>
<path d="M960 1243 c0 -5 14 -23 31 -40 26 -28 29 -38 23 -68 -7 -38 10 -50
21 -15 4 11 15 20 26 20 17 0 19 -6 15 -47 -3 -36 -8 -48 -20 -47 -36 4 2 -54
47 -69 10 -4 15 -11 12 -17 -3 -5 26 2 65 16 62 23 75 25 98 14 l27 -13 -27
-9 c-17 -6 -28 -17 -28 -28 0 -10 -7 -25 -15 -33 -13 -13 -12 -17 8 -30 12 -8
32 -34 45 -56 18 -34 20 -41 7 -41 -18 0 -19 -9 -1 -32 11 -15 29 -18 100 -18
71 0 98 5 148 26 34 14 74 39 89 55 15 16 32 29 38 29 6 0 11 9 11 20 0 26 -8
25 -29 -2 -19 -23 -18 -23 -66 20 -7 6 -23 12 -34 12 -12 0 -21 6 -21 15 0 10
11 15 35 15 19 0 35 -4 35 -10 0 -14 26 -12 38 3 6 6 14 25 17 40 l7 28 -54
-5 c-30 -3 -61 -8 -70 -11 -21 -8 -35 14 -17 26 19 12 -6 12 -29 0 -9 -4 -31
-4 -49 1 -39 10 -36 32 14 85 20 23 29 39 22 42 -6 2 -16 -4 -21 -13 -7 -13
-17 -16 -41 -11 -48 11 -54 23 -14 30 34 7 35 8 25 31 -7 14 -17 23 -25 20
-16 -7 -44 4 -38 14 7 12 -82 21 -107 11 -13 -5 -43 -30 -67 -54 -41 -42 -43
-49 -38 -87 3 -28 2 -40 -6 -37 -6 2 -12 22 -13 45 -2 33 -10 50 -38 78 -20
20 -36 42 -36 50 0 7 -11 16 -25 20 -13 3 -29 12 -36 20 -12 15 -39 19 -39 7z
m149 -185 c-17 -31 -23 -9 -8 28 9 22 13 25 16 12 2 -9 -1 -27 -8 -40z m331
-94 c0 -8 -4 -12 -10 -9 -5 3 -10 10 -10 16 0 5 5 9 10 9 6 0 10 -7 10 -16z
m-66 -20 c8 -22 9 -21 -25 -33 -45 -15 -59 -14 -59 7 0 11 12 22 33 29 45 15
44 15 51 -3z m73 -44 c7 -10 9 -22 4 -25 -12 -7 -43 24 -36 36 9 14 19 11 32
-11z"/>
<path d="M2640 1228 c0 -25 4 -28 31 -28 18 0 28 -4 24 -10 -4 -6 -16 -10 -28
-8 -19 3 -22 -2 -25 -40 l-3 -43 53 3 53 3 3 48 c2 26 -1 47 -7 47 -5 0 -12
12 -14 28 -4 26 -5 26 -12 5 -6 -18 -11 -21 -26 -12 -10 5 -19 6 -19 2 0 -4
-7 2 -15 13 -14 18 -14 18 -15 -8z"/>
<path d="M1465 1209 c-11 -17 0 -20 21 -4 17 13 17 14 2 15 -9 0 -20 -5 -23
-11z"/>
<path d="M5215 1170 c17 -11 35 -20 40 -20 6 0 -3 9 -20 20 -16 11 -34 20 -40
20 -5 0 4 -9 20 -20z"/>
<path d="M2204 1166 c-3 -9 -4 -22 -1 -30 3 -8 3 -17 -1 -19 -4 -2 -2 -2 5 -1
18 4 35 -20 22 -33 -6 -6 0 -8 20 -5 21 3 28 8 24 19 -4 11 0 13 21 7 22 -5
26 -3 26 15 0 39 -103 81 -116 47z"/>
<path d="M3653 1143 c-45 -61 -56 -83 -39 -83 8 0 17 6 19 13 4 10 6 10 6 0 1
-15 31 -18 31 -3 0 6 7 10 15 10 18 0 20 27 3 33 -10 3 -10 7 -2 18 13 16 15
49 3 49 -4 0 -20 -17 -36 -37z"/>
<path d="M5075 1130 c3 -5 27 -10 53 -9 35 0 42 3 27 9 -28 12 -88 12 -80 0z"/>
<path d="M5195 1110 c22 -37 55 -82 55 -76 0 14 -29 63 -46 77 -16 12 -17 12
-9 -1z"/>
<path d="M2140 1070 c0 -5 -7 -7 -16 -3 -13 5 -15 -1 -12 -32 l3 -38 60 -3
c33 -2 79 -6 103 -9 37 -4 42 -2 42 15 0 12 -7 20 -17 20 -15 0 -16 2 -3 9 8
6 18 7 24 4 5 -3 6 -1 2 5 -4 7 -13 12 -21 12 -7 0 -15 6 -17 12 -3 9 -12 8
-31 -5 -15 -10 -27 -14 -27 -10 0 4 -6 -1 -13 -11 -12 -17 -14 -17 -20 -2 -4
9 -14 16 -22 16 -9 0 -14 4 -11 9 3 5 -1 11 -9 15 -8 3 -15 1 -15 -4z"/>
<path d="M3196 1052 c-2 -4 7 -9 20 -10 15 -1 22 2 19 8 -7 12 -32 13 -39 2z"/>
<path d="M4100 1031 c0 -11 -5 -23 -10 -26 -19 -12 2 -26 30 -20 21 5 31 2 38
-10 8 -15 10 -15 15 -2 4 10 -5 28 -23 46 -32 36 -50 39 -50 12z"/>
<path d="M2440 1010 c0 -5 7 -7 15 -4 8 4 15 8 15 10 0 2 -7 4 -15 4 -8 0 -15
-4 -15 -10z"/>
<path d="M2342 970 c-12 -14 -17 -30 -14 -54 l4 -35 47 3 c45 4 46 5 47 40 0
23 7 41 20 51 17 13 15 14 -33 15 -39 0 -57 -5 -71 -20z"/>
<path d="M2660 976 c0 -8 -4 -16 -9 -18 -11 -4 -19 -138 -8 -138 5 0 11 9 14
19 4 16 15 21 52 23 25 2 45 6 44 11 -2 4 -3 32 -3 62 l0 55 -45 0 c-32 0 -45
-4 -45 -14z"/>
<path d="M5110 981 c0 -6 4 -13 10 -16 6 -3 7 1 4 9 -7 18 -14 21 -14 7z"/>
<path d="M4952 953 c34 -36 68 -102 68 -130 0 -13 5 -23 10 -23 14 0 12 35 -4
74 -16 38 -73 106 -89 106 -6 0 1 -12 15 -27z"/>
<path d="M4535 940 c3 -5 10 -10 16 -10 5 0 9 5 9 10 0 6 -7 10 -16 10 -8 0
-12 -4 -9 -10z"/>
<path d="M2456 931 c-10 -16 6 -42 21 -37 8 3 17 6 19 6 3 0 0 9 -6 20 -11 21
-25 26 -34 11z"/>
<path d="M1045 920 c-3 -5 -2 -10 4 -10 5 0 13 5 16 10 3 6 2 10 -4 10 -5 0
-13 -4 -16 -10z"/>
<path d="M1916 914 c-21 -20 -30 -58 -22 -89 6 -25 9 -26 69 -23 47 2 62 7 62
18 0 11 -9 14 -32 12 -30 -3 -32 0 -39 33 -5 29 -3 39 12 50 18 14 17 14 -8
15 -15 0 -34 -7 -42 -16z"/>
<path d="M4881 915 c22 -26 48 -79 65 -129 l14 -41 -6 40 c-6 44 -43 114 -71
136 -17 13 -17 13 -2 -6z"/>
<path d="M5268 899 c-9 -16 -14 -29 -9 -29 8 0 34 50 29 56 -2 1 -11 -11 -20
-27z"/>
<path d="M4801 893 c17 -15 40 -45 50 -68 16 -35 16 -43 4 -62 -19 -28 -19
-30 4 -36 12 -3 21 -17 25 -41 10 -53 32 -41 28 15 -6 99 -74 219 -124 219
-16 0 -14 -4 13 -27z"/>
<path d="M4448 868 c0 -13 -1 -39 0 -58 1 -19 -2 -47 -7 -62 -13 -38 -1 -44
104 -57 80 -10 91 -9 102 5 9 13 16 14 26 6 10 -8 16 -6 25 9 11 17 9 19 -10
20 -13 1 -30 1 -39 0 -10 -1 -19 14 -28 49 -14 54 -8 76 13 47 17 -22 26 -22
26 2 0 11 5 23 10 26 8 5 7 11 -1 21 -14 17 -39 19 -39 3 0 -7 -10 -9 -25 -5
-21 5 -25 3 -25 -14 0 -11 -7 -23 -15 -26 -23 -9 -18 -38 8 -49 31 -14 28 -39
-5 -43 l-28 -3 0 75 c0 73 -12 98 -25 56 -3 -11 -13 -20 -21 -20 -8 0 -14 -6
-14 -14 0 -8 -4 -17 -9 -20 -5 -4 -7 12 -5 34 2 22 -1 40 -6 40 -6 0 -11 -10
-12 -22z m50 -85 c2 -8 -5 -13 -17 -13 -12 0 -21 6 -21 16 0 18 31 15 38 -3z"/>
<path d="M2270 869 c0 -7 8 -18 18 -25 25 -19 -7 -19 -34 0 -19 14 -22 13 -38
-22 -17 -36 -17 -37 3 -53 12 -10 27 -19 34 -22 9 -4 9 -7 0 -18 -7 -7 -13
-17 -13 -21 0 -4 6 -8 13 -8 6 0 23 -6 37 -13 34 -18 83 -27 96 -19 6 4 9 23
7 43 -4 29 -11 39 -38 52 -28 14 -32 20 -32 55 0 22 -3 45 -7 51 -9 14 -46 14
-46 0z m83 -176 c-7 -2 -19 -2 -25 0 -7 3 -2 5 12 5 14 0 19 -2 13 -5z"/>
<path d="M4291 864 c0 -11 3 -14 6 -6 3 7 2 16 -1 19 -3 4 -6 -2 -5 -13z"/>
<path d="M4180 848 c0 -9 5 -20 11 -23 17 -11 18 -2 3 19 -12 17 -14 17 -14 4z"/>
<path d="M2741 836 c-9 -11 -9 -16 0 -21 10 -7 28 10 29 28 0 12 -17 8 -29 -7z"/>
<path d="M2865 829 c-4 -6 -5 -13 -2 -16 7 -7 27 6 27 18 0 12 -17 12 -25 -2z"/>
<path d="M5070 818 c0 -19 2 -20 10 -8 13 19 13 30 0 30 -5 0 -10 -10 -10 -22z"/>
<path d="M4650 786 c0 -19 9 -24 30 -19 32 8 31 30 -1 31 -17 0 -29 -4 -29
-12z"/>
<path d="M4280 766 c0 -15 -7 -26 -17 -29 -14 -4 -13 -5 3 -6 21 -1 34 16 34
45 0 8 -4 14 -10 14 -5 0 -10 -11 -10 -24z"/>
<path d="M2480 696 c0 -44 3 -56 16 -56 12 0 14 10 12 52 -4 74 -28 77 -28 4z"/>
<path d="M1183 723 c-7 -2 -13 -16 -13 -30 0 -34 25 -24 26 10 1 15 1 27 0 26
-1 0 -7 -3 -13 -6z"/>
<path d="M2640 701 c0 -11 39 -25 47 -18 3 3 2 10 -2 16 -8 13 -45 15 -45 2z"/>
<path d="M1315 662 c-11 -2 -26 -9 -32 -14 -8 -6 -32 -7 -57 -4 -25 4 -47 3
-50 -2 -7 -11 147 -27 163 -17 13 7 15 32 4 38 -5 2 -17 2 -28 -1z"/>
<path d="M1893 658 c-6 -7 -14 -23 -17 -35 -4 -13 -12 -23 -17 -23 -12 0 1
-83 15 -92 16 -11 75 -9 97 3 14 7 18 16 13 27 -3 9 -12 42 -18 72 -10 48 -15
55 -37 58 -14 2 -30 -3 -36 -10z"/>
<path d="M1385 633 c-4 -16 -8 -36 -10 -46 -2 -9 5 -22 15 -27 44 -24 220 -2
220 27 0 11 -5 13 -17 8 -10 -4 -29 -10 -42 -13 -19 -4 -23 -2 -18 11 6 16
-18 29 -76 43 -15 3 -30 10 -33 15 -11 19 -34 8 -39 -18z"/>
<path d="M4815 418 c-37 -39 -106 -83 -207 -133 -72 -35 -78 -40 -83 -74 -3
-20 -13 -75 -23 -123 l-19 -88 164 0 c155 0 163 1 163 20 0 11 15 30 36 44 19
13 31 27 26 30 -5 3 -13 27 -17 53 -4 26 -14 52 -23 59 -14 10 -14 16 -4 35
28 52 63 103 57 82 -5 -17 -3 -21 8 -18 8 4 24 -10 42 -35 15 -22 32 -40 37
-40 5 0 -6 21 -25 48 -31 43 -44 66 -75 145 -15 34 -20 34 -57 -5z m-102 -278
c3 -11 1 -20 -4 -20 -5 0 -9 9 -9 20 0 11 2 20 4 20 2 0 6 -9 9 -20z m17 -49
c0 -6 -4 -13 -10 -16 -5 -3 -10 1 -10 9 0 9 5 16 10 16 6 0 10 -4 10 -9z"/>
<path d="M3817 204 c-3 -3 -30 -10 -59 -15 -48 -7 -45 -8 27 -4 44 2 91 8 105
13 22 10 20 11 -21 11 -25 1 -48 -2 -52 -5z"/>
<path d="M4230 143 c-14 -2 -63 -12 -110 -23 -181 -41 -549 -88 -745 -97 -357
-14 -280 -20 289 -22 l608 -1 -6 26 c-6 23 -5 24 14 14 12 -6 24 -18 27 -26 3
-8 12 -14 19 -14 24 0 27 28 6 55 -12 15 -26 42 -32 61 -12 34 -16 36 -70 27z
m37 -19 c-3 -3 -12 -4 -19 -1 -8 3 -5 6 6 6 11 1 17 -2 13 -5z"/>
</g>
</svg>
