<svg width="15" height="16" viewBox="0 0 15 16" fill="none" xmlns="http://www.w3.org/2000/svg">
<path d="M7.75 4.38623C9.71875 4.38623 11.3438 6.01123 11.3438 7.97998C11.3438 9.97998 9.71875 11.5737 7.75 11.5737C5.75 11.5737 4.15625 9.97998 4.15625 7.97998C4.15625 6.01123 5.75 4.38623 7.75 4.38623ZM7.75 10.3237C9.03125 10.3237 10.0625 9.29248 10.0625 7.97998C10.0625 6.69873 9.03125 5.66748 7.75 5.66748C6.4375 5.66748 5.40625 6.69873 5.40625 7.97998C5.40625 9.29248 6.46875 10.3237 7.75 10.3237ZM12.3125 4.26123C12.3125 4.72998 11.9375 5.10498 11.4688 5.10498C11 5.10498 10.625 4.72998 10.625 4.26123C10.625 3.79248 11 3.41748 11.4688 3.41748C11.9375 3.41748 12.3125 3.79248 12.3125 4.26123ZM14.6875 5.10498C14.75 6.26123 14.75 9.72998 14.6875 10.8862C14.625 12.0112 14.375 12.98 13.5625 13.8237C12.75 14.6362 11.75 14.8862 10.625 14.9487C9.46875 15.0112 6 15.0112 4.84375 14.9487C3.71875 14.8862 2.75 14.6362 1.90625 13.8237C1.09375 12.98 0.84375 12.0112 0.78125 10.8862C0.71875 9.72998 0.71875 6.26123 0.78125 5.10498C0.84375 3.97998 1.09375 2.97998 1.90625 2.16748C2.75 1.35498 3.71875 1.10498 4.84375 1.04248C6 0.97998 9.46875 0.97998 10.625 1.04248C11.75 1.10498 12.75 1.35498 13.5625 2.16748C14.375 2.97998 14.625 3.97998 14.6875 5.10498ZM13.1875 12.105C13.5625 11.1987 13.4688 9.01123 13.4688 7.97998C13.4688 6.97998 13.5625 4.79248 13.1875 3.85498C12.9375 3.26123 12.4688 2.76123 11.875 2.54248C10.9375 2.16748 8.75 2.26123 7.75 2.26123C6.71875 2.26123 4.53125 2.16748 3.625 2.54248C3 2.79248 2.53125 3.26123 2.28125 3.85498C1.90625 4.79248 2 6.97998 2 7.97998C2 9.01123 1.90625 11.1987 2.28125 12.105C2.53125 12.73 3 13.1987 3.625 13.4487C4.53125 13.8237 6.71875 13.73 7.75 13.73C8.75 13.73 10.9375 13.8237 11.875 13.4487C12.4688 13.1987 12.9688 12.73 13.1875 12.105Z" fill="#385469"/>
</svg>
