<svg width="15" height="14" viewBox="0 0 15 14" fill="none" xmlns="http://www.w3.org/2000/svg">
<path d="M3.875 13.98H0.96875V4.63623H3.875V13.98ZM2.40625 3.38623C1.5 3.38623 0.75 2.60498 0.75 1.66748C0.75 0.76123 1.5 0.0112305 2.40625 0.0112305C3.34375 0.0112305 4.09375 0.76123 4.09375 1.66748C4.09375 2.60498 3.34375 3.38623 2.40625 3.38623ZM14.7188 13.98H11.8438V9.44873C11.8438 8.35498 11.8125 6.97998 10.3125 6.97998C8.8125 6.97998 8.59375 8.13623 8.59375 9.35498V13.98H5.6875V4.63623H8.46875V5.91748H8.5C8.90625 5.19873 9.84375 4.41748 11.25 4.41748C14.1875 4.41748 14.75 6.35498 14.75 8.85498V13.98H14.7188Z" fill="#385469"/>
</svg>
