<svg width="17" height="14" viewBox="0 0 17 14" fill="none" xmlns="http://www.w3.org/2000/svg">
<path d="M15.0938 3.72998C15.0938 3.88623 15.0938 4.01123 15.0938 4.16748C15.0938 8.51123 11.8125 13.48 5.78125 13.48C3.90625 13.48 2.1875 12.9487 0.75 12.0112C1 12.0425 1.25 12.0737 1.53125 12.0737C3.0625 12.0737 4.46875 11.5425 5.59375 10.6675C4.15625 10.6362 2.9375 9.69873 2.53125 8.38623C2.75 8.41748 2.9375 8.44873 3.15625 8.44873C3.4375 8.44873 3.75 8.38623 4 8.32373C2.5 8.01123 1.375 6.69873 1.375 5.10498V5.07373C1.8125 5.32373 2.34375 5.44873 2.875 5.47998C1.96875 4.88623 1.40625 3.88623 1.40625 2.76123C1.40625 2.13623 1.5625 1.57373 1.84375 1.10498C3.46875 3.07373 5.90625 4.38623 8.625 4.54248C8.5625 4.29248 8.53125 4.04248 8.53125 3.79248C8.53125 1.97998 10 0.51123 11.8125 0.51123C12.75 0.51123 13.5938 0.88623 14.2188 1.54248C14.9375 1.38623 15.6562 1.10498 16.2812 0.72998C16.0312 1.51123 15.5312 2.13623 14.8438 2.54248C15.5 2.47998 16.1562 2.29248 16.7188 2.04248C16.2812 2.69873 15.7188 3.26123 15.0938 3.72998Z" fill="#385469"/>
</svg>
