<?xml version="1.0" encoding="UTF-8"?>
<svg version="1.1" xmlns="http://www.w3.org/2000/svg" width="500" height="500">
<path d="M0 0 C2.39165621 2.0985952 4.72320546 4.25543766 7.04150391 6.43457031 C9.03975202 8.30568682 11.07112679 10.06668887 13.18603516 11.80175781 C17.02956318 15.07419559 20.18837855 18.82532943 23.43603516 22.67675781 C24.24943359 23.60230469 25.06283203 24.52785156 25.90087891 25.48144531 C60.13780739 64.65224349 82.94765539 113.97774409 80.43603516 166.67675781 C76.03230408 223.2454913 43.66415913 275.38513129 1.62158203 312.26855469 C-5.8818216 318.54867093 -14.05860203 323.86093595 -22.56396484 328.67675781 C-23.16015625 329.01449219 -23.75634766 329.35222656 -24.37060547 329.70019531 C-44.402288 340.85920589 -68.54520603 347.2378327 -91.56396484 345.67675781 C-92.24120605 345.63953613 -92.91844727 345.60231445 -93.61621094 345.56396484 C-131.5618721 343.33762367 -168.7693641 327.49489773 -199.56396484 305.67675781 C-200.12744629 305.28004883 -200.69092773 304.88333984 -201.27148438 304.47460938 C-210.40072188 297.98983394 -218.74975282 290.69133425 -226.56396484 282.67675781 C-227.19431641 282.09152344 -227.82466797 281.50628906 -228.47412109 280.90332031 C-252.64122105 257.97228014 -267.30872789 223.06071384 -268.72509766 189.90478516 C-268.77132409 185.62023957 -268.81013178 181.33655509 -268.81396484 177.05175781 C-268.81547546 175.883414 -268.81547546 175.883414 -268.8170166 174.69146729 C-268.80577699 161.81450614 -268.0501988 149.34101203 -265.56396484 136.67675781 C-265.42474609 135.94473145 -265.28552734 135.21270508 -265.14208984 134.45849609 C-257.5866116 95.90282067 -238.44178899 62.90692531 -211.56396484 34.67675781 C-210.95037109 34.02191406 -210.33677734 33.36707031 -209.70458984 32.69238281 C-204.73596114 27.53447301 -199.16795288 23.1205452 -193.56396484 18.67675781 C-192.57396484 17.88140625 -191.58396484 17.08605469 -190.56396484 16.26660156 C-134.85041687 -27.6774594 -59.3276374 -50.19603414 0 0 Z " fill="#A648FE" transform="translate(337.56396484375,108.3232421875)"/>
<path d="M0 0 C0.66 0 1.32 0 2 0 C2.7754791 6.70267382 3.19261376 13.31553554 3.1875 20.0625 C3.1884668 21.4086438 3.1884668 21.4086438 3.18945312 22.78198242 C3.12339221 31.28357149 2.23347432 39.59695623 1 48 C0.67 46.68 0.34 45.36 0 44 C-0.66 44 -1.32 44 -2 44 C-1.67 43.01 -1.34 42.02 -1 41 C0.11038499 31.75541941 0.12600733 22.4839962 0.0625 13.1875 C0.05798828 11.91068359 0.05347656 10.63386719 0.04882812 9.31835938 C0.03719452 6.21218789 0.02085075 3.10612092 0 0 Z " fill="#BB83EA" transform="translate(415,244)"/>
<path d="M0 0 C0.495 0.99 0.495 0.99 1 2 C-0.21115479 2.029729 -0.21115479 2.029729 -1.44677734 2.06005859 C-5.08985875 2.15505899 -8.73234686 2.26483912 -12.375 2.375 C-13.64601563 2.4059375 -14.91703125 2.436875 -16.2265625 2.46875 C-17.43828125 2.50742188 -18.65 2.54609375 -19.8984375 2.5859375 C-21.57945557 2.63306885 -21.57945557 2.63306885 -23.29443359 2.68115234 C-26.14710412 2.73411203 -26.14710412 2.73411203 -28 5 C-31.0390625 4.9765625 -31.0390625 4.9765625 -34.625 4.625 C-35.81351563 4.51414062 -37.00203125 4.40328125 -38.2265625 4.2890625 C-39.59941406 4.14597656 -39.59941406 4.14597656 -41 4 C-29.5075001 -2.52795937 -12.71789744 -0.21366331 0 0 Z " fill="#BA7FEF" transform="translate(271,79)"/>
<path d="M0 0 C3.79379058 1.49041773 5.68343758 3.69062512 8 7 C8 7.66 8 8.32 8 9 C8.61875 9.2475 9.2375 9.495 9.875 9.75 C12.35068687 11.20628639 12.95125002 12.37812506 14 15 C14.99 15 15.98 15 17 15 C17.33 15.99 17.66 16.98 18 18 C20.60242414 19.64820195 21.86248779 20 25 20 C24.67 21.98 24.34 23.96 24 26 C19.81525471 22.49060265 15.8185417 18.91167687 12 15 C11.35804687 14.36835938 10.71609375 13.73671875 10.0546875 13.0859375 C2.73431932 5.87361903 2.73431932 5.87361903 0 2 C0 1.34 0 0.68 0 0 Z " fill="#A96BE9" transform="translate(98,375)"/>
<path d="M0 0 C12.54 0 25.08 0 38 0 C33.81064852 4.18935148 25.76873144 3.0655923 20.125 3.125 C2.94698953 2.94698953 2.94698953 2.94698953 0 0 Z " fill="#B57CE9" transform="translate(232,451)"/>
<path d="M0 0 C0.33 1.32 0.66 2.64 1 4 C0.360625 4.2475 -0.27875 4.495 -0.9375 4.75 C-1.618125 5.1625 -2.29875 5.575 -3 6 C-3.12375 6.598125 -3.2475 7.19625 -3.375 7.8125 C-4.22550324 10.78926132 -6.1378673 11.87020547 -8.51953125 13.703125 C-10.224859 15.05781929 -10.224859 15.05781929 -11.5625 17.6875 C-13.33532414 20.53943449 -14.84092819 21.06081649 -18 22 C-15.62026748 17.71327644 -12.74194454 14.13621125 -9.5625 10.4375 C-9.08490234 9.87353516 -8.60730469 9.30957031 -8.11523438 8.72851562 C-5.5239934 5.68940584 -2.8741806 2.77905406 0 0 Z " fill="#B271EF" transform="translate(126,143)"/>
<path d="M0 0 C0.66 0.33 1.32 0.66 2 1 C-1.625 5.875 -1.625 5.875 -5 7 C-6.81655622 8.79246864 -6.81655622 8.79246864 -8.5625 10.9375 C-10.33130568 13.03343963 -12.05994888 15.05994888 -14 17 C-14.99 17 -15.98 17 -17 17 C-17 17.66 -17 18.32 -17 19 C-18.32 18.67 -19.64 18.34 -21 18 C-14.21003284 11.70056279 -7.32046952 5.68487655 0 0 Z " fill="#B475EE" transform="translate(150,122)"/>
<path d="M0 0 C0 0.66 0 1.32 0 2 C-0.67546875 2.09796875 -1.3509375 2.1959375 -2.046875 2.296875 C-2.93890625 2.44640625 -3.8309375 2.5959375 -4.75 2.75 C-6.07257813 2.95882812 -6.07257813 2.95882812 -7.421875 3.171875 C-10.13319051 3.81289514 -10.13319051 3.81289514 -11.90625 6.03125 C-14.78229751 8.73559318 -16.86380896 8.59455236 -20.75 8.75 C-21.92046875 8.80671875 -23.0909375 8.8634375 -24.296875 8.921875 C-25.18890625 8.94765625 -26.0809375 8.9734375 -27 9 C-24.76378443 6.76378443 -23.32135971 6.26866265 -20.3515625 5.2734375 C-19.42859375 4.9640625 -18.505625 4.6546875 -17.5546875 4.3359375 C-16.58789062 4.01882812 -15.62109375 3.70171875 -14.625 3.375 C-13.6659375 3.05015625 -12.706875 2.7253125 -11.71875 2.390625 C-10.79320312 2.08382812 -9.86765625 1.77703125 -8.9140625 1.4609375 C-8.0679541 1.18040527 -7.2218457 0.89987305 -6.35009766 0.61083984 C-4 0 -4 0 0 0 Z " fill="#B679F0" transform="translate(230,83)"/>
<path d="M0 0 C3.80855205 2.12951298 6.9126008 4.55284477 10.125 7.5 C10.97320312 8.2734375 11.82140625 9.046875 12.6953125 9.84375 C14.49991876 11.53212739 16.26995271 13.23603021 18 15 C10.25 14.25 10.25 14.25 8 12 C7.87625 11.175 7.7525 10.35 7.625 9.5 C7.41875 8.675 7.2125 7.85 7 7 C5.13355094 5.81669817 5.13355094 5.81669817 3 5 C1.25 3.5 1.25 3.5 0 2 C0 1.34 0 0.68 0 0 Z " fill="#B26CF1" transform="translate(332,105)"/>
<path d="M0 0 C0 0.66 0 1.32 0 2 C-1.69491614 3.40268922 -3.457835 4.72390346 -5.25 6 C-6.22453125 6.70125 -7.1990625 7.4025 -8.203125 8.125 C-12.7781457 11.19205298 -12.7781457 11.19205298 -15 12 C-16.34345164 11.71012662 -17.67949885 11.38100604 -19 11 C-16.54259704 9.35276274 -14.08412999 7.70715536 -11.625 6.0625 C-10.92632812 5.59392578 -10.22765625 5.12535156 -9.5078125 4.64257812 C-8.50234375 3.9706543 -8.50234375 3.9706543 -7.4765625 3.28515625 C-6.85861816 2.87144775 -6.24067383 2.45773926 -5.60400391 2.03149414 C-3.59900289 0.74212895 -2.41698668 0 0 0 Z " fill="#BB82EF" transform="translate(178,105)"/>
<path d="M0 0 C0.33 0 0.66 0 1 0 C0.78911082 2.00344722 0.57393402 4.00649035 0.34375 6.0078125 C0.0812371 8.29286801 -0.1659472 10.57968968 -0.40625 12.8671875 C-0.56170176 14.22405002 -0.71795365 15.58082111 -0.875 16.9375 C-1.01679687 18.22527344 -1.15859375 19.51304687 -1.3046875 20.83984375 C-2 24 -2 24 -5 26 C-4.62265298 16.92480412 -2.51466171 8.66681081 0 0 Z " fill="#B97FED" transform="translate(77,225)"/>
<path d="M0 0 C-1.98 2.31 -3.96 4.62 -6 7 C-7.32 6.34 -8.64 5.68 -10 5 C-9.67 3.68 -9.34 2.36 -9 1 C-5.92677456 0.08941469 -3.19902639 -0.08886184 0 0 Z " fill="#AE62F3" transform="translate(347,412)"/>
<path d="M0 0 C-0.66 1.98 -1.32 3.96 -2 6 C-5.63 6.33 -9.26 6.66 -13 7 C-4.79310345 0 -4.79310345 0 0 0 Z " fill="#B576F0" transform="translate(196,95)"/>
<path d="M0 0 C3.9252025 3.70090521 6.94580156 7.54959656 10 12 C9.01 12 8.02 12 7 12 C7 11.34 7 10.68 7 10 C6.01 10 5.02 10 4 10 C3.67 9.01 3.34 8.02 3 7 C2.01 6.34 1.02 5.68 0 5 C-0.1875 2.375 -0.1875 2.375 0 0 Z " fill="#B77BEF" transform="translate(361,132)"/>
<path d="M0 0 C5.45479185 0.56820748 9.91059256 1.94637945 15 4 C13.32421875 5.109375 13.32421875 5.109375 11 6 C8.45703125 5.390625 8.45703125 5.390625 5.8125 4.25 C4.93207031 3.88390625 4.05164063 3.5178125 3.14453125 3.140625 C1 2 1 2 0 0 Z " fill="#B373EC" transform="translate(183,437)"/>
<path d="M0 0 C4.96916636 0.51405169 9.29026351 1.23384882 14 3 C10.36636786 5.42242143 9.00156411 5.17302701 4.875 4.55859375 C3 4 3 4 1 1.9375 C0.67 1.298125 0.34 0.65875 0 0 Z " fill="#BA7EEE" transform="translate(280,81)"/>
<path d="M0 0 C0.33 0 0.66 0 1 0 C2.33257403 13.6332574 2.33257403 13.6332574 1 20 C0.67 18.68 0.34 17.36 0 16 C-0.66 16 -1.32 16 -2 16 C-1.67 15.01 -1.34 14.02 -1 13 C-0.77548542 10.77425665 -0.59217122 8.54418481 -0.4375 6.3125 C-0.35371094 5.13300781 -0.26992188 3.95351563 -0.18359375 2.73828125 C-0.12300781 1.83464844 -0.06242187 0.93101562 0 0 Z " fill="#B371F2" transform="translate(415,272)"/>
<path d="M0 0 C0.99 0.33 1.98 0.66 3 1 C1.58832253 6.26170694 -0.74850232 9.72171358 -4 14 C-4.33 13.01 -4.66 12.02 -5 11 C-4.04060332 9.30963442 -3.03357147 7.64605826 -2 6 C-1.28856912 4.01548229 -0.61008664 2.01797888 0 0 Z " fill="#B375EC" transform="translate(385,359)"/>
<path d="M0 0 C3.79379058 1.49041773 5.68343758 3.69062512 8 7 C8 7.66 8 8.32 8 9 C8.66 9.33 9.32 9.66 10 10 C7 10 7 10 5.17578125 8.3203125 C4.56089844 7.59585937 3.94601563 6.87140625 3.3125 6.125 C2.68988281 5.40570313 2.06726563 4.68640625 1.42578125 3.9453125 C0 2 0 2 0 0 Z " fill="#B57DED" transform="translate(98,375)"/>
<path d="M0 0 C1.32 0 2.64 0 4 0 C4.99 3.3 5.98 6.6 7 10 C6.34 10.66 5.68 11.32 5 12 C4.16180842 10.37750059 3.3295884 8.75191503 2.5 7.125 C2.0359375 6.22007812 1.571875 5.31515625 1.09375 4.3828125 C0 2 0 2 0 0 Z " fill="#AE6DED" transform="translate(80,344)"/>
<path d="M0 0 C3.93673644 1.31224548 6.22719294 2.91910327 9 6 C4.25 7.125 4.25 7.125 2 6 C1.27306096 4.02111039 0.60183749 2.02045442 0 0 Z " fill="#B26CF1" transform="translate(320,97)"/>
<path d="M0 0 C0.66 0 1.32 0 2 0 C0.50958227 3.79379058 -1.69062512 5.68343758 -5 8 C-5.66 8 -6.32 8 -7 8 C-7 7.34 -7 6.68 -7 6 C-6.34 6 -5.68 6 -5 6 C-5 4.35 -5 2.7 -5 1 C-3.35 1.33 -1.7 1.66 0 2 C0 1.34 0 0.68 0 0 Z " fill="#B274EE" transform="translate(336,419)"/>
<path d="M0 0 C0 0.66 0 1.32 0 2 C2.97 2.495 2.97 2.495 6 3 C5.67 3.66 5.34 4.32 5 5 C3.35232753 4.71890887 1.70686855 4.42481474 0.0625 4.125 C-1.31228516 3.88136719 -1.31228516 3.88136719 -2.71484375 3.6328125 C-3.46894531 3.42398437 -4.22304687 3.21515625 -5 3 C-5.33 2.34 -5.66 1.68 -6 1 C-3 0 -3 0 0 0 Z " fill="#AE6AEC" transform="translate(211,444)"/>
<path d="M0 0 C1.32 0.66 2.64 1.32 4 2 C2.56570999 2.67354499 1.12742943 3.33859701 -0.3125 4 C-1.51326172 4.556875 -1.51326172 4.556875 -2.73828125 5.125 C-5 6 -5 6 -8 6 C-8 5.34 -8 4.68 -8 4 C-6.25 2.3125 -6.25 2.3125 -4 1 C-1.75 1.3125 -1.75 1.3125 0 2 C0 1.34 0 0.68 0 0 Z " fill="#B57AEE" transform="translate(304,439)"/>
<path d="M0 0 C1.32 0 2.64 0 4 0 C4 0.66 4 1.32 4 2 C2.54735962 2.8638129 1.0876837 3.71580454 -0.375 4.5625 C-1.59316406 5.27599609 -1.59316406 5.27599609 -2.8359375 6.00390625 C-3.55007813 6.33261719 -4.26421875 6.66132813 -5 7 C-5.66 6.67 -6.32 6.34 -7 6 C-6.67 5.34 -6.34 4.68 -6 4 C-5.34 4 -4.68 4 -4 4 C-4 3.34 -4 2.68 -4 2 C-2.68 2 -1.36 2 0 2 C0 1.34 0 0.68 0 0 Z " fill="#B478ED" transform="translate(315,433)"/>
<path d="M0 0 C0.66 0 1.32 0 2 0 C5 5.75 5 5.75 5 8 C2.5625 7.625 2.5625 7.625 0 7 C-1.33332095 4.3333581 -0.67102033 2.83319697 0 0 Z " fill="#B068F2" transform="translate(395,183)"/>
<path d="M0 0 C1.33332095 2.6666419 0.67102033 4.16680303 0 7 C-1.32 7.33 -2.64 7.66 -4 8 C-4 8.66 -4 9.32 -4 10 C-4.66 9.67 -5.32 9.34 -6 9 C-4.02 6.03 -2.04 3.06 0 0 Z " fill="#B778F0" transform="translate(105,168)"/>
<path d="M0 0 C0.33 1.32 0.66 2.64 1 4 C-0.98 4.99 -0.98 4.99 -3 6 C-3 6.66 -3 7.32 -3 8 C-4.32 7.67 -5.64 7.34 -7 7 C-4.69 4.69 -2.38 2.38 0 0 Z " fill="#C087ED" transform="translate(126,143)"/>
<path d="M0 0 C0.598125 0.165 1.19625 0.33 1.8125 0.5 C4.11344336 1.1114124 4.11344336 1.1114124 7 1 C6.67 2.98 6.34 4.96 6 7 C3.95880212 5.38405168 1.95927063 3.7143618 0 2 C0 1.34 0 0.68 0 0 Z " fill="#AD67F2" transform="translate(116,394)"/>
<path d="M0 0 C2.94721162 2.74395564 5.19168608 5.38337216 7 9 C6.67 9.66 6.34 10.32 6 11 C5.01 10.67 4.02 10.34 3 10 C2.05078125 7.71484375 2.05078125 7.71484375 1.3125 4.9375 C1.06113281 4.01839844 0.80976563 3.09929687 0.55078125 2.15234375 C0.36902344 1.44207031 0.18726563 0.73179687 0 0 Z " fill="#B87BEE" transform="translate(384,163)"/>
<path d="M0 0 C2.52588702 2.36292656 3.88820837 3.66462511 5 7 C3.35 7.33 1.7 7.66 0 8 C-0.98120464 4.94736336 -0.98120464 3.05263664 0 0 Z " fill="#B46DF2" transform="translate(371,144)"/>
<path d="M0 0 C-1.49097658 3.7952131 -3.75700849 5.61042731 -7 8 C-7.3125 5.6875 -7.3125 5.6875 -7 3 C-4.6167054 1.18116991 -3.04181663 0 0 0 Z " fill="#AF71ED" transform="translate(361,397)"/>
<path d="M0 0 C-1.44253657 3.36591866 -3.33264727 5.51047079 -6 8 C-6.33 6.35 -6.66 4.7 -7 3 C-6.01 3 -5.02 3 -4 3 C-4 2.34 -4 1.68 -4 1 C-2 0 -2 0 0 0 Z " fill="#B577F0" transform="translate(371,385)"/>
<path d="M0 0 C0.33 0.99 0.66 1.98 1 3 C1.6599679 4.66933058 2.32558869 6.3364521 3 8 C2.01 8 1.02 8 0 8 C-3 3.77777778 -3 3.77777778 -3 1 C-2.01 0.67 -1.02 0.34 0 0 Z " fill="#B56FEC" transform="translate(93,362)"/>
<path d="M0 0 C5.57142857 5.14285714 5.57142857 5.14285714 6 9 C5.01 9 4.02 9 3 9 C3 8.34 3 7.68 3 7 C2.34 7 1.68 7 1 7 C0.67 4.69 0.34 2.38 0 0 Z " fill="#B67AEF" transform="translate(378,154)"/>
<path d="M0 0 C3.98381075 2.16264012 6.88983545 4.71211176 10 8 C9.01 8.495 9.01 8.495 8 9 C7.34 8.34 6.68 7.68 6 7 C4.7315625 6.319375 4.7315625 6.319375 3.4375 5.625 C1 4 1 4 0.1875 1.8125 C0.125625 1.214375 0.06375 0.61625 0 0 Z " fill="#BE83F0" transform="translate(332,105)"/>
<path d="M0 0 C1.42944945 2.35438733 2.08661261 3.48032433 1.625 6.25 C1.41875 6.8275 1.2125 7.405 1 8 C0.01 8 -0.98 8 -2 8 C-1.125 1.125 -1.125 1.125 0 0 Z " fill="#AD5CF7" transform="translate(107,165)"/>
<path d="M0 0 C0.66 0.33 1.32 0.66 2 1 C-0.88341534 5.21422242 -3.04303419 6.76075855 -8 8 C-5.58443874 4.80800833 -3.31996462 2.25283313 0 0 Z " fill="#BF8AEC" transform="translate(150,122)"/>
<path d="M0 0 C-2.06756277 2.7972908 -3.14440371 3.02692273 -6.6875 3.6875 C-7.780625 3.790625 -8.87375 3.89375 -10 4 C-4.4 -2.2 -4.4 -2.2 0 0 Z " fill="#AC69ED" transform="translate(169,113)"/>
<path d="M0 0 C3.9492568 0.55105909 7.34920174 1.38935371 11 3 C9.4375 4.25 9.4375 4.25 7 5 C4.42998985 3.93237266 2.3469597 2.53455057 0 1 C0 0.67 0 0.34 0 0 Z " fill="#B677EB" transform="translate(152,422)"/>
<path d="M0 0 C4.11320755 6.16981132 4.11320755 6.16981132 3.625 9.75 C3.41875 10.4925 3.2125 11.235 3 12 C0.97649676 8.96474514 0.67875982 7.80573798 0.375 4.3125 C0.30023438 3.50425781 0.22546875 2.69601563 0.1484375 1.86328125 C0.09945313 1.24839844 0.05046875 0.63351563 0 0 Z " fill="#BA82F0" transform="translate(402,195)"/>
<path d="M0 0 C0.66 0.33 1.32 0.66 2 1 C1.01 4.3 0.02 7.6 -1 11 C-1.33 11 -1.66 11 -2 11 C-2.19622241 6.78121808 -1.80230168 3.82989106 0 0 Z " fill="#BB85EE" transform="translate(407,316)"/>
<path d="M0 0 C0.66 0.33 1.32 0.66 2 1 C1.67 2.65 1.34 4.3 1 6 C0.34 6 -0.32 6 -1 6 C-1 5.34 -1 4.68 -1 4 C-2.32 4.33 -3.64 4.66 -5 5 C-3.35 3.35 -1.7 1.7 0 0 Z " fill="#B674F4" transform="translate(157,117)"/>
<path d="M0 0 C0.33 0 0.66 0 1 0 C1 2.31 1 4.62 1 7 C0.34 7 -0.32 7 -1 7 C-1.33 7.99 -1.66 8.98 -2 10 C-3 8 -3 8 -2.44140625 6.0546875 C-2.15136719 5.33539063 -1.86132812 4.61609375 -1.5625 3.875 C-1.27503906 3.15054688 -0.98757812 2.42609375 -0.69140625 1.6796875 C-0.46324219 1.12539062 -0.23507813 0.57109375 0 0 Z " fill="#BB81EF" transform="translate(84,205)"/>
</svg>
