<svg width="3857" height="3760" viewBox="0 0 3857 3760" fill="none" xmlns="http://www.w3.org/2000/svg">
<path d="M97.2404 949.499C82.8404 943.899 73.7407 942.499 55.2405 949.499C36.7403 956.499 13.7401 992.998 5.24047 1020C-3.25912 1047 -1.75941 1098.5 12.2405 1122.5C26.2403 1146.5 42.74 1158.5 78.2404 1149C113.741 1139.5 133.741 1135 157.24 1121C180.74 1107 182.74 1085.5 183.74 1069C184.74 1052.5 174.74 1027.5 164.24 1010C153.74 992.499 115.24 956.499 97.2404 949.499Z" fill="#FF5786"/>
<path d="M230.74 2881C218.741 2678.5 252.574 2517.67 278.74 2436C838.74 2744.83 1952.14 3367.9 1925.74 3389.5C1892.74 3416.5 1673.24 3558 1492.24 3622.5C1311.24 3687 1126.24 3740.5 999.739 3753.5C873.24 3766.5 635.739 3774.5 463.239 3622.5C290.74 3470.5 242.74 3083.5 230.74 2881Z" fill="#0B1434"/>
<path d="M2302.29 313.907L2301.74 314.5L3618.24 2136C3629.24 2132.83 3659.14 2118.7 3690.74 2087.5C3730.24 2048.5 3790.74 1968.5 3807.24 1914C3823.74 1859.5 3837.24 1806.5 3846.74 1730C3856.24 1653.5 3859.24 1561.5 3852.24 1410C3845.24 1258.5 3828.24 1126.5 3801.74 1008C3775.24 889.5 3737.74 798.5 3706.74 711.5C3675.74 624.5 3644.74 567.5 3613.74 507C3582.74 446.5 3522.74 340.5 3429.24 245.5C3335.74 150.5 3334.24 158.5 3283.24 121.5C3232.24 84.5 3164.24 56.1667 3130.24 41.5C3091.41 27.6667 2995.04 0 2920.24 0C2845.44 0 2767.74 17.3333 2738.24 26C2699.24 38.1667 2623.74 60 2522.74 122C2422.19 183.725 2343.28 269.402 2302.29 313.907Z" fill="#7F2C44"/>
<path d="M1739.24 280.001C1504.24 322.501 1347.74 388.5 1261.24 430C1174.74 471.5 931.738 613.499 749.739 751.5C567.741 889.501 297.736 1187.5 219.238 1471.5C140.739 1755.5 142.738 2018.5 175.239 2182.5C207.739 2346.5 236.237 2459 434.238 2703C632.239 2947 793.739 3022.5 951.739 3113C1109.74 3203.5 1410.74 3309.5 1586.24 3370C1726.64 3418.4 1932.74 3448.83 2018.24 3458C2157.9 3462 2494.24 3455.5 2722.24 3397.5C3007.24 3325 3152.24 3214.5 3263.24 3138.5C3374.24 3062.5 3513.74 2914.5 3556.74 2844.5C3591.14 2788.5 3657.24 2628.5 3669.24 2511C3681.24 2393.5 3696.74 2237.5 3657.24 2048C3617.74 1858.5 3560.24 1606 3491.24 1446.5C3422.24 1287 3303.74 1060.5 3247.74 985.999C3191.74 911.499 3135.24 797 2956.24 629.999C2777.24 462.999 2487.24 353 2455.24 339C2423.24 324.999 2260.24 290.5 2240.24 286C2220.24 281.5 1974.24 237.501 1739.24 280.001Z" fill="#D9D9D9"/>
<path d="M539.74 459.529C479.24 423.779 444.74 264.029 449.24 223.029C453.74 182.029 569.241 156.557 623.24 164.029C677.239 171.5 774.24 215.029 777.24 239.029C780.24 263.029 761.071 320 747.239 347C733.408 374 699.24 406.862 674.24 428.029C650.907 447.029 572.74 479.029 539.74 459.529Z" fill="#FF5786"/>
<path d="M494.739 706C475.539 706 453.739 714 452.239 722.5C450.739 731 447.739 748 452.239 765C456.739 782 467.739 813.5 489.239 817C510.739 820.5 538.739 802 550.739 788C562.739 774 567.239 759 566.239 748.5C565.239 738 557.239 727.5 547.739 719.5C538.239 711.5 518.739 706 494.739 706Z" fill="#152768"/>
</svg>
