<svg width="25" height="26" viewBox="0 0 25 26" fill="none" xmlns="http://www.w3.org/2000/svg">
<path d="M12.5 0.890625C5.81216 0.890625 0.390625 6.31216 0.390625 13C0.390625 19.6878 5.81216 25.1094 12.5 25.1094C19.1878 25.1094 24.6094 19.6878 24.6094 13C24.6094 6.31216 19.1878 0.890625 12.5 0.890625ZM12.5 3.23438C17.8971 3.23438 22.2656 7.6021 22.2656 13C22.2656 18.3971 17.8979 22.7656 12.5 22.7656C7.10293 22.7656 2.73438 18.3979 2.73438 13C2.73438 7.60293 7.1021 3.23438 12.5 3.23438ZM19.3459 9.59507L18.2455 8.48579C18.0176 8.25605 17.6466 8.25454 17.4169 8.48247L10.5149 15.329L7.59541 12.3857C7.36753 12.156 6.99653 12.1545 6.7668 12.3824L5.65747 13.4828C5.42773 13.7106 5.42622 14.0816 5.65415 14.3114L10.0868 18.78C10.3147 19.0097 10.6857 19.0112 10.9154 18.7833L19.3426 10.4237C19.5723 10.1958 19.5738 9.8248 19.3459 9.59507Z" fill="#F39F5F"/>
</svg>
