<svg width="17" height="17" viewBox="0 0 17 17" fill="none" xmlns="http://www.w3.org/2000/svg">
<g clip-path="url(#clip0_1_650)">
<path d="M16.9387 12.5887L16.22 15.745C16.0741 16.2242 15.7512 16.4742 15.2512 16.495C12.6054 16.4742 10.2096 15.8179 8.06372 14.5262C5.91789 13.2554 4.20955 11.5471 2.93872 9.40125C1.64705 7.25541 0.990804 4.85958 0.969971 2.21375C0.990804 1.71375 1.2408 1.39083 1.71997 1.245L4.87622 0.526245C5.37622 0.442911 5.75122 0.630412 6.00122 1.08875L7.43872 4.46375C7.60539 4.92208 7.51164 5.3075 7.15747 5.62L5.50122 6.96375C6.02205 8.04708 6.70955 9.01583 7.56372 9.87C8.41789 10.7242 9.38664 11.4221 10.47 11.9637L11.845 10.2762C12.1575 9.92208 12.5429 9.82833 13.0012 9.995L16.3762 11.4325C16.8137 11.7033 17.0012 12.0887 16.9387 12.5887Z" fill="white"/>
</g>
<defs>
<clipPath id="clip0_1_650">
<rect width="16" height="16" fill="white" transform="matrix(1 0 0 -1 0.969971 16.495)"/>
</clipPath>
</defs>
</svg>
