<svg width="50" height="50" viewBox="0 0 50 50" fill="none" xmlns="http://www.w3.org/2000/svg">
<path d="M16.3574 24.0234C16.1621 24.8047 15.7471 25.4557 15.1123 25.9766C14.4775 26.4974 13.737 26.7578 12.8906 26.7578C12.6628 26.7578 12.4756 26.8392 12.3291 27.002C12.1826 27.1647 12.1094 27.36 12.1094 27.5879C12.1094 27.8158 12.1826 28.0111 12.3291 28.1738C12.4756 28.3366 12.6628 28.418 12.8906 28.418C14.1927 28.418 15.3158 27.9948 16.2598 27.1484C17.2038 26.3021 17.7734 25.2604 17.9688 24.0234C18.75 23.9583 19.4987 23.7549 20.2148 23.4131C20.931 23.0713 21.5658 22.6074 22.1191 22.0215C22.1842 21.9564 22.2412 21.875 22.29 21.7773C22.3389 21.6797 22.3633 21.5658 22.3633 21.4355C22.3633 21.3379 22.3389 21.2402 22.29 21.1426C22.2412 21.0449 22.1842 20.9635 22.1191 20.8984C22.0215 20.8008 21.9238 20.7357 21.8262 20.7031C21.7285 20.6706 21.6309 20.6543 21.5332 20.6543C21.4355 20.6543 21.3379 20.6787 21.2402 20.7275C21.1426 20.7764 21.0449 20.8333 20.9473 20.8984C20.459 21.3867 19.8975 21.7692 19.2627 22.0459C18.6279 22.3226 17.9525 22.4609 17.2363 22.4609C15.7715 22.4609 14.5264 21.9482 13.501 20.9229C12.4756 19.8975 11.9629 18.6686 11.9629 17.2363C11.9629 17.0085 11.8896 16.8132 11.7432 16.6504C11.5967 16.4876 11.4095 16.4062 11.1816 16.4062C10.9538 16.4062 10.7585 16.4876 10.5957 16.6504C10.4329 16.8132 10.3516 17.0085 10.3516 17.2363C10.3516 18.9616 10.9294 20.4671 12.085 21.7529C13.2406 23.0387 14.6647 23.7956 16.3574 24.0234ZM19.7754 31.0547C19.7754 30.957 19.751 30.8512 19.7021 30.7373C19.6533 30.6234 19.5964 30.5339 19.5312 30.4688C19.4661 30.4036 19.3766 30.3467 19.2627 30.2979C19.1488 30.249 19.043 30.2246 18.9453 30.2246C17.0573 30.2246 15.446 30.9001 14.1113 32.251C12.7767 33.6019 12.1094 35.2214 12.1094 37.1094C12.1094 37.1094 12.1094 37.1257 12.1094 37.1582C12.1094 37.1908 12.1094 37.207 12.1094 37.207C11.9466 37.1745 11.792 37.1582 11.6455 37.1582C11.499 37.1582 11.3444 37.1582 11.1816 37.1582C10.9538 37.1582 10.7585 37.2396 10.5957 37.4023C10.4329 37.5651 10.3516 37.7441 10.3516 37.9395C10.3516 38.1673 10.4329 38.3626 10.5957 38.5254C10.7585 38.6882 10.9538 38.7695 11.1816 38.7695C12.6139 38.7695 13.8428 39.2822 14.8682 40.3076C15.8936 41.333 16.4062 42.5618 16.4062 43.9941C16.4062 44.222 16.4876 44.4173 16.6504 44.5801C16.8132 44.7428 17.0085 44.8242 17.2363 44.8242C17.4642 44.8242 17.6514 44.7428 17.7979 44.5801C17.9443 44.4173 18.0176 44.222 18.0176 43.9941C18.0176 42.5618 17.6188 41.276 16.8213 40.1367C16.0238 38.9974 14.9902 38.1673 13.7207 37.6465C13.7207 37.5488 13.7207 37.4593 13.7207 37.3779C13.7207 37.2965 13.7207 37.207 13.7207 37.1094C13.7207 35.6445 14.2334 34.3994 15.2588 33.374C16.2842 32.3486 17.513 31.8359 18.9453 31.8359C19.043 31.8359 19.1488 31.8197 19.2627 31.7871C19.3766 31.7546 19.4661 31.7057 19.5312 31.6406C19.5964 31.543 19.6533 31.4453 19.7021 31.3477C19.751 31.25 19.7754 31.1523 19.7754 31.0547ZM47.4121 24.1211C47.4121 23.6654 47.3633 23.2178 47.2656 22.7783C47.168 22.3389 47.0378 21.9076 46.875 21.4844C46.7122 21.0612 46.5007 20.6624 46.2402 20.2881C45.9798 19.9137 45.6868 19.5638 45.3613 19.2383C45.459 18.9128 45.5404 18.5791 45.6055 18.2373C45.6706 17.8955 45.7031 17.5618 45.7031 17.2363C45.7031 15.5762 45.166 14.1113 44.0918 12.8418C43.0176 11.5723 41.6992 10.791 40.1367 10.498C40.2669 10.2051 40.3564 9.89583 40.4053 9.57031C40.4541 9.24479 40.4785 8.91927 40.4785 8.59375C40.4785 7.51953 40.1937 6.55925 39.624 5.71289C39.0544 4.86654 38.3138 4.24805 37.4023 3.85742C35.8724 2.653 34.318 1.70898 32.7393 1.02539C31.1605 0.341797 29.7363 0 28.4668 0C27.7507 0 27.0915 0.162762 26.4893 0.488281C25.887 0.813801 25.3906 1.23698 25 1.75781C24.6094 1.23698 24.113 0.813801 23.5107 0.488281C22.9085 0.162762 22.2493 0 21.5332 0C20.2637 0 18.8395 0.341797 17.2607 1.02539C15.682 1.70898 14.1276 2.653 12.5977 3.85742C11.6862 4.24805 10.9456 4.86654 10.376 5.71289C9.80631 6.55925 9.52148 7.51953 9.52148 8.59375C9.52148 8.91927 9.5459 9.24479 9.59473 9.57031C9.64355 9.89583 9.73307 10.2051 9.86328 10.498C8.30078 10.791 6.98242 11.5723 5.9082 12.8418C4.83398 14.1113 4.29688 15.5762 4.29688 17.2363C4.29688 17.5618 4.32943 17.8955 4.39453 18.2373C4.45964 18.5791 4.54102 18.9128 4.63867 19.2383C4.31315 19.5638 4.02018 19.9137 3.75977 20.2881C3.49935 20.6624 3.28776 21.0612 3.125 21.4844C2.96224 21.9076 2.83203 22.3389 2.73438 22.7783C2.63672 23.2178 2.58789 23.6654 2.58789 24.1211C2.58789 24.8372 2.69368 25.529 2.90527 26.1963C3.11686 26.8636 3.41797 27.474 3.80859 28.0273C3.41797 28.5807 3.11686 29.1911 2.90527 29.8584C2.69368 30.5257 2.58789 31.2174 2.58789 31.9336C2.58789 33.1706 2.90527 34.3262 3.54004 35.4004C4.1748 36.4746 5.0293 37.3047 6.10352 37.8906C6.07096 38.0534 6.05469 38.208 6.05469 38.3545C6.05469 38.501 6.05469 38.6556 6.05469 38.8184C6.05469 40.5111 6.55111 42.0329 7.54395 43.3838C8.53678 44.7347 9.83073 45.6706 11.4258 46.1914C12.1094 47.3633 13.0452 48.291 14.2334 48.9746C15.4215 49.6582 16.6992 50 18.0664 50C19.5964 50 20.9798 49.6012 22.2168 48.8037C23.4538 48.0062 24.3815 46.9727 25 45.7031C25.6185 46.9727 26.5462 48.0062 27.7832 48.8037C29.0202 49.6012 30.4036 50 31.9336 50C33.3008 50 34.5785 49.6582 35.7666 48.9746C36.9548 48.291 37.8906 47.3633 38.5742 46.1914C40.1693 45.6706 41.4632 44.7347 42.4561 43.3838C43.4489 42.0329 43.9453 40.5111 43.9453 38.8184C43.9453 38.6556 43.9453 38.501 43.9453 38.3545C43.9453 38.208 43.929 38.0534 43.8965 37.8906C44.9707 37.3047 45.8252 36.4746 46.46 35.4004C47.0947 34.3262 47.4121 33.1706 47.4121 31.9336C47.4121 31.2174 47.3063 30.5257 47.0947 29.8584C46.8831 29.1911 46.582 28.5807 46.1914 28.0273C46.582 27.474 46.8831 26.8636 47.0947 26.1963C47.3063 25.529 47.4121 24.8372 47.4121 24.1211ZM18.0664 48.3887C16.9596 48.3887 15.918 48.0957 14.9414 47.5098C13.9648 46.9238 13.2161 46.1263 12.6953 45.1172C12.6628 45.0521 12.6302 45.0033 12.5977 44.9707C12.5651 44.9382 12.5326 44.9056 12.5 44.873C12.4349 44.8405 12.3779 44.8079 12.3291 44.7754C12.2803 44.7428 12.2233 44.7266 12.1582 44.7266C10.8561 44.3685 9.7819 43.6361 8.93555 42.5293C8.08919 41.4225 7.66602 40.1855 7.66602 38.8184C7.66602 38.623 7.67415 38.4196 7.69043 38.208C7.70671 37.9964 7.7474 37.793 7.8125 37.5977C7.8125 37.5 7.80436 37.4105 7.78809 37.3291C7.77181 37.2477 7.7474 37.1582 7.71484 37.0605C7.68229 36.9954 7.63346 36.9303 7.56836 36.8652C7.50326 36.8001 7.42188 36.7513 7.32422 36.7188C6.38021 36.2956 5.62337 35.6445 5.05371 34.7656C4.48405 33.8867 4.19922 32.9427 4.19922 31.9336C4.19922 31.4453 4.26432 30.9814 4.39453 30.542C4.52474 30.1025 4.70378 29.6875 4.93164 29.2969C5.51758 29.8177 6.20117 30.2327 6.98242 30.542C7.76367 30.8512 8.59375 31.0059 9.47266 31.0059C9.66797 31.0059 9.84701 30.9245 10.0098 30.7617C10.1725 30.599 10.2539 30.4036 10.2539 30.1758C10.2539 29.9479 10.1725 29.7607 10.0098 29.6143C9.84701 29.4678 9.66797 29.3945 9.47266 29.3945C8.00781 29.3945 6.7627 28.8818 5.7373 27.8564C4.71191 26.8311 4.19922 25.5859 4.19922 24.1211C4.19922 23.3398 4.36198 22.5993 4.6875 21.8994C5.01302 21.1995 5.48503 20.6055 6.10352 20.1172C6.16862 20.0521 6.22559 19.987 6.27441 19.9219C6.32324 19.8568 6.34766 19.7754 6.34766 19.6777C6.38021 19.6126 6.39648 19.5312 6.39648 19.4336C6.39648 19.3359 6.38021 19.2546 6.34766 19.1895C6.21745 18.8639 6.11979 18.5384 6.05469 18.2129C5.98958 17.8874 5.95703 17.5618 5.95703 17.2363C5.95703 15.7715 6.46973 14.5264 7.49512 13.501C8.52051 12.4756 9.74935 11.9629 11.1816 11.9629C12.6139 11.9629 13.8428 12.4756 14.8682 13.501C15.8936 14.5264 16.4062 15.7715 16.4062 17.2363C16.4062 17.4642 16.4876 17.6514 16.6504 17.7979C16.8132 17.9443 17.0085 18.0176 17.2363 18.0176C17.4642 18.0176 17.6514 17.9443 17.7979 17.7979C17.9443 17.6514 18.0176 17.4642 18.0176 17.2363C18.0176 15.4134 17.3991 13.8428 16.1621 12.5244C14.9251 11.2061 13.4115 10.498 11.6211 10.4004C11.4583 10.1074 11.3363 9.81445 11.2549 9.52148C11.1735 9.22852 11.1328 8.91927 11.1328 8.59375C11.1328 7.87761 11.3281 7.22656 11.7188 6.64062C12.1094 6.05469 12.6139 5.63151 13.2324 5.37109C13.265 5.37109 13.2975 5.36296 13.3301 5.34668C13.3626 5.3304 13.3789 5.32227 13.3789 5.32227C13.5742 5.22461 13.7777 5.1595 13.9893 5.12695C14.2008 5.0944 14.4206 5.07812 14.6484 5.07812C15.332 5.07812 15.9505 5.25716 16.5039 5.61523C17.0573 5.97331 17.4805 6.44531 17.7734 7.03125C17.806 7.09636 17.8385 7.15332 17.8711 7.20215C17.9036 7.25098 17.9362 7.29167 17.9688 7.32422C18.0339 7.35677 18.0827 7.38118 18.1152 7.39746C18.1478 7.41374 18.1966 7.43815 18.2617 7.4707C18.2943 7.4707 18.3431 7.47884 18.4082 7.49512C18.4733 7.51139 18.5221 7.51953 18.5547 7.51953C18.6198 7.51953 18.6768 7.51139 18.7256 7.49512C18.7744 7.47884 18.8314 7.45443 18.8965 7.42188C18.929 7.38932 18.9697 7.35677 19.0186 7.32422C19.0674 7.29167 19.1081 7.25911 19.1406 7.22656C19.1732 7.19401 19.1976 7.15332 19.2139 7.10449C19.2301 7.05566 19.2546 7.01497 19.2871 6.98242C19.3197 6.91732 19.3359 6.86035 19.3359 6.81152C19.3359 6.7627 19.3359 6.70573 19.3359 6.64062C19.3359 6.60807 19.3278 6.55925 19.3115 6.49414C19.2952 6.42904 19.2708 6.38021 19.2383 6.34766C18.9128 5.66406 18.4489 5.07812 17.8467 4.58984C17.2445 4.10156 16.569 3.77604 15.8203 3.61328C16.862 2.96224 17.8711 2.46582 18.8477 2.12402C19.8242 1.78223 20.7194 1.61133 21.5332 1.61133C22.2819 1.61133 22.9085 1.87175 23.4131 2.39258C23.9176 2.91341 24.1699 3.5319 24.1699 4.24805V14.7461C23.8118 14.4531 23.4131 14.2253 22.9736 14.0625C22.5342 13.8997 22.054 13.8184 21.5332 13.8184C21.3053 13.8184 21.1182 13.8997 20.9717 14.0625C20.8252 14.2253 20.752 14.4206 20.752 14.6484C20.752 14.8763 20.8252 15.0635 20.9717 15.21C21.1182 15.3564 21.3053 15.4297 21.5332 15.4297C22.2819 15.4297 22.9085 15.6901 23.4131 16.2109C23.9176 16.7318 24.1699 17.3503 24.1699 18.0664V37.5488C23.6816 36.8978 23.0876 36.3363 22.3877 35.8643C21.6878 35.3923 20.931 35.0423 20.1172 34.8145C20.0521 34.8145 19.9951 34.8145 19.9463 34.8145C19.8975 34.8145 19.8405 34.8145 19.7754 34.8145C19.7103 34.8145 19.6533 34.8226 19.6045 34.8389C19.5557 34.8551 19.515 34.8796 19.4824 34.9121C19.4173 34.9447 19.3685 34.9772 19.3359 35.0098C19.3034 35.0423 19.2708 35.0749 19.2383 35.1074C19.2057 35.14 19.1813 35.1807 19.165 35.2295C19.1488 35.2783 19.1243 35.3353 19.0918 35.4004C19.0918 35.4655 19.0837 35.5225 19.0674 35.5713C19.0511 35.6201 19.0592 35.6608 19.0918 35.6934C19.0918 35.7585 19.0999 35.8154 19.1162 35.8643C19.1325 35.9131 19.1569 35.9701 19.1895 36.0352C19.222 36.0677 19.2546 36.1003 19.2871 36.1328C19.3197 36.1654 19.3522 36.1979 19.3848 36.2305C19.4173 36.263 19.458 36.2956 19.5068 36.3281C19.5557 36.3607 19.6126 36.377 19.6777 36.377C21.0124 36.735 22.0947 37.4674 22.9248 38.5742C23.7549 39.681 24.1699 40.918 24.1699 42.2852C24.1699 43.9779 23.5758 45.4183 22.3877 46.6064C21.1995 47.7946 19.7591 48.3887 18.0664 48.3887ZM42.6758 36.7188C42.5781 36.7513 42.4967 36.8001 42.4316 36.8652C42.3665 36.9303 42.3177 36.9954 42.2852 37.0605C42.2526 37.1582 42.2282 37.2477 42.2119 37.3291C42.1956 37.4105 42.1875 37.5 42.1875 37.5977C42.2526 37.793 42.2933 37.9964 42.3096 38.208C42.3258 38.4196 42.334 38.623 42.334 38.8184C42.334 40.1855 41.9108 41.4225 41.0645 42.5293C40.2181 43.6361 39.1439 44.3685 37.8418 44.7266C37.7767 44.7266 37.7197 44.7428 37.6709 44.7754C37.6221 44.8079 37.5651 44.8405 37.5 44.873C37.4674 44.9056 37.4349 44.9382 37.4023 44.9707C37.3698 45.0033 37.3372 45.0521 37.3047 45.1172C36.7839 46.1263 36.0352 46.9238 35.0586 47.5098C34.082 48.0957 33.0404 48.3887 31.9336 48.3887C30.2409 48.3887 28.8005 47.7946 27.6123 46.6064C26.4242 45.4183 25.8301 43.9779 25.8301 42.2852C25.8301 42.1549 25.8219 42.0329 25.8057 41.9189C25.7894 41.805 25.7812 41.6992 25.7812 41.6016C25.7812 41.569 25.7894 41.5365 25.8057 41.5039C25.8219 41.4714 25.8301 41.4388 25.8301 41.4062V14.6484C25.8301 13.8997 26.0824 13.265 26.5869 12.7441C27.0915 12.2233 27.7181 11.9629 28.4668 11.9629C28.6947 11.9629 28.8818 11.8896 29.0283 11.7432C29.1748 11.5967 29.248 11.4095 29.248 11.1816C29.248 10.9538 29.1748 10.7585 29.0283 10.5957C28.8818 10.4329 28.6947 10.3516 28.4668 10.3516C27.946 10.3516 27.4658 10.4329 27.0264 10.5957C26.5869 10.7585 26.1882 10.9863 25.8301 11.2793V4.24805C25.8301 3.5319 26.0824 2.91341 26.5869 2.39258C27.0915 1.87175 27.7181 1.61133 28.4668 1.61133C29.2806 1.61133 30.1758 1.78223 31.1523 2.12402C32.1289 2.46582 33.138 2.96224 34.1797 3.61328C33.431 3.77604 32.7555 4.10156 32.1533 4.58984C31.5511 5.07812 31.0872 5.66406 30.7617 6.34766C30.7292 6.38021 30.7048 6.42904 30.6885 6.49414C30.6722 6.55925 30.6641 6.60807 30.6641 6.64062C30.6641 6.70573 30.6641 6.7627 30.6641 6.81152C30.6641 6.86035 30.6803 6.91732 30.7129 6.98242C30.7454 7.01497 30.7699 7.05566 30.7861 7.10449C30.8024 7.15332 30.8268 7.19401 30.8594 7.22656C30.8919 7.25911 30.9326 7.29167 30.9814 7.32422C31.0303 7.35677 31.071 7.38932 31.1035 7.42188C31.1686 7.45443 31.2256 7.47884 31.2744 7.49512C31.3232 7.51139 31.3802 7.51953 31.4453 7.51953C31.4779 7.51953 31.5267 7.51139 31.5918 7.49512C31.6569 7.47884 31.7057 7.4707 31.7383 7.4707C31.8034 7.43815 31.8522 7.41374 31.8848 7.39746C31.9173 7.38118 31.9661 7.35677 32.0312 7.32422C32.0638 7.29167 32.0964 7.25098 32.1289 7.20215C32.1615 7.15332 32.194 7.09636 32.2266 7.03125C32.5195 6.44531 32.9427 5.97331 33.4961 5.61523C34.0495 5.25716 34.668 5.07812 35.3516 5.07812C35.5794 5.07812 35.7992 5.0944 36.0107 5.12695C36.2223 5.1595 36.4258 5.22461 36.6211 5.32227C36.6211 5.32227 36.6374 5.3304 36.6699 5.34668C36.7025 5.36296 36.735 5.37109 36.7676 5.37109C37.3861 5.63151 37.8906 6.05469 38.2812 6.64062C38.6719 7.22656 38.8672 7.87761 38.8672 8.59375C38.8672 8.91927 38.8265 9.22852 38.7451 9.52148C38.6637 9.81445 38.5417 10.1074 38.3789 10.4004C36.5885 10.498 35.0749 11.2061 33.8379 12.5244C32.6009 13.8428 31.9824 15.4134 31.9824 17.2363C31.9824 17.4642 32.0557 17.6514 32.2021 17.7979C32.3486 17.9443 32.5358 18.0176 32.7637 18.0176C32.9915 18.0176 33.1868 17.9443 33.3496 17.7979C33.5124 17.6514 33.5938 17.4642 33.5938 17.2363C33.5938 15.7715 34.1064 14.5264 35.1318 13.501C36.1572 12.4756 37.3861 11.9629 38.8184 11.9629C40.2507 11.9629 41.4795 12.4756 42.5049 13.501C43.5303 14.5264 44.043 15.7715 44.043 17.2363C44.043 17.5618 44.0104 17.8874 43.9453 18.2129C43.8802 18.5384 43.7826 18.8639 43.6523 19.1895C43.6198 19.2546 43.6035 19.3359 43.6035 19.4336C43.6035 19.5312 43.6198 19.6126 43.6523 19.6777C43.6523 19.7754 43.6768 19.8568 43.7256 19.9219C43.7744 19.987 43.8314 20.0521 43.8965 20.1172C44.515 20.6055 44.987 21.1995 45.3125 21.8994C45.638 22.5993 45.8008 23.3398 45.8008 24.1211C45.8008 25.5859 45.2881 26.8311 44.2627 27.8564C43.2373 28.8818 41.9922 29.3945 40.5273 29.3945C40.332 29.3945 40.153 29.4678 39.9902 29.6143C39.8275 29.7607 39.7461 29.9479 39.7461 30.1758C39.7461 30.4036 39.8275 30.599 39.9902 30.7617C40.153 30.9245 40.332 31.0059 40.5273 31.0059C41.4062 31.0059 42.2363 30.8512 43.0176 30.542C43.7988 30.2327 44.4824 29.8177 45.0684 29.2969C45.2962 29.6875 45.4753 30.1025 45.6055 30.542C45.7357 30.9814 45.8008 31.4453 45.8008 31.9336C45.8008 32.9427 45.5159 33.8867 44.9463 34.7656C44.3766 35.6445 43.6198 36.2956 42.6758 36.7188ZM38.8184 25.9277C37.972 25.9277 37.2314 25.6592 36.5967 25.1221C35.9619 24.585 35.5632 23.9258 35.4004 23.1445C37.0931 22.9492 38.5091 22.2087 39.6484 20.9229C40.7878 19.637 41.3574 18.1152 41.3574 16.3574C41.3574 16.1296 41.276 15.9342 41.1133 15.7715C40.9505 15.6087 40.7552 15.5273 40.5273 15.5273C40.332 15.5273 40.153 15.6087 39.9902 15.7715C39.8275 15.9342 39.7461 16.1296 39.7461 16.3574C39.7461 17.7897 39.2334 19.0186 38.208 20.0439C37.1826 21.0693 35.9538 21.582 34.5215 21.582C33.8053 21.582 33.1217 21.4518 32.4707 21.1914C31.8197 20.931 31.25 20.5404 30.7617 20.0195C30.6966 19.9544 30.6152 19.8975 30.5176 19.8486C30.4199 19.7998 30.306 19.7754 30.1758 19.7754C30.0781 19.7754 29.9805 19.7998 29.8828 19.8486C29.7852 19.8975 29.7038 19.9544 29.6387 20.0195C29.541 20.0846 29.4759 20.166 29.4434 20.2637C29.4108 20.3613 29.3945 20.4753 29.3945 20.6055C29.3945 20.7031 29.4108 20.8008 29.4434 20.8984C29.4759 20.9961 29.5247 21.0775 29.5898 21.1426C30.1758 21.7285 30.8187 22.1924 31.5186 22.5342C32.2184 22.876 32.959 23.0957 33.7402 23.1934C33.9355 24.4303 34.5133 25.4639 35.4736 26.2939C36.4339 27.124 37.5488 27.5391 38.8184 27.5391C39.0462 27.5391 39.2415 27.4577 39.4043 27.2949C39.5671 27.1322 39.6484 26.9368 39.6484 26.709C39.6484 26.5137 39.5671 26.3346 39.4043 26.1719C39.2415 26.0091 39.0462 25.9277 38.8184 25.9277ZM36.2305 35.4004C36.0677 35.4004 35.9131 35.4085 35.7666 35.4248C35.6201 35.4411 35.4655 35.4655 35.3027 35.498C35.3027 35.4655 35.3027 35.4411 35.3027 35.4248C35.3027 35.4085 35.3027 35.3841 35.3027 35.3516C35.3027 33.4635 34.6354 31.8522 33.3008 30.5176C31.9661 29.1829 30.3548 28.5156 28.4668 28.5156C28.2389 28.5156 28.0436 28.597 27.8809 28.7598C27.7181 28.9225 27.6367 29.1016 27.6367 29.2969C27.6367 29.5247 27.7181 29.7201 27.8809 29.8828C28.0436 30.0456 28.2389 30.127 28.4668 30.127C29.8991 30.127 31.1279 30.6396 32.1533 31.665C33.1787 32.6904 33.6914 33.9193 33.6914 35.3516C33.6914 35.4492 33.6914 35.5469 33.6914 35.6445C33.6914 35.7422 33.6751 35.8398 33.6426 35.9375C32.4056 36.4258 31.3883 37.2477 30.5908 38.4033C29.7933 39.5589 29.3945 40.8529 29.3945 42.2852C29.3945 42.513 29.4678 42.7002 29.6143 42.8467C29.7607 42.9932 29.9479 43.0664 30.1758 43.0664C30.4036 43.0664 30.599 42.9932 30.7617 42.8467C30.9245 42.7002 31.0059 42.513 31.0059 42.2852C31.0059 40.8529 31.5186 39.624 32.5439 38.5986C33.5693 37.5732 34.7982 37.0605 36.2305 37.0605C36.4583 37.0605 36.6536 36.9792 36.8164 36.8164C36.9792 36.6536 37.0605 36.4583 37.0605 36.2305C37.0605 36.0026 36.9792 35.8073 36.8164 35.6445C36.6536 35.4818 36.4583 35.4004 36.2305 35.4004Z" fill="#5866EB"/>
</svg>
