<svg width="50" height="50" viewBox="0 0 50 50" fill="none" xmlns="http://www.w3.org/2000/svg">
<g clip-path="url(#clip0_1_870)">
<path d="M25.4883 8.49609C25.2604 8.43099 25.0326 8.40657 24.8047 8.42285C24.5768 8.43913 24.4141 8.52864 24.3164 8.69141L19.1895 15.3809C19.1895 15.3809 19.1813 15.389 19.1651 15.4053C19.1488 15.4216 19.1406 15.446 19.1406 15.4785C19.0755 15.6738 19.1325 15.8691 19.3115 16.0645C19.4906 16.2598 19.694 16.39 19.9219 16.4551C20.0521 16.5202 20.1742 16.5446 20.2881 16.5283C20.402 16.512 20.4916 16.4551 20.5567 16.3574L21.582 14.8926L24.4141 15.8691L24.2676 17.627C24.2676 17.7572 24.3083 17.863 24.3897 17.9443C24.471 18.0257 24.5768 18.0827 24.707 18.1152C24.9349 18.1803 25.1791 18.1966 25.4395 18.1641C25.6999 18.1315 25.8626 18.0176 25.9277 17.8223C25.9603 17.7897 25.9766 17.7653 25.9766 17.749C25.9766 17.7327 25.9766 17.7083 25.9766 17.6758L26.3184 9.375C26.3509 9.17969 26.2777 9.00879 26.0986 8.8623C25.9196 8.71582 25.7162 8.59375 25.4883 8.49609ZM24.5117 14.5508L22.3633 13.8184L24.7559 10.5469L24.5117 14.5508ZM16.3086 39.0625L16.2598 38.8184C16.097 38.1999 15.8529 37.7767 15.5274 37.5488C15.2018 37.321 14.8275 37.1908 14.4043 37.1582C14.6973 36.9303 14.9007 36.6292 15.0147 36.2549C15.1286 35.8805 15.1042 35.4329 14.9414 34.9121C14.7136 34.0658 14.3067 33.5612 13.7207 33.3984C13.1348 33.2357 12.5163 33.252 11.8652 33.4473L9.42384 34.0332C9.26108 34.0983 9.1146 34.1878 8.98439 34.3018C8.85418 34.4157 8.80535 34.554 8.8379 34.7168L10.9863 42.6758C11.0189 42.806 11.1166 42.9036 11.2793 42.9688C11.4421 43.0339 11.6374 43.0339 11.8652 42.9688L14.502 42.2852C15.2181 42.1224 15.7634 41.7806 16.1377 41.2598C16.5121 40.7389 16.569 40.0065 16.3086 39.0625ZM11.2793 37.3047L10.7422 35.2051L12.1094 34.8633C12.4349 34.7656 12.7116 34.79 12.9395 34.9365C13.1673 35.083 13.3301 35.3027 13.4277 35.5957C13.4929 35.9212 13.4684 36.2061 13.3545 36.4502C13.2406 36.6943 13.0208 36.849 12.6953 36.9141L11.2793 37.3047ZM13.8184 41.0156L12.3535 41.3574L11.6211 38.5254L13.0371 38.1836C13.4277 38.0859 13.7533 38.1022 14.0137 38.2324C14.2741 38.3626 14.4694 38.6719 14.5996 39.1602L14.6485 39.3555C14.7787 39.8112 14.7624 40.1693 14.5996 40.4297C14.4369 40.6901 14.1764 40.8854 13.8184 41.0156ZM40.8692 38.5254C40.6738 38.5254 40.4948 38.5661 40.332 38.6475C40.1693 38.7288 40.0716 38.8672 40.0391 39.0625C40.0391 39.3229 39.974 39.6159 39.8438 39.9414C39.7136 40.2669 39.3392 40.4297 38.7207 40.4297C38.2975 40.4297 37.9639 40.3076 37.7197 40.0635C37.4756 39.8193 37.3535 39.4531 37.3535 38.9648V35.4492C37.3535 34.9609 37.4756 34.5947 37.7197 34.3506C37.9639 34.1064 38.2975 33.9844 38.7207 33.9844C39.3392 33.9844 39.7136 34.1471 39.8438 34.4727C39.974 34.7982 40.0391 35.0586 40.0391 35.2539C40.0716 35.4167 40.1611 35.5387 40.3076 35.6201C40.4541 35.7015 40.6576 35.7422 40.918 35.7422C41.211 35.7422 41.4225 35.6934 41.5527 35.5957C41.683 35.498 41.7481 35.2865 41.7481 34.9609C41.7481 34.2122 41.4551 33.6182 40.8692 33.1787C40.2832 32.7393 39.5508 32.5195 38.6719 32.5195C37.8581 32.5195 37.1501 32.7393 36.5479 33.1787C35.9457 33.6182 35.6445 34.375 35.6445 35.4492V38.9648C35.6445 40.0065 35.9375 40.7471 36.5235 41.1865C37.1094 41.626 37.8255 41.8457 38.6719 41.8457C39.5508 41.8457 40.2832 41.6178 40.8692 41.1621C41.4551 40.7064 41.7481 40.1042 41.7481 39.3555C41.7481 39.0299 41.6748 38.8102 41.5283 38.6963C41.3819 38.5824 41.1621 38.5254 40.8692 38.5254ZM32.7637 3.56445L20.9961 0.195312C19.4987 -0.195312 18.0746 -0.0325508 16.7236 0.683594C15.3727 1.39974 14.4857 2.47396 14.0625 3.90625L12.9395 7.66602C12.9069 7.76367 12.8988 7.86133 12.9151 7.95898C12.9313 8.05664 12.9557 8.13802 12.9883 8.20312C13.0534 8.30078 13.1266 8.37402 13.208 8.42285C13.2894 8.47168 13.3789 8.51237 13.4766 8.54492C13.5091 8.57747 13.5498 8.59375 13.5986 8.59375C13.6475 8.59375 13.7044 8.59375 13.7695 8.59375C13.8021 8.59375 13.8428 8.58561 13.8916 8.56934C13.9404 8.55306 13.9811 8.52864 14.0137 8.49609C14.0788 8.46354 14.1276 8.43099 14.1602 8.39844C14.1927 8.36589 14.2253 8.33333 14.2578 8.30078C14.2904 8.26823 14.3148 8.23568 14.3311 8.20312C14.3473 8.17057 14.3718 8.12175 14.4043 8.05664L15.4785 4.3457C15.6413 3.82487 15.8936 3.361 16.2354 2.9541C16.5772 2.5472 16.9759 2.21354 17.4317 1.95312C17.9199 1.69271 18.4326 1.53809 18.9697 1.48926C19.5068 1.44043 20.0358 1.48112 20.5567 1.61133L32.3731 4.98047C33.4473 5.27344 34.2529 5.90007 34.7901 6.86035C35.3272 7.82064 35.4492 8.82161 35.1563 9.86328L31.6895 21.3867C31.3965 22.4284 30.7536 23.2178 29.7608 23.7549C28.7679 24.292 27.7344 24.3978 26.6602 24.0723L14.8438 20.752C14.3229 20.5892 13.8509 20.3451 13.4277 20.0195C13.0046 19.694 12.6628 19.3034 12.4024 18.8477C12.1419 18.3919 11.9873 17.9036 11.9385 17.3828C11.8897 16.862 11.9304 16.3411 12.0606 15.8203L13.3789 11.377C13.4115 11.2793 13.4277 11.1816 13.4277 11.084C13.4277 10.9863 13.3952 10.9049 13.3301 10.8398C13.2975 10.7422 13.2406 10.6608 13.1592 10.5957C13.0778 10.5306 12.9883 10.498 12.8906 10.498C12.793 10.4655 12.6953 10.4492 12.5977 10.4492C12.5 10.4492 12.4024 10.4818 12.3047 10.5469C12.207 10.5794 12.1338 10.6364 12.085 10.7178C12.0361 10.7992 11.9955 10.8887 11.9629 10.9863L10.6445 15.4297C10.4167 16.1133 10.3434 16.8132 10.4248 17.5293C10.5062 18.2454 10.7259 18.9128 11.084 19.5312C11.4421 20.1823 11.9141 20.7357 12.5 21.1914C13.086 21.6471 13.737 21.9727 14.4531 22.168L26.2207 25.4883C26.4811 25.5534 26.7416 25.6104 27.002 25.6592C27.2624 25.708 27.5228 25.7324 27.7832 25.7324C28.9876 25.7324 30.0944 25.3743 31.1035 24.6582C32.1126 23.9421 32.7962 22.9818 33.1543 21.7773L36.5723 10.3027C36.9955 8.87044 36.8408 7.49512 36.1084 6.17676C35.376 4.8584 34.2611 3.98763 32.7637 3.56445ZM25.1953 41.7969L23.2422 29.9805C23.112 29.2643 22.8516 28.597 22.461 27.9785C22.0703 27.36 21.582 26.8392 20.9961 26.416C20.3776 25.9928 19.7103 25.6999 18.9942 25.5371C18.278 25.3743 17.5619 25.3581 16.8457 25.4883L4.68751 27.3926C3.15757 27.6204 1.945 28.3447 1.04982 29.5654C0.154637 30.7861 -0.179022 32.1289 0.0488423 33.5938L0.732436 37.5488C0.764988 37.7441 0.862644 37.8988 1.0254 38.0127C1.18817 38.1266 1.38348 38.1673 1.61134 38.1348C1.709 38.1348 1.79852 38.1104 1.8799 38.0615C1.96128 38.0127 2.03452 37.9395 2.09962 37.8418C2.13218 37.7767 2.16473 37.6953 2.19728 37.5977C2.22983 37.5 2.22983 37.4023 2.19728 37.3047L1.56251 33.3984C1.3672 32.2917 1.6032 31.2988 2.27052 30.4199C2.93784 29.541 3.82488 29.0039 4.93165 28.8086L17.041 26.9043C17.5944 26.8392 18.1315 26.8636 18.6524 26.9775C19.1732 27.0915 19.6615 27.2949 20.1172 27.5879C20.5404 27.9134 20.8985 28.2959 21.1914 28.7354C21.4844 29.1748 21.6634 29.6549 21.7285 30.1758L23.6817 41.9922C23.877 43.099 23.641 44.0918 22.9736 44.9707C22.3063 45.8496 21.4193 46.3867 20.3125 46.582L8.20314 48.4863C7.64975 48.584 7.11264 48.5677 6.59181 48.4375C6.07098 48.3073 5.59897 48.0957 5.1758 47.8027C4.72007 47.4772 4.35386 47.0947 4.07716 46.6553C3.80047 46.2158 3.6133 45.7357 3.51564 45.2148L2.78322 40.6738C2.75067 40.4785 2.64487 40.3239 2.46583 40.21C2.2868 40.096 2.09962 40.0553 1.90431 40.0879C1.80665 40.0879 1.71714 40.1204 1.63576 40.1855C1.55438 40.2507 1.48113 40.3158 1.41603 40.3809C1.35093 40.446 1.31024 40.5273 1.29396 40.625C1.27768 40.7227 1.26955 40.8203 1.26955 40.918L2.0508 45.4102C2.14845 46.1263 2.39259 46.7936 2.78322 47.4121C3.17384 48.0306 3.6784 48.5514 4.29689 48.9746C4.75262 49.3001 5.25718 49.5524 5.81056 49.7314C6.36395 49.9105 6.93361 50 7.51955 50C7.68231 50 7.83693 49.9919 7.98341 49.9756C8.1299 49.9593 8.28452 49.9512 8.44728 49.9512L20.5567 47.998C22.0866 47.7702 23.2992 47.0459 24.1943 45.8252C25.0895 44.6045 25.4232 43.2617 25.1953 41.7969ZM44.4336 25.8789H32.1289C30.599 25.8789 29.2888 26.4079 28.1983 27.4658C27.1078 28.5238 26.5625 29.8014 26.5625 31.2988V35.3027C26.5625 35.4004 26.5788 35.4899 26.6113 35.5713C26.6439 35.6527 26.6927 35.7259 26.7578 35.791C26.8229 35.8887 26.9043 35.9538 27.002 35.9863C27.0996 36.0189 27.1973 36.0352 27.2949 36.0352C27.3926 36.0352 27.4902 36.0189 27.5879 35.9863C27.6856 35.9538 27.7669 35.8887 27.832 35.791C27.8972 35.7259 27.946 35.6527 27.9785 35.5713C28.0111 35.4899 28.0274 35.4004 28.0274 35.3027V31.2988C28.0274 30.1921 28.4261 29.2562 29.2236 28.4912C30.0212 27.7262 30.9896 27.3438 32.1289 27.3438H44.4336C45.5404 27.3438 46.4925 27.7262 47.2901 28.4912C48.0876 29.2562 48.4863 30.1921 48.4863 31.2988V43.2617C48.4863 44.3685 48.0876 45.3125 47.2901 46.0938C46.4925 46.875 45.5404 47.2656 44.4336 47.2656H32.1289C30.9896 47.2656 30.0212 46.875 29.2236 46.0938C28.4261 45.3125 28.0274 44.3685 28.0274 43.2617V38.7207C28.0274 38.623 28.0111 38.5254 27.9785 38.4277C27.946 38.3301 27.8972 38.2487 27.832 38.1836C27.7669 38.1185 27.6856 38.0697 27.5879 38.0371C27.4902 38.0046 27.3926 37.9883 27.2949 37.9883C27.1973 37.9883 27.0996 38.0046 27.002 38.0371C26.9043 38.0697 26.8229 38.1185 26.7578 38.1836C26.6927 38.2487 26.6439 38.3301 26.6113 38.4277C26.5788 38.5254 26.5625 38.623 26.5625 38.7207V43.2617C26.5625 44.7591 27.1078 46.0449 28.1983 47.1191C29.2888 48.1934 30.599 48.7305 32.1289 48.7305H44.4336C45.9636 48.7305 47.2738 48.1934 48.3643 47.1191C49.4548 46.0449 50 44.7591 50 43.2617V31.2988C50 29.8014 49.4548 28.5238 48.3643 27.4658C47.2738 26.4079 45.9636 25.8789 44.4336 25.8789Z" fill="#F8B81F"/>
</g>
<defs>
<clipPath id="clip0_1_870">
<rect width="50" height="50" fill="white" transform="matrix(1 0 0 -1 0 50)"/>
</clipPath>
</defs>
</svg>
