<svg width="50" height="50" viewBox="0 0 50 50" fill="none" xmlns="http://www.w3.org/2000/svg">
<g clip-path="url(#clip0_1_920)">
<path d="M1.36719 17.2852C1.5625 17.3503 1.76595 17.4072 1.97754 17.4561C2.18913 17.5049 2.40885 17.5293 2.63672 17.5293C2.76693 17.5293 2.90527 17.5212 3.05176 17.5049C3.19824 17.4886 3.33659 17.4642 3.4668 17.4316C4.31315 17.2689 4.94792 16.8945 5.37109 16.3086C5.79427 15.7227 5.92448 15.0553 5.76172 14.3066L3.90625 5.85938L11.6699 4.15039L13.0371 10.4492C12.8418 10.3841 12.6221 10.3597 12.3779 10.376C12.1338 10.3923 11.8652 10.4167 11.5723 10.4492C10.7259 10.6445 10.0911 11.027 9.66797 11.5967C9.24479 12.1663 9.11458 12.8092 9.27734 13.5254C9.40755 14.1439 9.70866 14.6322 10.1807 14.9902C10.6527 15.3483 11.2142 15.5273 11.8652 15.5273C11.9954 15.5273 12.1257 15.5192 12.2559 15.5029C12.3861 15.4867 12.5163 15.4622 12.6465 15.4297C13.4928 15.2669 14.1276 14.8926 14.5508 14.3066C14.974 13.7207 15.1042 13.0534 14.9414 12.3047L12.5 1.02539C12.4349 0.667316 12.2477 0.390625 11.9385 0.195312C11.6292 0 11.2956 -0.0488281 10.9375 0.0488281L2.88086 1.80664C2.7832 1.80664 2.69369 1.82292 2.6123 1.85547C2.53092 1.88802 2.45768 1.93685 2.39258 2.00195C2.32747 2.0345 2.26237 2.08333 2.19727 2.14844C2.13216 2.21354 2.08333 2.27864 2.05078 2.34375C2.01823 2.44141 1.98568 2.52279 1.95312 2.58789C1.92057 2.653 1.88802 2.73438 1.85547 2.83203C1.85547 2.92969 1.85547 3.01921 1.85547 3.10059C1.85547 3.18196 1.85547 3.25521 1.85547 3.32031L3.85742 12.4512C3.62956 12.3861 3.39355 12.3617 3.14941 12.3779C2.90527 12.3942 2.65299 12.4349 2.39258 12.5C2.00195 12.5651 1.65202 12.679 1.34277 12.8418C1.03353 13.0046 0.78125 13.2161 0.585938 13.4766C0.325521 13.7695 0.154622 14.0951 0.0732422 14.4531C-0.00813802 14.8112 -0.016276 15.1855 0.0488281 15.5762C0.146484 15.9342 0.309245 16.2679 0.537109 16.5771C0.764974 16.8864 1.04167 17.1224 1.36719 17.2852ZM12.3535 14.0137C12.1908 14.0462 11.8978 14.0544 11.4746 14.0381C11.0514 14.0218 10.791 13.7533 10.6934 13.2324C10.5957 12.7767 10.7096 12.4593 11.0352 12.2803C11.3607 12.1012 11.6536 11.9792 11.9141 11.9141C12.0117 11.8815 12.1012 11.8571 12.1826 11.8408C12.264 11.8245 12.3535 11.8164 12.4512 11.8164C12.7116 11.8164 12.9395 11.8734 13.1348 11.9873C13.3301 12.1012 13.4603 12.3047 13.5254 12.5977C13.623 13.1185 13.4928 13.4766 13.1348 13.6719C12.7767 13.8672 12.5163 13.9811 12.3535 14.0137ZM11.084 1.51367L11.377 2.73438L3.61328 4.39453L3.32031 3.17383L11.084 1.51367ZM1.66016 14.4531C1.79036 14.3229 1.94499 14.209 2.12402 14.1113C2.30306 14.0137 2.49023 13.9486 2.68555 13.916C2.7832 13.8835 2.88086 13.8591 2.97852 13.8428C3.07617 13.8265 3.17383 13.8184 3.27148 13.8184C3.49935 13.8184 3.71908 13.8753 3.93066 13.9893C4.14225 14.1032 4.2806 14.3066 4.3457 14.5996C4.44336 15.1204 4.31315 15.4785 3.95508 15.6738C3.59701 15.8691 3.33659 15.9831 3.17383 16.0156C2.94596 16.0807 2.73438 16.1051 2.53906 16.0889C2.34375 16.0726 2.16471 16.0319 2.00195 15.9668C1.87174 15.9017 1.76595 15.804 1.68457 15.6738C1.60319 15.5436 1.54622 15.3971 1.51367 15.2344C1.44857 15.0716 1.43229 14.9251 1.46484 14.7949C1.4974 14.6647 1.5625 14.5508 1.66016 14.4531ZM49.9023 36.6211C49.8698 36.556 49.8291 36.4909 49.7803 36.4258C49.7314 36.3607 49.6745 36.2956 49.6094 36.2305C49.5443 36.1654 49.471 36.1084 49.3896 36.0596C49.3083 36.0107 49.235 35.9701 49.1699 35.9375L41.4551 32.959C41.1296 32.8288 40.804 32.8369 40.4785 32.9834C40.153 33.1299 39.9251 33.3659 39.7949 33.6914L36.377 42.3828C36.2467 42.2201 36.0758 42.0736 35.8643 41.9434C35.6527 41.8132 35.4167 41.6992 35.1562 41.6016C34.7982 41.4714 34.4401 41.39 34.082 41.3574C33.724 41.3249 33.3984 41.3411 33.1055 41.4062C32.7474 41.5039 32.43 41.6829 32.1533 41.9434C31.8766 42.2038 31.6569 42.513 31.4941 42.8711C31.3639 43.2617 31.3151 43.6361 31.3477 43.9941C31.3802 44.3522 31.4941 44.694 31.6895 45.0195C31.8522 45.3125 32.0719 45.5729 32.3486 45.8008C32.6253 46.0286 32.9427 46.2077 33.3008 46.3379C33.5286 46.4355 33.7484 46.5007 33.96 46.5332C34.1715 46.5658 34.375 46.582 34.5703 46.582C35.1237 46.582 35.612 46.4437 36.0352 46.167C36.4583 45.8903 36.7676 45.4915 36.9629 44.9707L40.0879 36.9141L47.5098 39.7949L45.166 45.8008C45.0033 45.638 44.8161 45.4915 44.6045 45.3613C44.3929 45.2311 44.1732 45.1172 43.9453 45.0195C43.1315 44.694 42.3828 44.6452 41.6992 44.873C41.0156 45.1009 40.5436 45.5729 40.2832 46.2891C40.153 46.6471 40.096 47.0133 40.1123 47.3877C40.1286 47.762 40.2344 48.112 40.4297 48.4375C40.5924 48.7305 40.8122 48.9827 41.0889 49.1943C41.3656 49.4059 41.6992 49.5931 42.0898 49.7559C42.2852 49.821 42.4967 49.8779 42.7246 49.9268C42.9525 49.9756 43.1641 50 43.3594 50C43.8802 50 44.3522 49.8617 44.7754 49.585C45.1986 49.3083 45.5241 48.9095 45.752 48.3887L49.9023 37.6465C49.9349 37.5488 49.9593 37.4593 49.9756 37.3779C49.9919 37.2965 50 37.2233 50 37.1582C50 37.0605 49.9919 36.971 49.9756 36.8896C49.9593 36.8083 49.9349 36.7188 49.9023 36.6211ZM33.8379 44.9707C33.61 44.9056 33.4229 44.8079 33.2764 44.6777C33.1299 44.5475 33.0078 44.4173 32.9102 44.2871C32.8451 44.1569 32.8044 44.0186 32.7881 43.8721C32.7718 43.7256 32.7962 43.571 32.8613 43.4082C32.9264 43.2454 33.0078 43.1152 33.1055 43.0176C33.2031 42.9199 33.3333 42.8548 33.4961 42.8223C33.5286 42.8223 33.5775 42.8141 33.6426 42.7979C33.7077 42.7816 33.7565 42.7734 33.7891 42.7734C33.9193 42.7734 34.0576 42.7897 34.2041 42.8223C34.3506 42.8548 34.4889 42.9036 34.6191 42.9688C34.847 43.0664 35.0423 43.1722 35.2051 43.2861C35.3678 43.4001 35.4818 43.5221 35.5469 43.6523C35.612 43.75 35.6527 43.8721 35.6689 44.0186C35.6852 44.165 35.6608 44.3197 35.5957 44.4824C35.4004 44.9382 35.0993 45.1497 34.6924 45.1172C34.2855 45.0846 34.0006 45.0358 33.8379 44.9707ZM40.625 35.5469L41.0645 34.375L48.4863 37.2559L48.0469 38.4277L40.625 35.5469ZM42.627 48.3887C42.3991 48.291 42.2119 48.1852 42.0654 48.0713C41.9189 47.9574 41.7969 47.8353 41.6992 47.7051C41.6341 47.5749 41.5934 47.4365 41.5771 47.29C41.5609 47.1436 41.5853 46.9889 41.6504 46.8262C41.748 46.5983 41.8783 46.4355 42.041 46.3379C42.2038 46.2402 42.3828 46.1914 42.5781 46.1914C42.7409 46.1914 42.8874 46.2077 43.0176 46.2402C43.1478 46.2728 43.278 46.3216 43.4082 46.3867C43.6035 46.4518 43.7826 46.5413 43.9453 46.6553C44.1081 46.7692 44.2383 46.8913 44.3359 47.0215C44.401 47.1517 44.4336 47.29 44.4336 47.4365C44.4336 47.583 44.4173 47.7214 44.3848 47.8516C44.1895 48.3398 43.8802 48.5677 43.457 48.5352C43.0339 48.5026 42.7572 48.4538 42.627 48.3887ZM21.5332 46.6309C20.3939 47.4772 19.1406 48.0306 17.7734 48.291C16.4062 48.584 15.0065 48.6165 13.5742 48.3887C12.1419 48.1608 10.7422 47.6888 9.375 46.9727C7.97526 46.2565 6.70573 45.3125 5.56641 44.1406C4.23177 42.7734 3.20638 41.2354 2.49023 39.5264C1.77409 37.8174 1.43229 36.084 1.46484 34.3262C1.4974 32.8939 1.77409 31.5674 2.29492 30.3467C2.81576 29.126 3.54818 28.0599 4.49219 27.1484C5.14323 26.5299 5.89193 26.0091 6.73828 25.5859C7.58464 25.1628 8.47982 24.8698 9.42383 24.707C10.7259 24.4466 11.9385 24.0153 13.0615 23.4131C14.1846 22.8109 15.1855 22.0378 16.0645 21.0938C16.097 21.0612 16.1214 21.0205 16.1377 20.9717C16.154 20.9229 16.1784 20.8822 16.2109 20.8496C16.2109 20.7845 16.2191 20.7357 16.2354 20.7031C16.2516 20.6706 16.2598 20.6217 16.2598 20.5566C16.2272 20.5241 16.2109 20.4834 16.2109 20.4346C16.2109 20.3857 16.1947 20.3288 16.1621 20.2637C16.1621 20.2311 16.1458 20.1986 16.1133 20.166C16.0807 20.1335 16.0482 20.1009 16.0156 20.0684C15.9831 20.0358 15.9424 20.0033 15.8936 19.9707C15.8447 19.9382 15.804 19.9219 15.7715 19.9219C15.7064 19.8893 15.6494 19.873 15.6006 19.873C15.5518 19.873 15.5111 19.873 15.4785 19.873C15.4134 19.873 15.3646 19.873 15.332 19.873C15.2995 19.873 15.2507 19.8893 15.1855 19.9219C15.153 19.9544 15.1204 19.9788 15.0879 19.9951C15.0553 20.0114 15.0228 20.0358 14.9902 20.0684C14.209 20.9147 13.3301 21.6064 12.3535 22.1436C11.377 22.6807 10.319 23.0469 9.17969 23.2422C8.07292 23.4375 7.03939 23.7793 6.0791 24.2676C5.11881 24.7559 4.24805 25.3743 3.4668 26.123C2.39258 27.1322 1.55436 28.3447 0.952148 29.7607C0.349935 31.1768 0.0325521 32.6823 2.32831e-10 34.2773C-0.0325521 36.2305 0.341797 38.1592 1.12305 40.0635C1.9043 41.9678 3.04362 43.6686 4.54102 45.166C6.07096 46.7611 7.79622 47.9655 9.7168 48.7793C11.6374 49.5931 13.5579 50 15.4785 50C16.7155 50 17.9199 49.821 19.0918 49.4629C20.2637 49.1048 21.3542 48.5677 22.3633 47.8516C22.4609 47.7865 22.5342 47.7132 22.583 47.6318C22.6318 47.5505 22.6562 47.4609 22.6562 47.3633C22.6562 47.2656 22.6481 47.168 22.6318 47.0703C22.6156 46.9727 22.5749 46.8913 22.5098 46.8262C22.4772 46.7285 22.4202 46.6553 22.3389 46.6064C22.2575 46.5576 22.168 46.5332 22.0703 46.5332C21.9727 46.5007 21.875 46.5007 21.7773 46.5332C21.6797 46.5658 21.5983 46.5983 21.5332 46.6309ZM34.1797 31.9336C34.9284 31.1523 35.4818 30.2816 35.8398 29.3213C36.1979 28.361 36.3444 27.3275 36.2793 26.2207C36.2142 25.3418 36.0189 24.4466 35.6934 23.5352C35.3678 22.6237 34.9284 21.7122 34.375 20.8008L39.0137 16.1621C39.0462 16.1296 39.0788 16.0889 39.1113 16.04C39.1439 15.9912 39.1764 15.9505 39.209 15.918C39.209 15.8529 39.2171 15.7959 39.2334 15.7471C39.2497 15.6982 39.2578 15.6576 39.2578 15.625C39.2578 15.5924 39.2497 15.5518 39.2334 15.5029C39.2171 15.4541 39.209 15.3971 39.209 15.332C39.1764 15.2995 39.1439 15.2588 39.1113 15.21C39.0788 15.1611 39.0462 15.1204 39.0137 15.0879C38.9811 15.0553 38.9486 15.0309 38.916 15.0146C38.8835 14.9984 38.8346 14.974 38.7695 14.9414C38.737 14.9414 38.6963 14.9333 38.6475 14.917C38.5986 14.9007 38.5579 14.8926 38.5254 14.8926C38.4603 14.8926 38.4033 14.9007 38.3545 14.917C38.3057 14.9333 38.265 14.9414 38.2324 14.9414C38.1999 14.974 38.1592 14.9984 38.1104 15.0146C38.0615 15.0309 38.0208 15.0553 37.9883 15.0879L25.0488 28.0762C24.8861 27.7181 24.6989 27.3844 24.4873 27.0752C24.2757 26.766 24.0397 26.4811 23.7793 26.2207C23.5189 25.9277 23.2341 25.6755 22.9248 25.4639C22.6156 25.2523 22.2819 25.0814 21.9238 24.9512L37.1582 9.7168L40.2832 12.793L40.1855 12.8906C40.153 12.9557 40.1204 13.0208 40.0879 13.0859C40.0553 13.151 40.0228 13.2161 39.9902 13.2812C39.9902 13.3464 39.9902 13.4115 39.9902 13.4766C39.9902 13.5417 40.0065 13.623 40.0391 13.7207C40.0716 13.7858 40.1123 13.8428 40.1611 13.8916C40.21 13.9404 40.2669 13.9811 40.332 14.0137C40.3646 14.0462 40.4215 14.0788 40.5029 14.1113C40.5843 14.1439 40.6576 14.1602 40.7227 14.1602C40.8203 14.1602 40.9098 14.1439 40.9912 14.1113C41.0726 14.0788 41.1621 14.0137 41.2598 13.916L41.4062 13.7695C41.4714 13.7695 41.5365 13.7777 41.6016 13.7939C41.6667 13.8102 41.7318 13.8184 41.7969 13.8184C41.8945 13.8184 41.984 13.8021 42.0654 13.7695C42.1468 13.737 42.2201 13.7044 42.2852 13.6719C42.3828 13.6393 42.4642 13.5986 42.5293 13.5498C42.5944 13.501 42.6432 13.444 42.6758 13.3789L43.457 12.5L44.2871 13.3301C44.3197 13.3626 44.3604 13.3952 44.4092 13.4277C44.458 13.4603 44.4987 13.4928 44.5312 13.5254C44.5964 13.5254 44.6452 13.5335 44.6777 13.5498C44.7103 13.5661 44.7591 13.5742 44.8242 13.5742C44.9219 13.5742 45.0114 13.5498 45.0928 13.501C45.1742 13.4521 45.2637 13.3952 45.3613 13.3301C45.3939 13.2975 45.4183 13.265 45.4346 13.2324C45.4508 13.1999 45.4753 13.151 45.5078 13.0859C45.5078 13.0534 45.5159 13.0127 45.5322 12.9639C45.5485 12.915 45.5566 12.8743 45.5566 12.8418C45.5566 12.7767 45.5485 12.7197 45.5322 12.6709C45.5159 12.6221 45.5078 12.5814 45.5078 12.5488C45.4753 12.5163 45.4508 12.4756 45.4346 12.4268C45.4183 12.3779 45.3939 12.3372 45.3613 12.3047L44.4336 11.4258L45.6543 10.0098L46.5332 10.8887C46.5658 10.9212 46.6064 10.9538 46.6553 10.9863C46.7041 11.0189 46.7448 11.0352 46.7773 11.0352C46.8099 11.0677 46.8506 11.084 46.8994 11.084C46.9482 11.084 47.0052 11.084 47.0703 11.084C47.1354 11.084 47.2005 11.0758 47.2656 11.0596C47.3307 11.0433 47.3958 11.0189 47.4609 10.9863C47.526 10.9538 47.583 10.9049 47.6318 10.8398C47.6807 10.7747 47.7051 10.7096 47.7051 10.6445C47.7376 10.5794 47.762 10.5143 47.7783 10.4492C47.7946 10.3841 47.7865 10.3027 47.7539 10.2051C47.7539 10.14 47.7376 10.0749 47.7051 10.0098C47.6725 9.94466 47.6237 9.89583 47.5586 9.86328L46.6309 8.93555L47.8516 7.51953L48.4863 8.1543C48.5189 8.18685 48.5514 8.2194 48.584 8.25195C48.6165 8.2845 48.6654 8.31706 48.7305 8.34961C48.763 8.34961 48.8037 8.35775 48.8525 8.37402C48.9014 8.3903 48.9421 8.39844 48.9746 8.39844C49.0723 8.39844 49.1536 8.38216 49.2188 8.34961C49.2839 8.31706 49.349 8.2845 49.4141 8.25195C49.4792 8.2194 49.528 8.17871 49.5605 8.12988C49.5931 8.08105 49.6256 8.00781 49.6582 7.91016C49.6908 7.84505 49.7152 7.77995 49.7314 7.71484C49.7477 7.64974 49.7396 7.58464 49.707 7.51953C49.707 7.45443 49.6908 7.38932 49.6582 7.32422C49.6256 7.25911 49.5768 7.19401 49.5117 7.12891L48.8281 6.44531L49.707 5.41992C49.9023 5.19206 50 4.91536 50 4.58984C50 4.26432 49.8861 3.98763 49.6582 3.75977L46.2402 0.341797C46.0124 0.113934 45.7357 0 45.4102 0C45.0846 0 44.8079 0.0976562 44.5801 0.292969L43.5547 1.17188L42.8711 0.488281C42.806 0.423176 42.7246 0.374348 42.627 0.341797C42.5293 0.309246 42.4316 0.292969 42.334 0.292969C42.2363 0.292969 42.1468 0.309246 42.0654 0.341797C41.984 0.374348 41.9108 0.423176 41.8457 0.488281C41.7806 0.553387 41.7236 0.634766 41.6748 0.732422C41.626 0.830078 41.6016 0.927734 41.6016 1.02539C41.6016 1.12305 41.626 1.21257 41.6748 1.29395C41.7236 1.37532 41.7806 1.44857 41.8457 1.51367L42.4805 2.14844L41.0645 3.36914L40.1367 2.44141C40.1042 2.40886 40.0635 2.3763 40.0146 2.34375C39.9658 2.3112 39.9251 2.27864 39.8926 2.24609C39.86 2.24609 39.8193 2.23796 39.7705 2.22168C39.7217 2.2054 39.6647 2.19727 39.5996 2.19727C39.5671 2.19727 39.5264 2.2054 39.4775 2.22168C39.4287 2.23796 39.388 2.24609 39.3555 2.24609C39.2904 2.27864 39.2415 2.3112 39.209 2.34375C39.1764 2.3763 39.1439 2.40886 39.1113 2.44141C39.0788 2.47396 39.0462 2.50651 39.0137 2.53906C38.9811 2.57161 38.9648 2.60417 38.9648 2.63672C38.9323 2.70182 38.9079 2.75879 38.8916 2.80762C38.8753 2.85645 38.8672 2.89714 38.8672 2.92969C38.8672 2.99479 38.8753 3.05176 38.8916 3.10059C38.9079 3.14941 38.9323 3.19011 38.9648 3.22266C38.9648 3.25521 38.9811 3.2959 39.0137 3.34473C39.0462 3.39355 39.0788 3.43425 39.1113 3.4668L39.9902 4.3457L38.5742 5.56641L37.6953 4.63867C37.6628 4.60612 37.6221 4.58171 37.5732 4.56543C37.5244 4.54915 37.4837 4.52474 37.4512 4.49219C37.4186 4.49219 37.3779 4.48405 37.3291 4.46777C37.2803 4.4515 37.2233 4.44336 37.1582 4.44336C37.1256 4.44336 37.085 4.4515 37.0361 4.46777C36.9873 4.48405 36.9466 4.49219 36.9141 4.49219C36.849 4.52474 36.8001 4.54915 36.7676 4.56543C36.735 4.58171 36.7025 4.60612 36.6699 4.63867C36.6374 4.67122 36.6048 4.71191 36.5723 4.76074C36.5397 4.80957 36.5072 4.85026 36.4746 4.88281C36.4746 4.94792 36.4665 5.00488 36.4502 5.05371C36.4339 5.10254 36.4258 5.14323 36.4258 5.17578C36.4258 5.24089 36.4339 5.28971 36.4502 5.32227C36.4665 5.35482 36.4746 5.40364 36.4746 5.46875C36.5072 5.5013 36.5397 5.54199 36.5723 5.59082C36.6048 5.63965 36.6374 5.68034 36.6699 5.71289L37.5 6.54297L36.6211 7.32422C36.556 7.35677 36.499 7.4056 36.4502 7.4707C36.4014 7.53581 36.3607 7.61719 36.3281 7.71484C36.2956 7.77995 36.263 7.85319 36.2305 7.93457C36.1979 8.01595 36.1816 8.08919 36.1816 8.1543C36.1816 8.25195 36.1898 8.3252 36.2061 8.37402C36.2223 8.42285 36.2305 8.47982 36.2305 8.54492L29.1992 15.625C27.1159 14.2904 25.1058 13.623 23.1689 13.623C21.2321 13.623 19.5964 14.2904 18.2617 15.625C17.9036 15.9831 17.5944 16.3249 17.334 16.6504C17.0736 16.9759 16.8457 17.3177 16.6504 17.6758C16.6178 17.7083 16.5934 17.749 16.5771 17.7979C16.5609 17.8467 16.5527 17.8874 16.5527 17.9199C16.5527 17.985 16.5527 18.042 16.5527 18.0908C16.5527 18.1396 16.569 18.1803 16.6016 18.2129C16.6016 18.278 16.6097 18.3268 16.626 18.3594C16.6423 18.3919 16.6667 18.4408 16.6992 18.5059C16.7318 18.5384 16.7643 18.571 16.7969 18.6035C16.8294 18.6361 16.8783 18.6523 16.9434 18.6523C16.9759 18.6849 17.0166 18.7093 17.0654 18.7256C17.1143 18.7419 17.1549 18.75 17.1875 18.75C17.2526 18.75 17.3096 18.75 17.3584 18.75C17.4072 18.75 17.4479 18.75 17.4805 18.75C17.513 18.7174 17.5537 18.693 17.6025 18.6768C17.6514 18.6605 17.6921 18.6361 17.7246 18.6035C17.7572 18.571 17.7897 18.5384 17.8223 18.5059C17.8548 18.4733 17.8874 18.4408 17.9199 18.4082C18.0827 18.1152 18.278 17.8223 18.5059 17.5293C18.7337 17.2363 18.9941 16.9434 19.2871 16.6504C20.752 15.2181 22.347 14.7217 24.0723 15.1611C25.7975 15.6006 27.1484 16.1133 28.125 16.6992L20.2637 24.5605C20.166 24.5605 20.0846 24.5605 20.0195 24.5605C19.9544 24.5605 19.8893 24.5605 19.8242 24.5605C19.0755 24.5605 18.3594 24.6989 17.6758 24.9756C16.9922 25.2523 16.39 25.6673 15.8691 26.2207C15.3158 26.7415 14.9007 27.3438 14.624 28.0273C14.3473 28.7109 14.209 29.4271 14.209 30.1758C14.209 30.9245 14.3473 31.6406 14.624 32.3242C14.9007 33.0078 15.3158 33.61 15.8691 34.1309C16.39 34.6517 16.9922 35.0586 17.6758 35.3516C18.3594 35.6445 19.0755 35.791 19.8242 35.791C20.5729 35.791 21.2891 35.6445 21.9727 35.3516C22.6562 35.0586 23.2585 34.6517 23.7793 34.1309C24.3327 33.61 24.7477 33.0078 25.0244 32.3242C25.3011 31.6406 25.4395 30.9245 25.4395 30.1758C25.4395 30.1107 25.4395 30.0374 25.4395 29.9561C25.4395 29.8747 25.4395 29.8014 25.4395 29.7363L33.3008 21.875C33.8542 22.8516 34.3424 24.2188 34.7656 25.9766C35.1888 27.7344 34.6354 29.3783 33.1055 30.9082C32.8776 31.1361 32.6253 31.3558 32.3486 31.5674C32.0719 31.779 31.7871 31.9661 31.4941 32.1289C29.834 33.0404 28.4668 34.2204 27.3926 35.6689C26.3184 37.1175 25.6185 38.737 25.293 40.5273C25.1628 41.3086 24.9512 42.0329 24.6582 42.7002C24.3652 43.3675 23.9909 44.0104 23.5352 44.6289C23.4375 44.7917 23.4049 44.9707 23.4375 45.166C23.4701 45.3613 23.5677 45.5241 23.7305 45.6543C23.7956 45.6868 23.8607 45.7194 23.9258 45.752C23.9909 45.7845 24.0723 45.8008 24.1699 45.8008C24.2025 45.8008 24.2513 45.7926 24.3164 45.7764C24.3815 45.7601 24.4303 45.7357 24.4629 45.7031C24.528 45.6706 24.585 45.638 24.6338 45.6055C24.6826 45.5729 24.7233 45.5241 24.7559 45.459C25.2441 44.7754 25.6592 44.043 26.001 43.2617C26.3428 42.4805 26.5788 41.6667 26.709 40.8203C27.0345 39.2253 27.6611 37.793 28.5889 36.5234C29.5166 35.2539 30.7129 34.2122 32.1777 33.3984C32.5358 33.2031 32.8857 32.9834 33.2275 32.7393C33.5693 32.4951 33.8867 32.2266 34.1797 31.9336ZM45.3613 1.5625L48.4375 4.63867L41.748 12.207L37.793 8.25195L45.3613 1.5625ZM22.7539 33.1055C22.3633 33.4961 21.9157 33.7972 21.4111 34.0088C20.9066 34.2204 20.3776 34.3262 19.8242 34.3262C19.2708 34.3262 18.7419 34.2204 18.2373 34.0088C17.7327 33.7972 17.2852 33.4961 16.8945 33.1055C16.5039 32.7148 16.2028 32.2673 15.9912 31.7627C15.7796 31.2581 15.6738 30.7292 15.6738 30.1758C15.6738 29.6224 15.7796 29.0934 15.9912 28.5889C16.2028 28.0843 16.5039 27.6367 16.8945 27.2461C17.2852 26.8555 17.7327 26.5544 18.2373 26.3428C18.7419 26.1312 19.2708 26.0254 19.8242 26.0254C20.3776 26.0254 20.9066 26.1312 21.4111 26.3428C21.9157 26.5544 22.3633 26.8555 22.7539 27.2461C23.1445 27.6367 23.4456 28.0843 23.6572 28.5889C23.8688 29.0934 23.9746 29.6224 23.9746 30.1758C23.9746 30.7292 23.8688 31.2581 23.6572 31.7627C23.4456 32.2673 23.1445 32.7148 22.7539 33.1055ZM6.25 32.7148C5.72917 33.2031 5.46875 33.7972 5.46875 34.4971C5.46875 35.1969 5.72917 35.791 6.25 36.2793L13.7207 43.75C13.9486 44.0104 14.2253 44.1976 14.5508 44.3115C14.8763 44.4255 15.1855 44.4824 15.4785 44.4824C15.804 44.4824 16.1296 44.4255 16.4551 44.3115C16.7806 44.1976 17.0573 44.0104 17.2852 43.75C17.7734 43.2617 18.0176 42.6676 18.0176 41.9678C18.0176 41.2679 17.7734 40.6738 17.2852 40.1855L9.81445 32.7148C9.58659 32.4544 9.31803 32.2591 9.00879 32.1289C8.69954 31.9987 8.36588 31.9336 8.00781 31.9336C7.68229 31.9336 7.36491 31.9987 7.05566 32.1289C6.74642 32.2591 6.47786 32.4544 6.25 32.7148ZM16.2598 41.2109C16.4551 41.4062 16.5527 41.6585 16.5527 41.9678C16.5527 42.277 16.4551 42.5293 16.2598 42.7246C16.0645 42.9199 15.8122 43.0176 15.5029 43.0176C15.1937 43.0176 14.9414 42.9199 14.7461 42.7246L7.27539 35.2539C7.04753 35.026 6.93359 34.7656 6.93359 34.4727C6.93359 34.1797 7.04753 33.9355 7.27539 33.7402C7.30794 33.6751 7.35677 33.6263 7.42187 33.5938C7.48698 33.5612 7.55208 33.5286 7.61719 33.4961C7.68229 33.4635 7.7474 33.4391 7.8125 33.4229C7.8776 33.4066 7.94271 33.3984 8.00781 33.3984C8.17057 33.3984 8.31706 33.431 8.44727 33.4961C8.57747 33.5612 8.69141 33.6426 8.78906 33.7402L16.2598 41.2109ZM36.8164 15.4785C36.849 15.4785 36.8896 15.4704 36.9385 15.4541C36.9873 15.4378 37.0443 15.4297 37.1094 15.4297C37.1419 15.3971 37.1826 15.3646 37.2314 15.332C37.2803 15.2995 37.321 15.2669 37.3535 15.2344C37.4837 15.1042 37.5488 14.9333 37.5488 14.7217C37.5488 14.5101 37.4837 14.3392 37.3535 14.209L35.791 12.6465C35.6934 12.5814 35.6038 12.5326 35.5225 12.5C35.4411 12.4674 35.3516 12.4512 35.2539 12.4512C35.1562 12.4512 35.0586 12.4674 34.9609 12.5C34.8633 12.5326 34.7819 12.5814 34.7168 12.6465C34.6842 12.679 34.6598 12.7197 34.6436 12.7686C34.6273 12.8174 34.6029 12.8581 34.5703 12.8906C34.5703 12.9232 34.5622 12.9639 34.5459 13.0127C34.5296 13.0615 34.5215 13.1185 34.5215 13.1836C34.5215 13.2161 34.5296 13.2568 34.5459 13.3057C34.5622 13.3545 34.5703 13.3952 34.5703 13.4277C34.6029 13.4928 34.6273 13.5417 34.6436 13.5742C34.6598 13.6068 34.6842 13.6393 34.7168 13.6719L36.2793 15.2344C36.3118 15.2669 36.3525 15.2995 36.4014 15.332C36.4502 15.3646 36.4909 15.3971 36.5234 15.4297C36.5885 15.4297 36.6455 15.4378 36.6943 15.4541C36.7432 15.4704 36.7839 15.4785 36.8164 15.4785ZM34.668 17.627C34.7331 17.627 34.7982 17.6188 34.8633 17.6025C34.9284 17.5863 34.9935 17.5456 35.0586 17.4805C35.1237 17.4479 35.1807 17.4072 35.2295 17.3584C35.2783 17.3096 35.319 17.2526 35.3516 17.1875C35.3516 17.1224 35.3597 17.0492 35.376 16.9678C35.3923 16.8864 35.3841 16.8132 35.3516 16.748C35.3516 16.6829 35.3353 16.6178 35.3027 16.5527C35.2702 16.4876 35.2214 16.4225 35.1562 16.3574L33.5938 14.7949C33.5286 14.7298 33.4554 14.681 33.374 14.6484C33.2926 14.6159 33.2031 14.5996 33.1055 14.5996C33.0078 14.5996 32.9102 14.6159 32.8125 14.6484C32.7148 14.681 32.6335 14.7298 32.5684 14.7949C32.5358 14.8275 32.5033 14.8682 32.4707 14.917C32.4381 14.9658 32.4219 15.0065 32.4219 15.0391C32.3893 15.1042 32.373 15.1611 32.373 15.21C32.373 15.2588 32.373 15.2995 32.373 15.332C32.373 15.3646 32.373 15.4053 32.373 15.4541C32.373 15.5029 32.3893 15.5599 32.4219 15.625C32.4219 15.6576 32.4381 15.6982 32.4707 15.7471C32.5033 15.7959 32.5358 15.8366 32.5684 15.8691L34.1309 17.4316C34.1634 17.4642 34.2041 17.4886 34.2529 17.5049C34.3018 17.5212 34.3424 17.5456 34.375 17.5781C34.4076 17.5781 34.4482 17.5863 34.4971 17.6025C34.5459 17.6188 34.6029 17.627 34.668 17.627ZM32.4707 19.7754C32.5684 19.7754 32.6497 19.7673 32.7148 19.751C32.7799 19.7347 32.8451 19.7103 32.9102 19.6777C32.9753 19.6452 33.0241 19.5964 33.0566 19.5312C33.0892 19.4661 33.1217 19.401 33.1543 19.3359C33.1868 19.2708 33.2031 19.2057 33.2031 19.1406C33.2031 19.0755 33.2031 18.9941 33.2031 18.8965C33.2031 18.8314 33.1868 18.7663 33.1543 18.7012C33.1217 18.6361 33.0729 18.5872 33.0078 18.5547L31.4453 16.9922C31.4128 16.9596 31.3721 16.9271 31.3232 16.8945C31.2744 16.862 31.2337 16.8294 31.2012 16.7969C31.1686 16.7969 31.1279 16.7887 31.0791 16.7725C31.0303 16.7562 30.9733 16.748 30.9082 16.748C30.8757 16.748 30.835 16.7562 30.7861 16.7725C30.7373 16.7887 30.6966 16.7969 30.6641 16.7969C30.599 16.8294 30.5501 16.862 30.5176 16.8945C30.485 16.9271 30.4525 16.9596 30.4199 16.9922C30.3874 17.0247 30.3548 17.0573 30.3223 17.0898C30.2897 17.1224 30.2572 17.1712 30.2246 17.2363C30.2246 17.2689 30.2165 17.3096 30.2002 17.3584C30.1839 17.4072 30.1758 17.4479 30.1758 17.4805C30.1758 17.5456 30.1839 17.6025 30.2002 17.6514C30.2165 17.7002 30.2246 17.7409 30.2246 17.7734C30.2572 17.806 30.2897 17.8467 30.3223 17.8955C30.3548 17.9443 30.3874 17.985 30.4199 18.0176L31.9824 19.5801C32.015 19.6126 32.0475 19.6452 32.0801 19.6777C32.1126 19.7103 32.1615 19.7266 32.2266 19.7266C32.2591 19.7591 32.2998 19.7754 32.3486 19.7754C32.3975 19.7754 32.4381 19.7754 32.4707 19.7754ZM30.3223 21.9727C30.3874 21.9727 30.4525 21.9564 30.5176 21.9238C30.5827 21.8913 30.6478 21.8587 30.7129 21.8262C30.778 21.7936 30.835 21.7448 30.8838 21.6797C30.9326 21.6146 30.9733 21.5495 31.0059 21.4844C31.0384 21.4193 31.0547 21.3542 31.0547 21.2891C31.0547 21.224 31.0547 21.1589 31.0547 21.0938C31.0221 21.0286 30.9896 20.9635 30.957 20.8984C30.9245 20.8333 30.8919 20.7682 30.8594 20.7031L29.2969 19.1406C29.2643 19.1081 29.2236 19.0755 29.1748 19.043C29.126 19.0104 29.0853 18.9941 29.0527 18.9941C28.9876 18.9616 28.9307 18.9453 28.8818 18.9453C28.833 18.9453 28.7923 18.9453 28.7598 18.9453C28.7272 18.9453 28.6865 18.9453 28.6377 18.9453C28.5889 18.9453 28.5319 18.9616 28.4668 18.9941C28.4342 18.9941 28.3936 19.0104 28.3447 19.043C28.2959 19.0755 28.2552 19.1081 28.2227 19.1406C28.1901 19.1732 28.1657 19.2139 28.1494 19.2627C28.1331 19.3115 28.1087 19.3522 28.0762 19.3848C28.0762 19.4173 28.068 19.458 28.0518 19.5068C28.0355 19.5557 28.0273 19.6126 28.0273 19.6777C28.0273 19.7103 28.0355 19.751 28.0518 19.7998C28.068 19.8486 28.0762 19.8893 28.0762 19.9219C28.1087 19.987 28.1331 20.0358 28.1494 20.0684C28.1657 20.1009 28.1901 20.1335 28.2227 20.166L29.7852 21.7285C29.8177 21.7611 29.8584 21.7936 29.9072 21.8262C29.9561 21.8587 29.9967 21.8913 30.0293 21.9238C30.0944 21.9238 30.1514 21.932 30.2002 21.9482C30.249 21.9645 30.2897 21.9727 30.3223 21.9727ZM26.0742 21.2891C26.0417 21.3216 26.0091 21.3623 25.9766 21.4111C25.944 21.46 25.9277 21.5007 25.9277 21.5332C25.8952 21.5983 25.8789 21.6553 25.8789 21.7041C25.8789 21.7529 25.8789 21.7936 25.8789 21.8262C25.8789 21.8587 25.8789 21.8994 25.8789 21.9482C25.8789 21.9971 25.8952 22.054 25.9277 22.1191C25.9277 22.1517 25.944 22.1924 25.9766 22.2412C26.0091 22.29 26.0417 22.3307 26.0742 22.3633L27.6367 23.9258C27.6693 23.9583 27.71 23.9827 27.7588 23.999C27.8076 24.0153 27.8483 24.0397 27.8809 24.0723C27.9134 24.0723 27.9541 24.0804 28.0029 24.0967C28.0518 24.113 28.1087 24.1211 28.1738 24.1211C28.2389 24.1211 28.304 24.113 28.3691 24.0967C28.4342 24.0804 28.4993 24.0397 28.5645 23.9746C28.6296 23.9421 28.6865 23.9014 28.7353 23.8525C28.7842 23.8037 28.8249 23.7467 28.8574 23.6816C28.8574 23.6165 28.8656 23.5433 28.8818 23.4619C28.8981 23.3805 28.89 23.3073 28.8574 23.2422C28.8574 23.1771 28.8411 23.112 28.8086 23.0469C28.776 22.9818 28.7272 22.9167 28.6621 22.8516L27.0996 21.2891C27.0671 21.2565 27.0345 21.2321 27.002 21.2158C26.9694 21.1995 26.9206 21.1751 26.8555 21.1426C26.8229 21.1426 26.7822 21.1344 26.7334 21.1182C26.6846 21.1019 26.6439 21.0938 26.6113 21.0938C26.5462 21.0938 26.4893 21.1019 26.4404 21.1182C26.3916 21.1344 26.3509 21.1426 26.3184 21.1426C26.2858 21.1751 26.2451 21.1995 26.1963 21.2158C26.1475 21.2321 26.1068 21.2565 26.0742 21.2891ZM40.7715 7.4707C40.7389 7.43815 40.7064 7.4056 40.6738 7.37305C40.6413 7.3405 40.5924 7.32422 40.5273 7.32422C40.4948 7.29167 40.4541 7.27539 40.4053 7.27539C40.3564 7.27539 40.3158 7.27539 40.2832 7.27539C40.2181 7.27539 40.1611 7.27539 40.1123 7.27539C40.0635 7.27539 40.0228 7.29167 39.9902 7.32422C39.9577 7.32422 39.917 7.3405 39.8682 7.37305C39.8193 7.4056 39.7786 7.43815 39.7461 7.4707C39.7135 7.50325 39.681 7.54395 39.6484 7.59277C39.6159 7.6416 39.5996 7.68229 39.5996 7.71484C39.5671 7.74739 39.5508 7.78809 39.5508 7.83691C39.5508 7.88574 39.5508 7.94271 39.5508 8.00781C39.5508 8.04036 39.5508 8.08105 39.5508 8.12988C39.5508 8.17871 39.5671 8.2194 39.5996 8.25195C39.5996 8.31706 39.6159 8.36589 39.6484 8.39844C39.681 8.43099 39.7135 8.46354 39.7461 8.49609C39.7786 8.52864 39.8193 8.5612 39.8682 8.59375C39.917 8.6263 39.9577 8.65886 39.9902 8.69141C40.0228 8.69141 40.0635 8.69954 40.1123 8.71582C40.1611 8.7321 40.2181 8.74023 40.2832 8.74023C40.3158 8.74023 40.3564 8.7321 40.4053 8.71582C40.4541 8.69954 40.4948 8.69141 40.5273 8.69141C40.5924 8.65886 40.6413 8.6263 40.6738 8.59375C40.7064 8.5612 40.7389 8.52864 40.7715 8.49609C40.804 8.46354 40.8366 8.43099 40.8691 8.39844C40.9017 8.36589 40.918 8.31706 40.918 8.25195C40.9505 8.2194 40.9749 8.17871 40.9912 8.12988C41.0075 8.08105 41.0156 8.04036 41.0156 8.00781C41.0156 7.94271 41.0075 7.88574 40.9912 7.83691C40.9749 7.78809 40.9505 7.74739 40.918 7.71484C40.918 7.68229 40.9017 7.6416 40.8691 7.59277C40.8366 7.54395 40.804 7.50325 40.7715 7.4707ZM42.5293 9.22852C42.4967 9.19596 42.4642 9.16341 42.4316 9.13086C42.3991 9.09831 42.3503 9.06575 42.2852 9.0332C42.2526 9.0332 42.2119 9.02507 42.1631 9.00879C42.1143 8.99251 42.0736 8.98438 42.041 8.98438C41.9759 8.98438 41.9189 8.99251 41.8701 9.00879C41.8213 9.02507 41.7806 9.0332 41.748 9.0332C41.7155 9.06575 41.6748 9.09831 41.626 9.13086C41.5771 9.16341 41.5365 9.19596 41.5039 9.22852C41.3737 9.35872 41.3086 9.52962 41.3086 9.74121C41.3086 9.9528 41.3737 10.1237 41.5039 10.2539C41.5365 10.2865 41.5771 10.319 41.626 10.3516C41.6748 10.3841 41.7155 10.4004 41.748 10.4004C41.7806 10.4329 41.8213 10.4492 41.8701 10.4492C41.9189 10.4492 41.9759 10.4492 42.041 10.4492C42.0736 10.4492 42.1143 10.4492 42.1631 10.4492C42.2119 10.4492 42.2526 10.4329 42.2852 10.4004C42.3503 10.4004 42.3991 10.3841 42.4316 10.3516C42.4642 10.319 42.4967 10.2865 42.5293 10.2539C42.6921 10.1237 42.7734 9.9528 42.7734 9.74121C42.7734 9.52962 42.6921 9.35872 42.5293 9.22852ZM42.9688 5.27344C42.9362 5.24089 42.9036 5.20833 42.8711 5.17578C42.8385 5.14323 42.7897 5.12695 42.7246 5.12695C42.6921 5.0944 42.6514 5.07812 42.6025 5.07812C42.5537 5.07812 42.513 5.07812 42.4805 5.07812C42.4154 5.07812 42.3584 5.07812 42.3096 5.07812C42.2607 5.07812 42.2201 5.0944 42.1875 5.12695C42.1549 5.12695 42.1143 5.14323 42.0654 5.17578C42.0166 5.20833 41.9759 5.24089 41.9434 5.27344C41.9108 5.30599 41.8783 5.33854 41.8457 5.37109C41.8131 5.40364 41.7969 5.45247 41.7969 5.51758C41.7643 5.55013 41.748 5.59082 41.748 5.63965C41.748 5.68848 41.748 5.74544 41.748 5.81055C41.748 5.8431 41.748 5.88379 41.748 5.93262C41.748 5.98145 41.7643 6.02214 41.7969 6.05469C41.7969 6.11979 41.8131 6.16862 41.8457 6.20117C41.8783 6.23372 41.9108 6.26628 41.9434 6.29883C41.9759 6.33138 42.0166 6.36393 42.0654 6.39648C42.1143 6.42904 42.1549 6.44531 42.1875 6.44531C42.2201 6.47786 42.2607 6.50228 42.3096 6.51855C42.3584 6.53483 42.4154 6.54297 42.4805 6.54297C42.513 6.54297 42.5537 6.53483 42.6025 6.51855C42.6514 6.50228 42.6921 6.47786 42.7246 6.44531C42.7897 6.44531 42.8385 6.42904 42.8711 6.39648C42.9036 6.36393 42.9362 6.33138 42.9688 6.29883C43.0013 6.26628 43.0339 6.23372 43.0664 6.20117C43.099 6.16862 43.1315 6.11979 43.1641 6.05469C43.1641 6.02214 43.1722 5.98145 43.1885 5.93262C43.2048 5.88379 43.2129 5.8431 43.2129 5.81055C43.2129 5.74544 43.2048 5.68848 43.1885 5.63965C43.1722 5.59082 43.1641 5.55013 43.1641 5.51758C43.1315 5.45247 43.099 5.40364 43.0664 5.37109C43.0339 5.33854 43.0013 5.30599 42.9688 5.27344ZM44.7266 7.03125C44.694 6.9987 44.6615 6.96614 44.6289 6.93359C44.5964 6.90104 44.5475 6.86849 44.4824 6.83594C44.4499 6.83594 44.4092 6.8278 44.3604 6.81152C44.3115 6.79525 44.2708 6.78711 44.2383 6.78711C44.1732 6.78711 44.1162 6.79525 44.0674 6.81152C44.0186 6.8278 43.9779 6.83594 43.9453 6.83594C43.9128 6.86849 43.8721 6.90104 43.8232 6.93359C43.7744 6.96614 43.7337 6.9987 43.7012 7.03125C43.6686 7.0638 43.6361 7.09636 43.6035 7.12891C43.571 7.16146 43.5547 7.21029 43.5547 7.27539C43.5221 7.30794 43.5059 7.34863 43.5059 7.39746C43.5059 7.44629 43.5059 7.48698 43.5059 7.51953C43.5059 7.58464 43.5059 7.6416 43.5059 7.69043C43.5059 7.73926 43.5221 7.77995 43.5547 7.8125C43.5547 7.84505 43.571 7.88574 43.6035 7.93457C43.6361 7.9834 43.6686 8.02409 43.7012 8.05664C43.7337 8.08919 43.7744 8.12175 43.8232 8.1543C43.8721 8.18685 43.9128 8.20312 43.9453 8.20312C43.9779 8.23568 44.0186 8.25195 44.0674 8.25195C44.1162 8.25195 44.1732 8.25195 44.2383 8.25195C44.2708 8.25195 44.3115 8.25195 44.3604 8.25195C44.4092 8.25195 44.4499 8.23568 44.4824 8.20312C44.5475 8.20312 44.5964 8.18685 44.6289 8.1543C44.6615 8.12175 44.694 8.08919 44.7266 8.05664C44.7591 8.02409 44.7917 7.9834 44.8242 7.93457C44.8568 7.88574 44.8893 7.84505 44.9219 7.8125C44.9219 7.77995 44.93 7.73926 44.9463 7.69043C44.9626 7.6416 44.9707 7.58464 44.9707 7.51953C44.9707 7.48698 44.9626 7.44629 44.9463 7.39746C44.93 7.34863 44.9219 7.30794 44.9219 7.27539C44.8893 7.21029 44.8568 7.16146 44.8242 7.12891C44.7917 7.09636 44.7591 7.0638 44.7266 7.03125ZM45.166 3.07617C45.1335 3.04362 45.1009 3.01107 45.0684 2.97852C45.0358 2.94596 44.987 2.92969 44.9219 2.92969C44.8893 2.89714 44.8486 2.88086 44.7998 2.88086C44.751 2.88086 44.7103 2.88086 44.6777 2.88086C44.6126 2.88086 44.5557 2.88086 44.5068 2.88086C44.458 2.88086 44.4173 2.89714 44.3848 2.92969C44.3522 2.92969 44.3115 2.94596 44.2627 2.97852C44.2139 3.01107 44.1732 3.04362 44.1406 3.07617C44.1081 3.10872 44.0755 3.14128 44.043 3.17383C44.0104 3.20638 43.9941 3.25521 43.9941 3.32031C43.9616 3.35286 43.9453 3.39355 43.9453 3.44238C43.9453 3.49121 43.9453 3.54818 43.9453 3.61328C43.9453 3.64583 43.9453 3.68652 43.9453 3.73535C43.9453 3.78418 43.9616 3.82487 43.9941 3.85742C43.9941 3.92253 44.0104 3.97136 44.043 4.00391C44.0755 4.03646 44.1081 4.06901 44.1406 4.10156C44.1732 4.13411 44.2139 4.16667 44.2627 4.19922C44.3115 4.23177 44.3522 4.24805 44.3848 4.24805C44.4173 4.2806 44.458 4.30501 44.5068 4.32129C44.5557 4.33757 44.6126 4.3457 44.6777 4.3457C44.7103 4.3457 44.751 4.33757 44.7998 4.32129C44.8486 4.30501 44.8893 4.2806 44.9219 4.24805C44.987 4.24805 45.0358 4.23177 45.0684 4.19922C45.1009 4.16667 45.1335 4.13411 45.166 4.10156C45.1986 4.06901 45.2311 4.03646 45.2637 4.00391C45.2962 3.97136 45.3288 3.92253 45.3613 3.85742C45.3613 3.82487 45.3695 3.78418 45.3857 3.73535C45.402 3.68652 45.4102 3.64583 45.4102 3.61328C45.4102 3.54818 45.402 3.49121 45.3857 3.44238C45.3695 3.39355 45.3613 3.35286 45.3613 3.32031C45.3288 3.25521 45.2962 3.20638 45.2637 3.17383C45.2311 3.14128 45.1986 3.10872 45.166 3.07617ZM46.9238 4.83398C46.8913 4.80143 46.8587 4.76888 46.8262 4.73633C46.7936 4.70378 46.7448 4.67122 46.6797 4.63867C46.6471 4.63867 46.6064 4.63054 46.5576 4.61426C46.5088 4.59798 46.4681 4.58984 46.4355 4.58984C46.3704 4.58984 46.3135 4.59798 46.2646 4.61426C46.2158 4.63054 46.1751 4.63867 46.1426 4.63867C46.11 4.67122 46.0693 4.70378 46.0205 4.73633C45.9717 4.76888 45.931 4.80143 45.8984 4.83398C45.8659 4.86654 45.8333 4.89909 45.8008 4.93164C45.7682 4.96419 45.752 5.01302 45.752 5.07812C45.7194 5.11068 45.7031 5.15137 45.7031 5.2002C45.7031 5.24902 45.7031 5.28971 45.7031 5.32227C45.7031 5.38737 45.7031 5.44434 45.7031 5.49316C45.7031 5.54199 45.7194 5.58268 45.752 5.61523C45.752 5.64779 45.7682 5.68848 45.8008 5.7373C45.8333 5.78613 45.8659 5.82682 45.8984 5.85938C45.931 5.89193 45.9717 5.92448 46.0205 5.95703C46.0693 5.98958 46.11 6.00586 46.1426 6.00586C46.1751 6.03841 46.2158 6.05469 46.2646 6.05469C46.3135 6.05469 46.3704 6.05469 46.4355 6.05469C46.4681 6.05469 46.5088 6.05469 46.5576 6.05469C46.6064 6.05469 46.6471 6.03841 46.6797 6.00586C46.7448 6.00586 46.7936 5.98958 46.8262 5.95703C46.8587 5.92448 46.8913 5.89193 46.9238 5.85938C46.9564 5.82682 46.9889 5.78613 47.0215 5.7373C47.054 5.68848 47.0866 5.64779 47.1191 5.61523C47.1191 5.58268 47.1273 5.54199 47.1436 5.49316C47.1598 5.44434 47.168 5.38737 47.168 5.32227C47.168 5.28971 47.1598 5.24902 47.1436 5.2002C47.1273 5.15137 47.1191 5.11068 47.1191 5.07812C47.0866 5.01302 47.054 4.96419 47.0215 4.93164C46.9889 4.89909 46.9564 4.86654 46.9238 4.83398Z" fill="#F92596"/>
</g>
<defs>
<clipPath id="clip0_1_920">
<rect width="50" height="50" fill="white" transform="matrix(1 0 0 -1 0 50)"/>
</clipPath>
</defs>
</svg>
