<svg width="24" height="25" viewBox="0 0 24 25" fill="none" xmlns="http://www.w3.org/2000/svg">
<g clip-path="url(#clip0_69_189)">
<path d="M6.08332 24.264C-2.0338 18.1762 -2.02174 8.31471 6.08332 2.23592C6.43945 1.96882 6.99126 1.92504 7.41226 2.12239L11.4633 4.02143C11.6769 4.12156 11.8368 4.2748 11.9151 4.45437C11.9933 4.63394 11.9849 4.82843 11.8914 5.00384L9.86588 8.8017C9.77936 8.96393 9.62485 9.10067 9.42566 9.1913C9.22647 9.28193 8.99339 9.32154 8.76157 9.30415L5.27345 9.04259C3.95776 11.7736 3.9852 14.7834 5.27345 17.4574L8.76163 17.1957C8.99346 17.1784 9.22653 17.218 9.42572 17.3086C9.62491 17.3992 9.77942 17.536 9.86595 17.6982L11.8914 21.4961C11.985 21.6715 11.9934 21.866 11.9151 22.0456C11.8369 22.2251 11.677 22.3784 11.4634 22.4785L7.41232 24.3776C7.20631 24.4741 6.96275 24.5154 6.72139 24.4948C6.48003 24.4742 6.2551 24.3928 6.08332 24.264ZM15.4454 4.97529C16.1849 5.91499 16.1849 7.08504 15.4454 8.02474C15.1985 8.33848 14.6261 8.39782 14.2755 8.14573L13.9021 7.87732C13.6576 7.70164 13.6025 7.42629 13.7608 7.20185C13.9131 6.98555 13.9927 6.74463 13.9927 6.50002C13.9927 6.2554 13.9131 6.01449 13.7608 5.79818C13.6024 5.57374 13.6576 5.2984 13.9021 5.12271L14.2755 4.85431C14.6261 4.60221 15.1985 4.66156 15.4454 4.97529ZM21.1821 0.700901C24.9408 4.05734 24.9378 8.94537 21.1821 12.2991C20.9024 12.5488 20.3989 12.5684 20.0851 12.3428L19.7227 12.0823C19.4377 11.8774 19.4116 11.5419 19.6646 11.3146C22.77 8.52373 22.7674 4.47396 19.6646 1.68542C19.4116 1.45807 19.4376 1.12254 19.7227 0.917651L20.0851 0.657167C20.3989 0.431557 20.9024 0.451198 21.1821 0.700901ZM18.3088 2.80751C20.5619 4.97885 20.5656 8.01762 18.3088 10.1925C18.0344 10.4569 17.5153 10.4855 17.1928 10.2536L16.8292 9.99209C16.5542 9.79432 16.5168 9.47201 16.7489 9.24532C18.4074 7.62514 18.4073 5.37476 16.7489 3.75467C16.5168 3.52798 16.5542 3.20571 16.8292 3.0079L17.1928 2.74639C17.5153 2.51449 18.0344 2.54309 18.3088 2.80751Z" fill="white"/>
</g>
<defs>
<clipPath id="clip0_69_189">
<rect width="24" height="24" fill="white" transform="translate(0 0.5)"/>
</clipPath>
</defs>
</svg>
