<svg width="24" height="25" viewBox="0 0 24 25" fill="none" xmlns="http://www.w3.org/2000/svg">
<path d="M21.75 3.5H2.25C1.00734 3.5 0 4.50734 0 5.75V19.25C0 20.4927 1.00734 21.5 2.25 21.5H21.75C22.9927 21.5 24 20.4927 24 19.25V5.75C24 4.50734 22.9927 3.5 21.75 3.5ZM21.75 5.75V7.66273C20.699 8.51862 19.0234 9.8495 15.4412 12.6545C14.6518 13.2754 13.0881 14.7672 12 14.7498C10.9121 14.7674 9.34786 13.2752 8.55877 12.6545C4.97719 9.84992 3.30117 8.51877 2.25 7.66273V5.75H21.75ZM2.25 19.25V10.5499C3.32409 11.4054 4.8473 12.6059 7.16897 14.4239C8.19352 15.2304 9.98775 17.0108 12 17C14.0024 17.0108 15.7739 15.2563 16.8306 14.4243C19.1522 12.6064 20.6759 11.4055 21.75 10.55V19.25H2.25Z" fill="white"/>
</svg>
