<svg width="41" height="40" viewBox="0 0 41 40" fill="none" xmlns="http://www.w3.org/2000/svg">
<path d="M20.407 6.80609C20.2248 6.75401 20.0425 6.73448 19.8602 6.7475C19.6779 6.76052 19.5477 6.83213 19.4695 6.96234L15.368 12.3139C15.368 12.3139 15.3615 12.3204 15.3484 12.3334C15.3354 12.3465 15.3289 12.366 15.3289 12.392C15.2768 12.5483 15.3224 12.7045 15.4656 12.8608C15.6089 13.017 15.7716 13.1212 15.9539 13.1733C16.0581 13.2254 16.1557 13.2449 16.2469 13.2319C16.338 13.2189 16.4096 13.1733 16.4617 13.0952L17.282 11.9233L19.5477 12.7045L19.4305 14.1108C19.4305 14.2149 19.463 14.2996 19.5281 14.3647C19.5932 14.4298 19.6779 14.4754 19.782 14.5014C19.9643 14.5535 20.1596 14.5665 20.368 14.5405C20.5763 14.5144 20.7065 14.4233 20.7586 14.267C20.7846 14.241 20.7977 14.2215 20.7977 14.2084C20.7977 14.1954 20.7977 14.1759 20.7977 14.1498L21.0711 7.50922C21.0971 7.35297 21.0386 7.21625 20.8953 7.09906C20.7521 6.98187 20.5893 6.88422 20.407 6.80609ZM19.6258 11.6498L17.907 11.0639L19.8211 8.44672L19.6258 11.6498ZM13.0633 31.2592L13.0242 31.0639C12.894 30.5691 12.6987 30.2306 12.4383 30.0483C12.1779 29.866 11.8784 29.7618 11.5399 29.7358C11.7742 29.5535 11.937 29.3126 12.0281 29.0131C12.1193 28.7136 12.0998 28.3556 11.9695 27.9389C11.7873 27.2618 11.4617 26.8582 10.993 26.728C10.5242 26.5978 10.0294 26.6108 9.50861 26.767L7.55548 27.2358C7.42527 27.2879 7.30808 27.3595 7.20392 27.4506C7.09975 27.5418 7.06069 27.6524 7.08673 27.7827L8.80548 34.1498C8.83152 34.254 8.90965 34.3321 9.03986 34.3842C9.17006 34.4363 9.32631 34.4363 9.50861 34.3842L11.618 33.8373C12.1909 33.7071 12.6271 33.4337 12.9266 33.017C13.2261 32.6004 13.2716 32.0144 13.0633 31.2592ZM9.03986 29.853L8.61017 28.1733L9.70392 27.8998C9.96433 27.8217 10.1857 27.8412 10.368 27.9584C10.5503 28.0756 10.6805 28.2514 10.7586 28.4858C10.8107 28.7462 10.7912 28.9741 10.7 29.1694C10.6089 29.3647 10.4331 29.4884 10.1727 29.5405L9.03986 29.853ZM11.0711 32.8217L9.89923 33.0952L9.31329 30.8295L10.4461 30.5561C10.7586 30.478 11.019 30.491 11.2274 30.5952C11.4357 30.6993 11.5919 30.9467 11.6961 31.3373L11.7352 31.4936C11.8393 31.8582 11.8263 32.1446 11.6961 32.353C11.5659 32.5613 11.3576 32.7175 11.0711 32.8217ZM32.7117 30.8295C32.5555 30.8295 32.4123 30.8621 32.282 30.9272C32.1518 30.9923 32.0737 31.103 32.0477 31.2592C32.0477 31.4675 31.9956 31.7019 31.8914 31.9623C31.7873 32.2228 31.4878 32.353 30.993 32.353C30.6544 32.353 30.3875 32.2553 30.1922 32.06C29.9969 31.8647 29.8992 31.5717 29.8992 31.1811V28.3686C29.8992 27.978 29.9969 27.685 30.1922 27.4897C30.3875 27.2944 30.6544 27.1967 30.993 27.1967C31.4878 27.1967 31.7873 27.3269 31.8914 27.5873C31.9956 27.8478 32.0477 28.0561 32.0477 28.2123C32.0737 28.3425 32.1453 28.4402 32.2625 28.5053C32.3797 28.5704 32.5425 28.603 32.7508 28.603C32.9852 28.603 33.1544 28.5639 33.2586 28.4858C33.3628 28.4077 33.4149 28.2384 33.4149 27.978C33.4149 27.379 33.1805 26.9037 32.7117 26.5522C32.243 26.2006 31.657 26.0248 30.9539 26.0248C30.3029 26.0248 29.7365 26.2006 29.2547 26.5522C28.7729 26.9037 28.532 27.5092 28.532 28.3686V31.1811C28.532 32.0144 28.7664 32.6069 29.2352 32.9584C29.7039 33.31 30.2768 33.4858 30.9539 33.4858C31.657 33.4858 32.243 33.3035 32.7117 32.9389C33.1805 32.5743 33.4149 32.0925 33.4149 31.4936C33.4149 31.2332 33.3563 31.0574 33.2391 30.9662C33.1219 30.8751 32.9461 30.8295 32.7117 30.8295ZM26.2274 2.86078L16.8133 0.165466C15.6154 -0.147034 14.4761 -0.0168254 13.3953 0.556091C12.3146 1.12901 11.605 1.98838 11.2664 3.13422L10.368 6.14203C10.3419 6.22015 10.3354 6.29828 10.3484 6.3764C10.3615 6.45453 10.381 6.51963 10.407 6.57172C10.4591 6.64984 10.5177 6.70844 10.5828 6.7475C10.6479 6.78656 10.7195 6.81911 10.7977 6.84515C10.8237 6.8712 10.8563 6.88422 10.8953 6.88422C10.9344 6.88422 10.98 6.88422 11.032 6.88422C11.0581 6.88422 11.0906 6.87771 11.1297 6.86469C11.1688 6.85166 11.2013 6.83213 11.2274 6.80609C11.2794 6.78005 11.3185 6.75401 11.3445 6.72797C11.3706 6.70192 11.3966 6.67588 11.4227 6.64984C11.4487 6.6238 11.4682 6.59776 11.4813 6.57172C11.4943 6.54567 11.5138 6.50661 11.5399 6.45453L12.3992 3.48578C12.5294 3.06911 12.7313 2.69802 13.0047 2.3725C13.2781 2.04698 13.5971 1.78005 13.9617 1.57172C14.3524 1.36338 14.7625 1.23969 15.1922 1.20062C15.6219 1.16156 16.0451 1.19411 16.4617 1.29828L25.9149 3.99359C26.7742 4.22797 27.4188 4.72927 27.8484 5.4975C28.2781 6.26573 28.3758 7.06651 28.1414 7.89984L25.368 17.1186C25.1336 17.9519 24.6193 18.5834 23.825 19.0131C23.0307 19.4428 22.2039 19.5274 21.3445 19.267L11.8914 16.6108C11.4748 16.4806 11.0971 16.2853 10.7586 16.0248C10.4201 15.7644 10.1466 15.4519 9.93829 15.0873C9.72996 14.7228 9.60626 14.3321 9.5672 13.9155C9.52814 13.4988 9.56069 13.0821 9.66486 12.6655L10.7195 9.11078C10.7456 9.03265 10.7586 8.95453 10.7586 8.8764C10.7586 8.79828 10.7326 8.73317 10.6805 8.68109C10.6544 8.60297 10.6089 8.53786 10.5438 8.48578C10.4787 8.4337 10.407 8.40765 10.3289 8.40765C10.2508 8.38161 10.1727 8.36859 10.0945 8.36859C10.0164 8.36859 9.93829 8.39463 9.86017 8.44672C9.78204 8.47276 9.72345 8.51833 9.68439 8.58344C9.64532 8.64854 9.61277 8.72015 9.58673 8.79828L8.53204 12.353C8.34975 12.8998 8.29116 13.4597 8.35626 14.0327C8.42137 14.6056 8.59715 15.1394 8.88361 15.6342C9.17006 16.155 9.54767 16.5978 10.0164 16.9623C10.4852 17.3269 11.006 17.5873 11.5789 17.7436L20.993 20.3998C21.2013 20.4519 21.4096 20.4975 21.618 20.5366C21.8263 20.5756 22.0346 20.5952 22.243 20.5952C23.2065 20.5952 24.0919 20.3087 24.8992 19.7358C25.7065 19.1629 26.2534 18.3946 26.5399 17.4311L29.2742 8.2514C29.6128 7.10557 29.4891 6.00531 28.9031 4.95062C28.3172 3.89594 27.4253 3.19932 26.2274 2.86078ZM20.1727 33.4467L18.6102 23.9936C18.506 23.4207 18.2977 22.8868 17.9852 22.392C17.6727 21.8972 17.282 21.4806 16.8133 21.142C16.3185 20.8035 15.7846 20.5691 15.2117 20.4389C14.6388 20.3087 14.0659 20.2957 13.493 20.3998L3.76642 21.9233C2.54246 22.1056 1.57241 22.685 0.856261 23.6616C0.140115 24.6381 -0.126812 25.7123 0.0554801 26.8842L0.602355 30.0483C0.628397 30.2045 0.706522 30.3282 0.83673 30.4194C0.966938 30.5105 1.12319 30.5431 1.30548 30.517C1.38361 30.517 1.45522 30.4975 1.52032 30.4584C1.58543 30.4194 1.64402 30.3608 1.69611 30.2827C1.72215 30.2306 1.74819 30.1655 1.77423 30.0873C1.80027 30.0092 1.80027 29.9311 1.77423 29.853L1.26642 26.728C1.11017 25.8425 1.29897 25.0483 1.83282 24.3452C2.36668 23.642 3.07631 23.2123 3.96173 23.0561L13.6492 21.5327C14.0919 21.4806 14.5216 21.5001 14.9383 21.5912C15.355 21.6824 15.7456 21.8452 16.1102 22.0795C16.4487 22.3399 16.7352 22.6459 16.9695 22.9975C17.2039 23.3491 17.3471 23.7332 17.3992 24.1498L18.9617 33.603C19.118 34.4884 18.9292 35.2827 18.3953 35.9858C17.8615 36.6889 17.1518 37.1186 16.2664 37.2748L6.57892 38.7983C6.13621 38.8764 5.70652 38.8634 5.28986 38.7592C4.87319 38.655 4.49558 38.4858 4.15704 38.2514C3.79246 37.991 3.49949 37.685 3.27814 37.3334C3.05678 36.9819 2.90704 36.5978 2.82892 36.1811L2.24298 32.5483C2.21694 32.392 2.1323 32.2683 1.98907 32.1772C1.84584 32.086 1.69611 32.0535 1.53986 32.0795C1.46173 32.0795 1.39012 32.1056 1.32501 32.1577C1.25991 32.2097 1.20131 32.2618 1.14923 32.3139C1.09715 32.366 1.06459 32.4311 1.05157 32.5092C1.03855 32.5873 1.03204 32.6655 1.03204 32.7436L1.65704 36.3373C1.73517 36.9103 1.93048 37.4441 2.24298 37.9389C2.55548 38.4337 2.95913 38.8504 3.45392 39.1889C3.8185 39.4493 4.22215 39.6511 4.66486 39.7944C5.10756 39.9376 5.56329 40.0092 6.03204 40.0092C6.16225 40.0092 6.28595 40.0027 6.40314 39.9897C6.52032 39.9767 6.64402 39.9702 6.77423 39.9702L16.4617 38.4077C17.6857 38.2254 18.6557 37.6459 19.3719 36.6694C20.088 35.6928 20.355 34.6186 20.1727 33.4467ZM35.5633 20.7123H25.7195C24.4956 20.7123 23.4474 21.1355 22.575 21.9819C21.7026 22.8282 21.2664 23.8504 21.2664 25.0483V28.2514C21.2664 28.3295 21.2794 28.4011 21.3055 28.4662C21.3315 28.5314 21.3706 28.5899 21.4227 28.642C21.4748 28.7202 21.5399 28.7722 21.618 28.7983C21.6961 28.8243 21.7742 28.8373 21.8524 28.8373C21.9305 28.8373 22.0086 28.8243 22.0867 28.7983C22.1649 28.7722 22.23 28.7202 22.282 28.642C22.3341 28.5899 22.3732 28.5314 22.3992 28.4662C22.4253 28.4011 22.4383 28.3295 22.4383 28.2514V25.0483C22.4383 24.1629 22.7573 23.4142 23.3953 22.8022C24.0333 22.1902 24.8081 21.8842 25.7195 21.8842H35.5633C36.4487 21.8842 37.2104 22.1902 37.8484 22.8022C38.4865 23.4142 38.8055 24.1629 38.8055 25.0483V34.6186C38.8055 35.504 38.4865 36.2592 37.8484 36.8842C37.2104 37.5092 36.4487 37.8217 35.5633 37.8217H25.7195C24.8081 37.8217 24.0333 37.5092 23.3953 36.8842C22.7573 36.2592 22.4383 35.504 22.4383 34.6186V30.9858C22.4383 30.9077 22.4253 30.8295 22.3992 30.7514C22.3732 30.6733 22.3341 30.6082 22.282 30.5561C22.23 30.504 22.1649 30.4649 22.0867 30.4389C22.0086 30.4129 21.9305 30.3998 21.8524 30.3998C21.7742 30.3998 21.6961 30.4129 21.618 30.4389C21.5399 30.4649 21.4748 30.504 21.4227 30.5561C21.3706 30.6082 21.3315 30.6733 21.3055 30.7514C21.2794 30.8295 21.2664 30.9077 21.2664 30.9858V34.6186C21.2664 35.8165 21.7026 36.8452 22.575 37.7045C23.4474 38.5639 24.4956 38.9936 25.7195 38.9936H35.5633C36.7873 38.9936 37.8354 38.5639 38.7078 37.7045C39.5802 36.8452 40.0164 35.8165 40.0164 34.6186V25.0483C40.0164 23.8504 39.5802 22.8282 38.7078 21.9819C37.8354 21.1355 36.7873 20.7123 35.5633 20.7123Z" fill="white"/>
</svg>
